<?xml version="1.0" encoding="utf-8"?>
<!-- Generator: Adobe Illustrator 26.0.0, SVG Export Plug-In . SVG Version: 6.00 Build 0)  -->
<svg version="1.1" id="Layer_1" xmlns="http://www.w3.org/2000/svg" xmlns:xlink="http://www.w3.org/1999/xlink" x="0px" y="0px"
	 viewBox="0 0 111 103.2" style="enable-background:new 0 0 111 103.2;" xml:space="preserve">
<style type="text/css">
	.st0{fill:url(#SVGID_1_);}
	.st1{fill-rule:evenodd;clip-rule:evenodd;fill:#FFFFFF;}
</style>
<g>
	
		<linearGradient id="SVGID_1_" gradientUnits="userSpaceOnUse" x1="31.0029" y1="111.7799" x2="77.8885" y2="6.1394" gradientTransform="matrix(1 0 0 -1 0 108)">
		<stop  offset="0" style="stop-color:#FF858A"/>
		<stop  offset="1" style="stop-color:#F04148"/>
	</linearGradient>
	<path class="st0" d="M37.6-0.1h35.9c20.7,0,37.5,16.8,37.5,37.5v28.1c0,20.7-16.8,37.5-37.5,37.5H37.6c-20.7,0-37.5-16.8-37.5-37.5
		V37.3C0.1,16.6,16.9-0.1,37.6-0.1z"/>
</g>
<path class="st1" d="M59.1,62.5l1.7-1.7l-3.3-3.3c-3.7,3.1-8.4,4.7-13.1,4.7c-5.3,0-10.6-2-14.8-6.1c-4.1-4.1-6.1-9.4-6.1-14.8
	s2-10.9,6.1-15c4.1-4.1,9.5-6.1,14.8-6.1s10.6,2,14.8,6.1c4.1,4.1,6.1,9.4,6.1,14.8c0,4.7-1.6,9.4-4.7,13.1l3.3,3.3l1.7-1.7
	l18.7,18.7c1.9,1.9,1.9,4.8,0,6.7c-1.9,1.9-4.8,1.9-6.7,0L59.1,62.5z M44.4,23.9c-4.4,0-8.7,1.7-12.2,5c-3.3,3.3-5,7.8-5,12.2
	c0,4.4,1.7,8.7,5,12.2c3.3,3.3,7.8,5,12.2,5c4.4,0,8.7-1.7,12.2-5c3.4-3.3,5-7.8,5-12.2c0-4.4-1.7-8.7-5-12.2
	C53.2,25.6,48.8,23.9,44.4,23.9z M59.1,41.1c0,8.1-6.6,14.8-14.8,14.8c-8.1,0-14.8-6.6-14.8-14.8S36,26.3,44.3,26.3v14.8H59.1z
	 M56.4,43.4H41.9V28.9c-5.6,1.1-9.8,6.1-9.8,12.2c0,6.9,5.5,12.3,12.3,12.3C50.4,53.4,55.3,49.2,56.4,43.4z M46.3,26.4
	c6.6,0.9,11.9,6.1,12.6,12.6H46.3V26.4z"/>
</svg>
