<svg width="71" height="66" viewBox="0 0 71 66" fill="none" xmlns="http://www.w3.org/2000/svg">
<rect width="70.9743" height="66" rx="24" fill="url(#paint0_linear_0_1)"/>
<g clip-path="url(#clip0_0_1)">
<path d="M42.9803 26.0981V15.8761C42.9803 14.2977 41.6902 13 40.1042 13H21.8761C20.2825 13 19 14.2977 19 15.8761V50.1239C19 51.7099 20.2825 53 21.8761 53H40.1042C41.6902 53 42.9803 51.7175 42.9803 50.1239V39.8792C42.3884 40.2965 41.7433 40.6304 41.0679 40.8809V47.6424C41.0679 48.1736 40.6354 48.5986 40.1117 48.5986H21.8837C21.3525 48.5986 20.9275 48.1736 20.9275 47.6424V15.8761C20.9275 15.3449 21.3601 14.9199 21.8837 14.9199H25.5794C25.8829 14.9199 26.1713 15.0641 26.3459 15.307L26.7329 15.8306C26.9074 16.0734 27.1958 16.2176 27.4993 16.2176H34.4733C34.7769 16.2176 35.0653 16.0658 35.2398 15.8306L35.6268 15.307C35.809 15.0641 36.0973 14.9199 36.3933 14.9199H40.1042C40.6354 14.9199 41.0603 15.3525 41.0603 15.8761V25.1116C41.7433 25.3544 42.3884 25.6883 42.9803 26.0981ZM29.5103 49.8128H32.6521C33.1984 49.8128 33.6386 50.2529 33.6386 50.7993C33.6386 51.3457 33.1984 51.7858 32.6521 51.7858H29.5103C28.964 51.7858 28.5238 51.3381 28.5238 50.7993C28.5162 50.2529 28.964 49.8128 29.5103 49.8128Z" fill="white"/>
<path d="M29.7608 22.5693V25.9539C29.7608 26.6748 29.1764 27.2591 28.4555 27.2591H25.0634C24.3424 27.2591 23.7581 26.6748 23.7581 25.9539V22.5693C23.7581 21.8484 24.3424 21.264 25.0634 21.264H28.4555C29.1764 21.264 29.7608 21.8484 29.7608 22.5693Z" fill="white"/>
<path d="M29.7608 22.577V25.9615C29.7608 26.6825 29.1764 27.2668 28.4555 27.2668H25.0634C24.3424 27.2668 23.7581 26.6825 23.7581 25.9615V22.577C23.7581 21.8561 24.3424 21.2717 25.0634 21.2717H28.4555C29.1764 21.2717 29.7608 21.8485 29.7608 22.577Z" fill="white"/>
<path d="M29.7608 40.0385V43.423C29.7608 44.144 29.1764 44.7283 28.4555 44.7283H25.0634C24.3424 44.7283 23.7581 44.144 23.7581 43.423V40.0385C23.7581 39.3176 24.3424 38.7332 25.0634 38.7332H28.4555C29.1764 38.7256 29.7608 39.3176 29.7608 40.0385Z" fill="white"/>
<path d="M32.2574 31.3039V34.6885C32.2574 35.4094 31.6731 35.9937 30.9522 35.9937H27.56C26.8391 35.9937 26.2548 35.4094 26.2548 34.6885V31.3039C26.2548 30.583 26.8391 29.9987 27.56 29.9987H30.9522C31.6731 29.9987 32.2574 30.583 32.2574 31.3039Z" fill="white"/>
<path d="M52.9215 36.6388H44.6346C43.3977 38.8016 41.0983 40.3042 38.4726 40.3952C36.2946 40.4787 34.314 39.6136 32.9101 38.1718C32.2878 37.5419 32.7279 36.4795 33.6158 36.4795H36.8714C37.0763 36.4795 37.2812 36.3732 37.4026 36.2063L39.4288 33.3909C39.5957 33.1556 39.5957 32.8445 39.4288 32.6168L37.4026 29.8014C37.2812 29.6269 37.0763 29.5282 36.8714 29.5282H33.6158C32.7355 29.5282 32.2954 28.4658 32.9101 27.8284C34.2533 26.4548 36.1277 25.5973 38.1994 25.5973C40.9693 25.5973 43.3825 27.115 44.6574 29.3613H52.9291L52.9215 36.6388Z" fill="white"/>
</g>
<defs>
<linearGradient id="paint0_linear_0_1" x1="14.5175" y1="2.86509e-07" x2="44.5638" y2="67.6989" gradientUnits="userSpaceOnUse">
<stop stop-color="#5C7B7C"/>
<stop offset="1" stop-color="#7C9091"/>
</linearGradient>
<clipPath id="clip0_0_1">
<rect width="33.9215" height="40" fill="white" transform="translate(19 13)"/>
</clipPath>
</defs>
</svg>
