<?xml version="1.0" encoding="utf-8"?>
<!-- Generator: Adobe Illustrator 26.0.0, SVG Export Plug-In . SVG Version: 6.00 Build 0)  -->
<svg version="1.1" id="Layer_1" xmlns="http://www.w3.org/2000/svg" xmlns:xlink="http://www.w3.org/1999/xlink" x="0px" y="0px"
	 viewBox="0 0 111 103.1" style="enable-background:new 0 0 111 103.1;" xml:space="preserve">
<style type="text/css">
	.st0{fill:url(#SVGID_1_);}
	.st1{clip-path:url(#SVGID_00000123434838295918098050000003104300453551993732_);}
	.st2{fill:#FFFFFF;}
</style>
<g>
	
		<linearGradient id="SVGID_1_" gradientUnits="userSpaceOnUse" x1="31.1471" y1="111.6497" x2="78.0517" y2="5.9664" gradientTransform="matrix(1 0 0 -1 0 108)">
		<stop  offset="0" style="stop-color:#FF858A"/>
		<stop  offset="1" style="stop-color:#F04148"/>
	</linearGradient>
	<path class="st0" d="M37.7,0h35.9C94.3,0,111,16.8,111,37.5v28.1c0,20.7-16.8,37.5-37.5,37.5H37.7C17,103,0.2,86.3,0.2,65.6V37.5
		C0.2,16.8,17,0,37.7,0z"/>
</g>
<g>
	<defs>
		<rect id="SVGID_00000107589681763125279820000015106294052310778542_" x="23.7" y="34.4" width="62.4" height="33.7"/>
	</defs>
	<clipPath id="SVGID_00000110438152191537637320000005339886954514253490_">
		<use xlink:href="#SVGID_00000107589681763125279820000015106294052310778542_"  style="overflow:visible;"/>
	</clipPath>
	<g style="clip-path:url(#SVGID_00000110438152191537637320000005339886954514253490_);">
		<path class="st2" d="M31.9,65.4h0.8c-0.8-1.4-1.2-3-1.2-4.5c0-4.7,3.3-8.4,7.8-9.2c0.9-5,5.3-8.6,10.5-8.6c1.1,0,2.2,0.2,3.1,0.5
			l0.2-0.2c1.9-2.2,5.3-6.2,12.5-6.6c-2-1.4-4.4-2.3-7.2-2.5c-8.9-0.5-12.3,4.8-14.2,6.9c-0.9-0.5-2.2-0.6-3.3-0.6
			c-5,0-9.1,3.7-9.5,8.4c-4.2,0.3-7.6,3.9-7.6,8.3C23.7,61.8,27.4,65.4,31.9,65.4z"/>
		<path class="st2" d="M81.6,54.3L80.9,54v-0.6c-0.6-6.4-5.5-13.3-12.6-14c-0.3,0-0.6,0-0.8-0.2C60,38.9,56.7,42.6,54.9,45
			c-0.3,0.3-0.5,0.5-0.6,0.8l-0.5,0.6l-0.6-0.3c-0.9-0.3-2-0.6-3.1-0.6c-4.4,0-8,3.3-8.4,7.5l-0.2,0.9h-0.9C36.8,54.2,34,57.3,34,61
			c0,1.7,0.6,3.3,1.7,4.5c1.2,1.6,3.3,2.5,5.6,2.5h37.9c4.1,0,7.2-3.3,7.2-7.2C86.1,57.9,84.2,55.4,81.6,54.3z"/>
	</g>
</g>
</svg>
