<?xml version="1.0" encoding="utf-8"?>
<!-- Generator: Adobe Illustrator 26.0.0, SVG Export Plug-In . SVG Version: 6.00 Build 0)  -->
<svg version="1.1" id="Layer_1" xmlns="http://www.w3.org/2000/svg" xmlns:xlink="http://www.w3.org/1999/xlink" x="0px" y="0px"
	 viewBox="0 0 111 103.1" style="enable-background:new 0 0 111 103.1;" xml:space="preserve">
<style type="text/css">
	.st0{fill:url(#SVGID_1_);}
	.st1{clip-path:url(#SVGID_00000161601552428117322330000002245583751138600886_);}
	.st2{fill:#FFFFFF;}
</style>
<g>
	
		<linearGradient id="SVGID_1_" gradientUnits="userSpaceOnUse" x1="31.2471" y1="111.2588" x2="77.9036" y2="6.1345" gradientTransform="matrix(1 0 0 -1 0 108)">
		<stop  offset="0" style="stop-color:#FFD085"/>
		<stop  offset="1" style="stop-color:#FFAF2E"/>
	</linearGradient>
	<path class="st0" d="M37.8,0.4h35.7c20.6,0,37.3,16.7,37.3,37.3v28c0,20.6-16.7,37.3-37.3,37.3H37.8c-20.6,0-37.3-16.7-37.3-37.3
		v-28C0.5,17.1,17.2,0.4,37.8,0.4z"/>
</g>
<g>
	<defs>
		<rect id="SVGID_00000120526782581316284730000011669549123335437968_" x="23.8" y="26.8" width="62.1" height="49.5"/>
	</defs>
	<clipPath id="SVGID_00000019666014114581556650000004819963961607435449_">
		<use xlink:href="#SVGID_00000120526782581316284730000011669549123335437968_"  style="overflow:visible;"/>
	</clipPath>
	<g style="clip-path:url(#SVGID_00000019666014114581556650000004819963961607435449_);">
		<path class="st2" d="M64.8,30.5c0,2-4.5,3.7-9.9,3.7s-9.9-1.7-9.9-3.7s4.3-3.7,9.9-3.7S64.8,28.5,64.8,30.5z"/>
		<path class="st2" d="M54.8,42.2c5.6,0,9.9-1.7,9.9-3.7v-4.3c-2,1.7-6.2,2.5-9.9,2.5s-7.9-0.8-9.9-2.5v4.5
			C44.9,40.6,49.3,42.2,54.8,42.2z M51.7,38.1c1.1,0.2,2.2,0.2,3.1,0.2c1.1,0,2.2,0,3.1-0.2v2c-1.1,0.2-2.2,0.2-3.1,0.2
			c-1.1,0-2.2,0-3.1-0.2V38.1z"/>
		<path class="st2" d="M51,47.7v-1.6c0-0.6,0.2-1.4,0.5-1.9c-2.6-0.3-5.1-1.1-6.7-2.2v2.3C44.9,45.9,47.4,47.3,51,47.7z"/>
		<path class="st2" d="M64.8,44.5v-2.3c-1.6,1.2-4,1.9-6.7,2.2c0.3,0.6,0.5,1.2,0.5,1.9v1.6C62.3,47.3,64.8,45.9,64.8,44.5z"/>
		<path class="st2" d="M35,56.1h17.9v5.1h3.9v-5.1h17.9v5.1h3.9v-6.8c0-0.6-0.3-1.1-0.6-1.6c-0.5-0.5-0.9-0.6-1.6-0.6H56.9v-5.9
			c0-0.5-0.2-0.9-0.5-1.4c-0.3-0.3-0.8-0.6-1.2-0.6c-0.6,0-1.1,0.2-1.6,0.5c-0.5,0.3-0.6,0.9-0.6,1.4v5.9H33.3
			c-0.6,0-1.1,0.2-1.6,0.6c-0.5,0.5-0.6,0.9-0.6,1.6v6.8H35V56.1z"/>
		<path class="st2" d="M62,65.3c0-0.3-0.2-0.8-0.5-0.9c-0.3-0.3-0.6-0.5-0.9-0.5H49.3c-0.3,0-0.8,0.2-0.9,0.5
			c-0.3,0.3-0.5,0.6-0.5,0.9v7.5h-2.3c0,0.9,0.3,1.9,1.1,2.5c0.6,0.6,1.6,1.1,2.5,1.1h11.3c0.9,0,1.9-0.3,2.5-1.1
			c0.6-0.6,1.1-1.6,1.1-2.5h-2.2L62,65.3z M59,72.7h-8.5v-6.1H59V72.7z"/>
		<path class="st2" d="M40.1,65.3c0-0.3-0.2-0.8-0.5-0.9c-0.3-0.3-0.6-0.5-0.9-0.5H27.4c-0.3,0-0.8,0.2-0.9,0.5
			C26.1,64.7,26,65,26,65.3v7.5h-2.2c0,0.9,0.3,1.9,1.1,2.5c0.6,0.6,1.6,1.1,2.5,1.1h11.3c0.9,0,1.9-0.3,2.5-1.1
			c0.6-0.6,1.1-1.6,1.1-2.5h-2.2V65.3z M37.3,72.7h-8.5v-6.1h8.5V72.7z"/>
		<path class="st2" d="M83.7,72.7v-7.5c0-0.3-0.2-0.8-0.5-0.9c-0.3-0.3-0.6-0.5-0.9-0.5H71c-0.3,0-0.8,0.2-0.9,0.5
			c-0.3,0.3-0.5,0.6-0.5,0.9v7.5h-2.3c0,0.9,0.3,1.9,1.1,2.5c0.6,0.6,1.6,1.1,2.5,1.1h11.3c0.9,0,1.9-0.3,2.5-1.1
			c0.6-0.6,1.1-1.6,1.1-2.5H83.7z M80.9,72.7h-8.5v-6.1h8.5V72.7z"/>
	</g>
</g>
</svg>
