<svg width="71" height="66" viewBox="0 0 71 66" fill="none" xmlns="http://www.w3.org/2000/svg">
<rect width="70.9743" height="66" rx="24" fill="url(#paint0_linear_0_1)"/>
<g clip-path="url(#clip0_0_1)">
<path d="M53.2057 45.1676C53.2057 43.0876 52.3829 41.099 50.9124 39.6285C49.4419 38.1581 47.4533 37.3352 45.3733 37.3352C43.2933 37.3352 41.3048 38.1581 39.8343 39.6285C38.3638 41.099 37.541 43.0876 37.541 45.1676C37.541 47.2476 38.3638 49.2362 39.8343 50.7066C41.3048 52.1771 43.2933 53 45.3733 53C47.4457 53 49.4419 52.1695 50.9048 50.7066C52.3752 49.2362 53.2057 47.2476 53.2057 45.1676ZM43.7352 48.6419C43.5752 48.6419 43.4305 48.5809 43.3162 48.4666L40.4362 45.5866C40.3219 45.48 40.2533 45.3276 40.2533 45.1676C40.2533 45.0076 40.3143 44.8552 40.4286 44.7409C40.5429 44.6266 40.6952 44.5657 40.8552 44.5657C41.0152 44.5657 41.1676 44.6343 41.2743 44.7485L43.7505 47.2247L49.4952 41.8533C49.7314 41.6323 50.1124 41.64 50.3333 41.8838C50.5543 42.12 50.5467 42.5009 50.3029 42.7219L44.1467 48.4895C44.0324 48.5885 43.8876 48.6419 43.7352 48.6419Z" fill="white"/>
<path d="M36.36 45.1676C36.36 44.8171 36.3829 44.4667 36.4209 44.1162H21.541C21.2133 44.1162 20.9467 43.8495 20.9467 43.5219C20.9467 43.1943 21.2133 42.9276 21.541 42.9276H36.6419C36.8857 41.9905 37.2743 41.099 37.8 40.2838H21.541C21.2133 40.2838 20.9467 40.0171 20.9467 39.6895C20.9467 39.3619 21.2133 39.0952 21.541 39.0952H38.7143C40.1848 37.4724 42.2038 36.4438 44.3829 36.2V15.5524H37.6705V17.6705C37.6705 17.8305 37.6095 17.9752 37.4952 18.0895C37.381 18.2038 37.2362 18.2647 37.0762 18.2647H24.3067C23.979 18.2647 23.7124 17.9981 23.7124 17.6705V15.5524H17V49.1524H37.2895C36.68 47.9181 36.36 46.5543 36.36 45.1676ZM21.541 23.7809H39.8419C40.1695 23.7809 40.4362 24.0476 40.4362 24.3752C40.4362 24.7028 40.1695 24.9695 39.8419 24.9695H21.541C21.2133 24.9695 20.9467 24.7028 20.9467 24.3752C20.9467 24.0476 21.2133 23.7809 21.541 23.7809ZM21.541 27.6133H39.8419C40.1695 27.6133 40.4362 27.88 40.4362 28.2076C40.4362 28.5352 40.1695 28.8019 39.8419 28.8019H21.541C21.2133 28.8019 20.9467 28.5352 20.9467 28.2076C20.9467 27.88 21.2133 27.6133 21.541 27.6133ZM21.541 31.4457H39.8419C40.1695 31.4457 40.4362 31.7124 40.4362 32.04C40.4362 32.3676 40.1695 32.6343 39.8419 32.6343H21.541C21.2133 32.6343 20.9467 32.3676 20.9467 32.04C20.9467 31.7047 21.2133 31.4457 21.541 31.4457ZM21.541 35.2705H39.8419C40.1695 35.2705 40.4362 35.5371 40.4362 35.8647C40.4362 36.1924 40.1695 36.459 39.8419 36.459H21.541C21.2133 36.459 20.9467 36.1924 20.9467 35.8647C20.9467 35.5371 21.2133 35.2705 21.541 35.2705Z" fill="white"/>
<path d="M24.9009 13H36.4819V17.0838H24.9009V13Z" fill="white"/>
</g>
<defs>
<linearGradient id="paint0_linear_0_1" x1="14.5175" y1="2.86509e-07" x2="44.5638" y2="67.6989" gradientUnits="userSpaceOnUse">
<stop stop-color="#FFD085"/>
<stop offset="1" stop-color="#FFAF2E"/>
</linearGradient>
<clipPath id="clip0_0_1">
<rect width="36.2057" height="40" fill="white" transform="translate(17 13)"/>
</clipPath>
</defs>
</svg>
