<svg width="71" height="66" viewBox="0 0 71 66" fill="none" xmlns="http://www.w3.org/2000/svg">
<rect width="70.9743" height="66" rx="24" fill="url(#paint0_linear_0_1)"/>
<g clip-path="url(#clip0_0_1)">
<path d="M27.7313 47.5516C27.7313 48.357 27.0813 49.0071 26.2758 49.0071H22.637C16.2073 49 11 43.7927 11 37.363V28.637C11 22.2144 16.2073 17 22.637 17H26.2758C27.0813 17 27.7313 17.65 27.7313 18.4555V23.5498H29.9146C31.9212 23.5498 33.5533 25.1749 33.5533 27.1886C33.5533 29.1952 31.9282 30.8273 29.9146 30.8273H27.7313V35.1939H29.9146C31.9212 35.1939 33.5533 36.8189 33.5533 38.8326C33.5533 40.8393 31.9282 42.4714 29.9146 42.4714H27.7313V47.5516ZM42.2722 17H48.815C55.2517 17 60.459 22.2073 60.459 28.637V37.363C60.459 43.7927 55.2517 49 48.822 49H42.2793C41.4738 49 40.8238 48.35 40.8238 47.5445V43.178C40.8238 42.3725 41.4738 41.7225 42.2793 41.7225H43.7348C45.3387 41.7225 46.6458 40.4224 46.6458 38.8114C46.6458 37.2076 45.3458 35.9004 43.7348 35.9004H42.2793C41.4738 35.9004 40.8238 35.2504 40.8238 34.4449V31.5339C40.8238 30.7284 41.4738 30.0784 42.2793 30.0784H43.7348C45.3387 30.0784 46.6458 28.7783 46.6458 27.1674C46.6458 25.5635 45.3458 24.2563 43.7348 24.2563H42.2793C41.4738 24.2563 40.8238 23.6063 40.8238 22.8008V18.4555C40.8238 17.65 41.4738 17 42.2722 17Z" fill="white"/>
</g>
<defs>
<linearGradient id="paint0_linear_0_1" x1="14.5175" y1="2.86509e-07" x2="44.5638" y2="67.6989" gradientUnits="userSpaceOnUse">
<stop stop-color="#FCECDB"/>
<stop offset="1" stop-color="#C7751F"/>
</linearGradient>
<clipPath id="clip0_0_1">
<rect width="49.459" height="32" fill="white" transform="translate(11 17)"/>
</clipPath>
</defs>
</svg>
