<svg width="71" height="66" viewBox="0 0 71 66" fill="none" xmlns="http://www.w3.org/2000/svg">
<rect width="70.9743" height="66" rx="24" fill="url(#paint0_linear_0_1)"/>
<g clip-path="url(#clip0_0_1)">
<path d="M34.074 36.8342C34.9124 36.2501 35.6566 35.5436 36.3066 34.7522C37.5973 35.1291 38.6712 35.7037 39.3401 36.1276C39.7546 36.382 40.2916 36.2124 40.4706 35.7602L41.3373 33.537L41.5916 32.8775L42.4583 30.6543C42.6373 30.2021 42.3547 29.7028 41.8742 29.618C41.0923 29.4767 39.9242 29.1752 38.7089 28.5817C38.7748 27.536 38.6901 26.5186 38.4734 25.5389C39.5756 24.7664 40.6872 24.2765 41.4409 24.0221C41.9025 23.862 42.1003 23.325 41.8554 22.9105L40.659 20.8474L40.301 20.235L39.1046 18.1719C38.8596 17.748 38.2944 17.6632 37.927 17.9835C37.3335 18.5016 36.3632 19.227 35.1479 19.8017C34.3943 19.1234 33.5464 18.5393 32.6138 18.0871C32.6985 16.7494 33.0188 15.5812 33.2826 14.837C33.4428 14.3754 33.1507 13.8855 32.6703 13.8196L30.3057 13.471L29.6086 13.3674L27.244 13.0188C26.7635 12.9435 26.3396 13.3297 26.3679 13.8196C26.4056 14.6109 26.3773 15.8168 26.0664 17.1262C25.0396 17.2958 24.0598 17.5973 23.146 18.04C22.1474 17.1356 21.4315 16.1653 21.0075 15.4965C20.7532 15.082 20.1879 15.0066 19.83 15.3363L18.0777 16.9472L17.5596 17.4277L15.8168 19.0575C15.4588 19.3872 15.5059 19.9618 15.8921 20.2445C16.5327 20.7155 17.456 21.4974 18.2944 22.5525C17.8045 23.4286 17.4277 24.3801 17.1922 25.3975C15.8639 25.6142 14.658 25.5671 13.8667 25.4729C13.3768 25.4258 12.9623 25.812 13 26.3019L13.1884 28.6853L13.2449 29.3919L13.4334 31.7753C13.471 32.2558 13.9421 32.5855 14.4131 32.4536C15.1762 32.2463 16.3632 32.0014 17.7103 32.0108C18.0966 32.9623 18.6147 33.8478 19.2459 34.6486C18.5864 35.8262 17.7951 36.74 17.2299 37.2958C16.8907 37.6349 16.9378 38.2096 17.3335 38.4828L19.3118 39.8205L19.8959 40.2162L21.8742 41.5539C22.2793 41.8271 22.8257 41.6575 23.0141 41.2148C23.325 40.4894 23.8808 39.406 24.7287 38.3603C25.2091 38.5016 25.7084 38.6241 26.2171 38.6995C26.7259 38.7748 27.244 38.8031 27.7433 38.8031C28.252 40.0466 28.4687 41.243 28.5629 42.0344C28.6194 42.5148 29.0904 42.8351 29.5521 42.6844L31.8318 41.9779L32.5101 41.7706L34.7899 41.064C35.2515 40.9227 35.4682 40.3858 35.2327 39.9618C34.8559 39.2553 34.3566 38.1437 34.074 36.8342ZM33.2638 28.6006C32.821 31.5963 30.0231 33.6783 27.0273 33.2355C24.0316 32.7927 21.9496 29.9948 22.3924 26.999C22.8351 24.0033 25.6331 21.9213 28.6288 22.3641C31.6246 22.8069 33.6971 25.6048 33.2638 28.6006Z" fill="white"/>
<path d="M50.9086 46.3302C50.513 46.2549 49.91 46.1041 49.2977 45.8027C49.3354 45.2751 49.2883 44.757 49.1752 44.2577C49.7405 43.862 50.3057 43.6171 50.6825 43.4852C50.918 43.4004 51.0217 43.1366 50.8992 42.9199L50.2869 41.8648L50.1079 41.554L49.4955 40.4988C49.3731 40.2822 49.081 40.2445 48.902 40.4046C48.6006 40.6684 48.1107 41.0358 47.4889 41.3279C47.1027 40.9793 46.6693 40.6873 46.1983 40.4517C46.236 39.7735 46.4056 39.18 46.5374 38.7937C46.6222 38.5582 46.4715 38.3133 46.2266 38.2756L45.0207 38.0966L44.6627 38.0401L43.4569 37.8611C43.212 37.8234 42.9953 38.0212 43.0141 38.2662C43.033 38.6712 43.0141 39.2836 42.8634 39.9524C42.3453 40.0372 41.846 40.1974 41.3749 40.4141C40.8662 39.9524 40.4988 39.4626 40.2916 39.114C40.1597 38.9068 39.8771 38.8691 39.6886 39.0292L38.8031 39.8582L38.5299 40.1314L37.6444 40.9605C37.4654 41.13 37.4842 41.4221 37.6821 41.5634C38.0118 41.7989 38.4828 42.204 38.9067 42.741C38.6524 43.1837 38.464 43.6736 38.3415 44.1917C37.6632 44.3048 37.0509 44.2765 36.6458 44.2294C36.4008 44.2012 36.1936 44.399 36.2124 44.6439L36.3066 45.8592L36.3349 46.2172L36.4291 47.4324C36.448 47.6774 36.6835 47.8469 36.9284 47.781C37.3146 47.6774 37.927 47.5549 38.6053 47.5549C38.8031 48.0353 39.0669 48.4875 39.3872 48.9021C39.0575 49.505 38.643 49.9666 38.3603 50.2492C38.1813 50.4282 38.2096 50.7108 38.4169 50.8521L39.4249 51.5304L39.7263 51.7282L40.7343 52.4065C40.9416 52.5478 41.2148 52.463 41.3184 52.237C41.4786 51.8695 41.7612 51.3137 42.1945 50.7862C42.4395 50.8615 42.6938 50.9181 42.9576 50.9557C43.2214 50.9934 43.4757 51.0123 43.7395 51.0123C44.0033 51.6435 44.1069 52.2558 44.154 52.6609C44.1823 52.9058 44.4272 53.066 44.6627 52.9906L45.8215 52.6326L46.1606 52.529L47.3194 52.171C47.5549 52.0956 47.6585 51.8319 47.5455 51.6058C47.357 51.2478 47.1027 50.6825 46.952 50.0137C47.3759 49.7122 47.7621 49.3637 48.0919 48.9492C48.7513 49.1376 49.2977 49.4296 49.6368 49.6463C49.8441 49.7782 50.1267 49.6934 50.2115 49.4579L50.6543 48.3274L50.7862 47.9882L51.2289 46.8578C51.2949 46.6223 51.1536 46.3679 50.9086 46.3302ZM43.4569 47.423C42.3453 47.2629 41.5728 46.2266 41.7423 45.115C41.9025 44.0033 42.9388 43.2308 44.0504 43.4004C45.162 43.5606 45.9345 44.5968 45.765 45.7085C45.6048 46.8107 44.5685 47.5832 43.4569 47.423Z" fill="white"/>
<path d="M57.6915 31.8696C57.3335 31.8036 56.7965 31.6717 56.2407 31.3985C56.269 30.9181 56.2313 30.4565 56.1276 30.0043C56.6364 29.6463 57.1451 29.4296 57.4842 29.3072C57.6915 29.2318 57.7857 28.9869 57.6726 28.7984L57.1262 27.8564L56.9661 27.5738L56.4197 26.6317C56.3066 26.4433 56.0523 26.3962 55.8827 26.5469C55.6095 26.7824 55.1667 27.1216 54.6109 27.3759C54.2624 27.065 53.8761 26.8013 53.4522 26.594C53.4899 25.9817 53.6406 25.4447 53.7536 25.1056C53.829 24.8983 53.6971 24.6722 53.471 24.6345L52.0674 24.4273L50.984 24.2671C50.7673 24.2389 50.5695 24.4084 50.5789 24.6345C50.5977 24.9925 50.5789 25.5483 50.4376 26.1512C49.9666 26.2266 49.5238 26.3679 49.0999 26.5658C48.6477 26.1512 48.3179 25.7085 48.1201 25.3976C47.9976 25.2092 47.7433 25.1715 47.5831 25.3222L46.7824 26.0665L46.5469 26.2831L45.7461 27.0274C45.586 27.1781 45.6048 27.4419 45.7838 27.5738C46.0758 27.7904 46.4998 28.1484 46.886 28.6289C46.6599 29.0245 46.4903 29.4673 46.3773 29.9289C45.765 30.0325 45.2186 30.0043 44.8512 29.9666C44.6345 29.9383 44.4366 30.1173 44.4555 30.3434L44.5403 31.4362L44.5685 31.7565L44.6533 32.8493C44.6722 33.0754 44.8888 33.2167 45.0961 33.1602C45.4447 33.066 45.991 32.9529 46.6034 32.9624C46.7824 33.3957 47.0179 33.8008 47.3099 34.1682C47.0085 34.7052 46.6411 35.1291 46.3867 35.3835C46.2266 35.5436 46.2548 35.798 46.4338 35.9299L47.6114 36.7212L48.5158 37.3335C48.7042 37.456 48.9491 37.3806 49.0339 37.1734C49.1752 36.8437 49.4296 36.3444 49.8158 35.8639C50.0419 35.9299 50.268 35.9864 50.5035 36.0241C50.739 36.0617 50.9746 36.0712 51.2007 36.0712C51.4362 36.6458 51.5304 37.1922 51.5775 37.5502C51.6057 37.7669 51.8224 37.9176 52.0297 37.8517L53.0754 37.5219L53.3862 37.4277L54.4319 37.098C54.6486 37.0321 54.7428 36.7871 54.6392 36.5893C54.4696 36.269 54.2435 35.7603 54.1022 35.1574C54.4885 34.8936 54.8276 34.5733 55.1291 34.2059C55.7226 34.3755 56.2124 34.6392 56.5139 34.8371C56.7023 34.9595 56.9472 34.8748 57.032 34.6675L57.4277 33.6501L57.5407 33.3486L57.9364 32.3312C58.04 32.1333 57.9081 31.9073 57.6915 31.8696ZM50.9934 32.8493C49.9948 32.6986 49.2977 31.7659 49.4484 30.7674C49.5991 29.7688 50.5318 29.0716 51.5304 29.2224C52.529 29.3731 53.2261 30.3057 53.0754 31.3043C52.9246 32.3029 51.992 33 50.9934 32.8493Z" fill="white"/>
</g>
<defs>
<linearGradient id="paint0_linear_0_1" x1="14.5175" y1="2.86509e-07" x2="44.5638" y2="67.6989" gradientUnits="userSpaceOnUse">
<stop stop-color="#B8A7F3"/>
<stop offset="1" stop-color="#9B85E9"/>
</linearGradient>
<clipPath id="clip0_0_1">
<rect width="44.9835" height="40" fill="white" transform="translate(13 13)"/>
</clipPath>
</defs>
</svg>
