<svg width="71" height="66" viewBox="0 0 71 66" fill="none" xmlns="http://www.w3.org/2000/svg">
<rect width="70.9743" height="66" rx="24" fill="url(#paint0_linear_0_1)"/>
<g clip-path="url(#clip0_0_1)">
<path d="M45.9437 24.7471H17.6908C16.2147 24.7471 15 25.9618 15 27.4378C15 28.9139 16.2147 30.1286 17.6908 30.1286H45.9437C47.4198 30.1286 48.6344 28.9139 48.6344 27.4378C48.6344 25.9618 47.4274 24.7471 45.9437 24.7471Z" fill="white"/>
<path d="M39.3552 23.4016H42.9224L34.3735 13.4459C33.9045 12.9077 33.0281 12.8385 32.4899 13.3075C31.9518 13.7764 31.8826 14.6529 32.3515 15.191L39.3552 23.4016Z" fill="white"/>
<path d="M24.287 23.4017L31.2829 15.1987C31.7519 14.6605 31.6827 13.7841 31.1445 13.3152C30.6064 12.8462 29.73 12.9154 29.261 13.4535L20.7198 23.4017H24.287Z" fill="white"/>
<path d="M36.5261 44.2589C36.5261 41.9679 37.2641 39.8845 38.5403 38.2009V35.5101C38.5403 34.7721 39.1476 34.1647 39.8857 34.1647C40.6237 34.1647 41.231 34.7721 41.231 35.5101V35.71C42.7071 34.7721 44.4599 34.2339 46.3435 34.1647L46.7432 31.4048C46.4742 31.474 46.2051 31.474 45.936 31.474H17.6908C17.4217 31.474 17.1526 31.474 16.8835 31.4048L18.6979 43.9821C18.8978 45.3275 20.0433 46.2731 21.3886 46.2731H36.7259C36.5952 45.6043 36.5261 44.9278 36.5261 44.2589ZM25.0865 42.237C25.0865 42.975 24.4792 43.5824 23.7411 43.5824C23.0031 43.5824 22.3957 42.975 22.3957 42.237V35.5101C22.3957 34.7721 23.0031 34.1647 23.7411 34.1647C24.4792 34.1647 25.0865 34.7721 25.0865 35.5101V42.237ZM33.1588 42.237C33.1588 42.975 32.5514 43.5824 31.8134 43.5824C31.0754 43.5824 30.468 42.975 30.468 42.237V35.5101C30.468 34.7721 31.0754 34.1647 31.8134 34.1647C32.5514 34.1647 33.1588 34.7721 33.1588 35.5101V42.237Z" fill="white"/>
<path d="M49.3033 44.2589C49.3033 45.7426 48.0963 46.9496 46.6125 46.9496C45.1288 46.9496 43.9218 45.7426 43.9218 44.2589C43.9218 42.7751 45.1288 41.5681 46.6125 41.5681C48.0963 41.5681 49.3033 42.7751 49.3033 44.2589Z" fill="white"/>
<path d="M46.6125 35.5101C41.7692 35.5101 37.8637 39.4156 37.8637 44.2589C37.8637 49.1023 41.7692 53.0077 46.6125 53.0077C51.4559 53.0077 55.3613 49.1023 55.3613 44.2589C55.3613 39.4156 51.4559 35.5101 46.6125 35.5101ZM51.8634 45.4659C51.725 46.0733 51.5251 46.6114 51.1868 47.0804L52.3323 48.9639L51.3944 49.9018L49.5109 48.7563C49.0419 49.0946 48.4346 49.2945 47.8964 49.4329L47.2891 51.6547H45.9437L45.4055 49.5021C44.7982 49.3637 44.26 49.1638 43.7911 48.8255L41.9076 49.9787L40.9696 49.0408L42.1151 47.1573C41.7769 46.6883 41.577 46.081 41.4386 45.5428L39.2168 44.9355V43.5901L41.3694 43.0519C41.5078 42.4446 41.7077 41.9064 42.0459 41.4375L40.9004 39.554L41.8384 38.616L43.7219 39.7615C44.1909 39.4233 44.7982 39.2234 45.3364 39.085L45.9437 36.8632H47.2891L47.8272 39.0158C48.4346 39.1542 48.9727 39.3541 49.4417 39.6923L51.3252 38.5468L52.2631 39.4848L51.1253 41.3683C51.4636 41.8373 51.6635 42.4446 51.8019 42.9827L54.0236 43.5901V44.9355L51.8634 45.4659Z" fill="white"/>
</g>
<defs>
<linearGradient id="paint0_linear_0_1" x1="14.5175" y1="2.86509e-07" x2="44.5638" y2="67.6989" gradientUnits="userSpaceOnUse">
<stop stop-color="#FF858A"/>
<stop offset="1" stop-color="#F04148"/>
</linearGradient>
<clipPath id="clip0_0_1">
<rect width="40.3613" height="40" fill="white" transform="translate(15 13)"/>
</clipPath>
</defs>
</svg>
