<svg width="71" height="66" viewBox="0 0 71 66" fill="none" xmlns="http://www.w3.org/2000/svg">
<rect width="70.9743" height="66" rx="24" fill="url(#paint0_linear_0_1)"/>
<g clip-path="url(#clip0_0_1)">
<path d="M48.8488 13H22.0227L17 22.9785H53.8716L48.8488 13Z" fill="white"/>
<path d="M45.0698 33.024C45.9978 33.9807 47.2798 34.5738 48.7245 34.5738C49.2124 34.5738 49.6812 34.4782 50.1308 34.3538V43.5191H32.5848V34.2964C33.3406 34.0476 34.0199 33.6458 34.5747 33.1101V24.6528H27.4186V33.0814C28.1361 33.7893 29.0545 34.2868 30.0782 34.4782V50.4935H20.7407V34.3538C21.1904 34.4782 21.6496 34.5738 22.1471 34.5738C23.5535 34.5738 24.8163 33.9998 25.7443 33.0814V24.6528H17V29.4363C17 30.6992 17.4784 31.8376 18.2246 32.7369V51.7467C18.2246 52.4356 18.789 53 19.4779 53H51.3841C52.0729 53 52.6374 52.4356 52.6374 51.7467V32.7274C53.3932 31.8281 53.862 30.6896 53.862 29.4267V24.6432H45.0698V33.024Z" fill="white"/>
<path d="M39.8653 34.5738C41.243 34.5738 42.4867 34.0189 43.3956 33.1292V24.6432H36.2394V33.0527C37.1674 33.9902 38.4398 34.5738 39.8653 34.5738Z" fill="white"/>
<path d="M25.4477 43.098C25.4477 43.9878 24.7206 44.7149 23.8309 44.7149C22.9412 44.7149 22.2141 43.9878 22.2141 43.098C22.2141 42.2083 22.9412 41.4812 23.8309 41.4812C24.7206 41.4812 25.4477 42.2083 25.4477 43.098Z" fill="white"/>
</g>
<defs>
<linearGradient id="paint0_linear_0_1" x1="14.5175" y1="2.86509e-07" x2="44.5638" y2="67.6989" gradientUnits="userSpaceOnUse">
<stop stop-color="#FF858A"/>
<stop offset="1" stop-color="#F04148"/>
</linearGradient>
<clipPath id="clip0_0_1">
<rect width="36.8716" height="40" fill="white" transform="translate(17 13)"/>
</clipPath>
</defs>
</svg>
