<svg width="71" height="66" viewBox="0 0 71 66" fill="none" xmlns="http://www.w3.org/2000/svg">
<rect width="70.9743" height="66" rx="24" fill="url(#paint0_linear_0_1)"/>
<g clip-path="url(#clip0_0_1)">
<path d="M51.6666 41.0397C54.0397 43.4127 54.0397 47.254 51.6666 49.627C49.2936 52 45.4524 52 43.0793 49.627L45.0714 47.635L49.6825 43.0238L51.6666 41.0397ZM47.3333 40.6746L42.7222 45.2857L40.7301 47.2699L35.992 42.5318L35.9285 42.5953L25.3968 32.0715L25.4603 32.008L22.0238 28.5715L15.9444 13.9048L30.6111 19.9842L34.0476 23.4207L34.0714 23.3969L44.6031 33.9286L44.5793 33.9524L49.3174 38.6905L47.3333 40.6746ZM24.7301 27.3016C25.127 27.135 25.5317 26.9127 25.8254 26.6191C26.6111 25.8334 26.3968 24.3572 26.0714 24.0318C26.3968 24.3572 27.873 24.5715 28.6587 23.7937C28.9524 23.5 29.1825 23.0873 29.3412 22.6905C29.6111 22.0477 29.7143 21.4524 29.7143 21.4524L21.2857 17.9603L20 19.2461L23.492 27.6746C23.492 27.6746 24.0873 27.5635 24.7301 27.3016ZM54.6746 22.2857L45.7143 13.3254C45.2857 12.8889 44.5793 12.8889 44.1428 13.3254L35.5238 21.9445L46.0555 32.4762L47.9762 30.5556L44.7143 27.2857C44.3095 26.881 44.3095 26.2381 44.7143 25.8334C45.119 25.4365 45.7619 25.4365 46.1666 25.8334L49.4365 29.1032L51.3571 27.1826L48.0873 23.9127C47.6904 23.508 47.6904 22.8572 48.0873 22.4603C48.492 22.0635 49.1428 22.0635 49.5397 22.4603L52.8095 25.7302L54.6746 23.8651C55.1111 23.4207 55.1111 22.7223 54.6746 22.2857ZM15.3254 42.1429C14.8889 42.5794 14.8889 43.2778 15.3254 43.7143L24.2857 52.6746C24.7222 53.1111 25.4206 53.1111 25.8571 52.6746L27.7222 50.8096L24.4524 47.5397C24.0476 47.135 24.0476 46.4842 24.4524 46.0873C24.8571 45.6826 25.5 45.6826 25.9047 46.0873L29.1746 49.3572L31.0952 47.4286L27.8254 44.1588C27.4285 43.754 27.4285 43.1111 27.8254 42.7064C28.2301 42.3016 28.8809 42.3016 29.2777 42.7064L32.5476 45.9762L34.4682 44.0556L23.9444 33.5238L15.3254 42.1429Z" fill="white"/>
</g>
<defs>
<linearGradient id="paint0_linear_0_1" x1="14.5175" y1="2.86509e-07" x2="44.5638" y2="67.6989" gradientUnits="userSpaceOnUse">
<stop stop-color="#5CA1FE"/>
<stop offset="1" stop-color="#217BF4"/>
</linearGradient>
<clipPath id="clip0_0_1">
<rect width="40" height="40" fill="white" transform="translate(15 13)"/>
</clipPath>
</defs>
</svg>
