<svg width="615" height="397" viewBox="0 0 615 397" fill="none" xmlns="http://www.w3.org/2000/svg">
<g clip-path="url(#clip0_27_202)">
<path d="M36.8712 395.254C36.8712 395.254 -34.6981 318.492 24.7776 235.383C77.5452 161.641 139.052 166.691 184.167 196.612C203.394 209.355 258.807 198.193 305.977 123.154C370.294 20.8364 593.269 82.8971 552.619 240.314C532.943 316.486 612.496 319.271 571.964 395.419L36.8712 395.254Z" fill="#E1F6FC"/>
<path d="M614.315 397H0.708607C0.330683 397 0 396.693 0 396.292V396.056C0 395.679 0.307063 395.348 0.708607 395.348H614.315C614.693 395.348 615.024 395.655 615.024 396.056V396.292C615 396.693 614.693 397 614.315 397Z" fill="#2E3552"/>
<path d="M285.876 214.711C285.876 214.57 286.679 197.863 278.624 194.04L279.191 193.497C282.9 194.795 286.986 198.783 288.616 204.399C289.844 208.576 288.899 209.496 288.923 209.661L285.876 214.711Z" fill="#B8A7F3"/>
<path d="M244.753 51.088C244.753 63.4058 249.123 74.7325 256.398 83.5578C262.704 91.1797 266.176 100.737 266.176 110.624V124.877C266.176 133.938 273.593 141.347 282.663 141.347H309.071C318.141 141.347 325.558 133.938 325.558 124.877V110.6C325.558 100.689 329.101 91.1561 335.407 83.487C342.706 74.5909 347.076 63.1934 347.005 50.7813C346.863 22.6062 324.093 0 295.891 0C292.749 0 289.679 0.283167 286.702 0.825903C286.041 0.94389 285.38 1.08547 284.742 1.22706C261.878 6.30046 244.753 26.6885 244.753 51.088Z" fill="#EDB94E"/>
<path d="M244.753 51.088C244.753 63.4058 249.123 74.7325 256.398 83.5578C262.704 91.1797 266.176 100.737 266.176 110.624V124.877C266.176 133.938 273.593 141.347 282.663 141.347H286.726C295.796 141.347 303.213 133.938 303.213 124.877V110.6C303.213 100.689 306.756 91.1561 313.063 83.487C320.361 74.5909 324.731 63.1934 324.66 50.7813C324.518 26.4525 307.512 6.27686 284.718 1.22705C261.878 6.30046 244.753 26.6885 244.753 51.088Z" fill="#EDB94E"/>
<path d="M309 141.347L308.953 141.796L308.22 147.341L308.031 148.804V148.828L307.843 150.291L307.11 155.836L306.921 157.299V157.323L306.732 158.809L306.614 159.612C306.236 162.42 303.024 164.591 299.174 164.591H290.482C289.56 164.591 288.686 164.473 287.86 164.237C287.128 164.024 286.443 163.741 285.828 163.387L285.781 163.364C285.285 163.081 284.836 162.727 284.458 162.373C283.679 161.618 283.159 160.674 283.018 159.659L282.711 157.512L282.522 156.167V156.143L282.333 154.822L281.6 149.677L281.411 148.332V148.309L281.222 146.964L280.419 141.395H309V141.347Z" fill="#AFCDFB"/>
<path opacity="0.2" d="M305.5 77C319.031 77 330 65.5833 330 51.5C330 37.4167 319.031 26 305.5 26C291.969 26 281 37.4167 281 51.5C281 65.5833 291.969 77 305.5 77Z" fill="white"/>
<path d="M284.529 96.088C285.38 96.9847 287.6 98.4477 288.545 99.0848C290.623 100.477 294.521 101.35 295.324 111.355C295.277 120.228 295.347 142.575 295.347 142.834H296.339C296.339 142.598 296.292 121.219 296.316 111.969H296.339C296.339 111.945 296.339 111.733 296.316 111.355C296.316 110.364 296.316 109.538 296.339 108.949C296.41 103.191 302.717 99.2028 302.788 99.1792C306.921 96.6543 311.48 91.8405 311.48 85.7996C311.48 77.1866 304.465 70.1782 295.843 70.1782C287.222 70.1782 280.207 77.1866 280.207 85.7996C280.207 89.8111 281.789 93.1855 284.529 96.088ZM285.214 95.852C282.64 93.1147 281.222 89.5516 281.222 85.7996C281.222 77.7293 287.789 71.7592 295.867 71.7592C303.945 71.7592 310.511 77.7293 310.511 85.7996C310.511 91.5573 306.52 96.4891 302.552 98.8253C301.985 99.1556 300.567 100.005 299.127 101.374C297.284 103.12 296.08 105.055 295.607 107.037C294.757 104.111 293.481 101.02 289.135 98.7781C287.553 97.9758 285.852 96.5364 285.214 95.852Z" fill="#F4F4F4"/>
<path d="M305.551 141.347H305.48H300.638C292.726 143.636 284.86 145.902 281.223 146.916L281.411 148.261V148.285L281.6 149.63C284.553 148.804 291.639 146.798 308.929 141.772L308.976 141.324H305.551V141.347Z" fill="#9ABCEF"/>
<path d="M282.545 156.119V156.143L282.734 157.488C286.135 156.521 293.174 154.515 307.843 150.267L308.031 148.804V148.781L308.22 147.318C298.961 149.984 287.765 153.24 282.356 154.774L282.545 156.119Z" fill="#9ABCEF"/>
<path d="M285.805 163.364L285.852 163.387C286.466 163.741 287.151 164.024 287.883 164.237C291.899 163.08 297.875 161.358 306.732 158.809L306.921 157.323V157.299L307.11 155.836C299.197 158.125 290.104 160.744 284.482 162.349C284.86 162.727 285.309 163.08 285.805 163.364Z" fill="#9ABCEF"/>
<path d="M264.783 181.652C264.783 181.652 263.862 190.241 268.373 193.899C272.885 197.556 281.104 194.89 281.104 194.89C281.104 194.89 282.026 186.3 277.514 182.643C273.026 178.985 264.783 181.652 264.783 181.652Z" fill="#B8A7F3"/>
<path d="M284.506 246.025C284.364 245.175 281.435 225.519 288.899 203.621C296.056 182.572 292.088 164.732 292.064 164.544H297.332C297.473 165.299 297.828 182.831 292.23 206.83C287.175 228.421 296.599 246.025 294.592 246.025H284.506Z" fill="#C2C0F5"/>
<path d="M295.56 187.999C295.584 187.881 298.111 173.487 304.866 171.835C301.843 172.236 297.993 174.384 295.867 178.419C294.261 181.416 294.828 182.265 294.804 182.383L295.56 187.999Z" fill="#B8A7F3"/>
<path d="M164.704 304.924H88.694C87.6547 304.924 86.828 304.074 86.828 303.059V296.853C86.828 295.815 87.6783 294.989 88.694 294.989H164.704C165.743 294.989 166.57 295.839 166.57 296.853V303.059C166.57 304.074 165.72 304.924 164.704 304.924Z" fill="#EDB94E"/>
<path d="M106.149 304.924L105.204 310.752L91.4811 394.971C91.4339 395.254 91.1268 395.49 90.7725 395.49C90.0639 395.49 89.5207 394.994 89.5915 394.428L100.457 308.18L100.858 304.924H106.149Z" fill="#EFCBAB"/>
<path d="M106.149 304.924L105.204 310.752C104.543 308.44 100.48 308.204 100.48 308.204L100.882 304.947H106.149V304.924Z" fill="#CCA07F"/>
<path d="M162.625 395.49C162.247 395.49 161.94 395.277 161.917 394.971L148.193 310.752L147.603 307.118L147.249 304.924H152.516L152.917 308.18L153.248 310.729L163.806 394.428C163.877 394.994 163.334 395.49 162.625 395.49Z" fill="#EFCBAB"/>
<path d="M153.248 310.728C151.902 307.944 147.603 307.095 147.603 307.095L147.249 304.9H152.516L152.917 308.156L153.248 310.728Z" fill="#CCA07F"/>
<path d="M139.761 99.3444C139.737 98.8724 139.383 93.7046 131.494 93.4451C131.494 93.4451 135.368 93.917 136.029 95.616C136.029 95.616 133.383 93.5159 131.258 94.2002C129.108 94.8845 127.856 98.6365 127.833 99.8635C127.809 101.091 129.014 105.079 130.384 105.409C130.903 105.527 131.494 105.503 132.037 105.409C131.683 105.975 131.328 106.589 130.974 107.297C127.833 113.739 131.069 120.039 133.738 119.331C135.438 118.883 135.934 121.785 135.934 121.785L152.492 108.382C152.492 108.382 146.398 95.8048 139.761 99.3444Z" fill="#2C3A64"/>
<path d="M180.411 173.133C180.411 173.133 183.695 172.496 184.45 173.133C185.206 173.77 188.749 177.38 187.993 178.56C187.238 179.74 183.576 177.569 182.821 177.38C182.065 177.168 179.939 176.342 179.939 176.342L180.411 173.133Z" fill="#FFB27D"/>
<path d="M145.524 289.066L142.005 290.364C142.005 290.364 126.723 269.197 124.833 250.556C124.502 247.228 124.62 243.995 125.329 241.022C125.329 241.022 125.187 240.173 124.927 238.662C124.809 237.955 124.668 237.105 124.479 236.138C123.983 233.282 123.298 229.412 122.518 224.976C120.723 214.782 118.385 201.756 116.589 192.152L117.534 191.846L127.785 188.542L129.911 181.817L137.541 179.811C137.541 179.811 139.241 183.138 140.777 198.901C141.06 200.978 141.32 203.243 141.509 205.721C142.099 213.272 142.147 222.616 140.777 233.306C140.422 236.043 139.973 238.875 139.43 241.777C139.029 243.901 138.958 246.804 139.147 250.131C139.926 265.398 145.524 289.066 145.524 289.066Z" fill="#58CEEE"/>
<path d="M141.532 205.744L124.951 238.686C124.833 237.978 124.691 237.129 124.502 236.161C124.006 233.306 123.321 229.436 122.542 225C120.747 214.806 118.408 201.78 116.613 192.176L117.558 191.869L127.809 188.566L129.935 181.84L137.564 179.835C137.564 179.835 139.265 183.162 140.8 198.925C141.084 201.001 141.343 203.29 141.532 205.744Z" fill="#37ADCD"/>
<path d="M134.234 184.082L133.856 180.802C127.431 182.501 110.236 176.035 110.236 176.035C110.236 176.035 104 181.51 104.827 194.63C105.228 201.025 105.96 228.233 106.716 236.303C107 239.229 107.236 241.305 107.33 242.131C107.354 242.391 107.283 242.627 107.141 242.839C106.031 244.751 105.086 246.733 104.331 248.739C96.843 268.655 105.488 293.172 105.488 293.172L107.732 292.275C107.732 292.275 112.645 264.997 116.637 252.939C117.322 250.886 117.959 249.281 118.55 248.337C120.274 245.529 121.904 240.975 123.345 235.524C126.108 225.236 128.329 211.88 129.817 201.544C130.006 201.52 134.234 184.082 134.234 184.082Z" fill="#58CEEE"/>
<path d="M180.411 173.133L179.939 176.342C179.939 176.342 179.726 176.342 179.348 176.319C178.167 176.248 175.333 176.083 172.097 175.729C167.255 175.257 161.492 174.407 159.2 172.991C155.705 170.868 149.988 164.355 146.256 157.818C146.138 157.653 146.068 157.488 145.997 157.346C144.06 153.878 142.69 150.456 142.595 147.719C142.524 146.043 142.713 144.604 143.044 143.353C143.493 141.701 144.249 140.404 145.005 139.412C145.123 139.247 145.217 139.082 145.383 138.964C146.658 137.454 147.91 136.817 147.91 136.817C148.548 136.557 149.233 136.864 149.965 137.643V137.666C150.555 138.28 151.193 139.2 151.807 140.38C151.831 140.404 151.854 140.427 151.854 140.451C151.996 140.687 152.114 140.946 152.28 141.253C152.327 141.3 152.351 141.395 152.398 141.442C152.681 142.055 152.988 142.692 153.272 143.353C156.555 150.48 160.027 161.287 162.932 164.496C164.184 165.889 169.9 168.602 174.459 170.608C177.742 172.071 180.411 173.133 180.411 173.133Z" fill="#FFB27D"/>
<path d="M146.516 144.179C144.509 145.123 142.052 145.76 139.1 145.902C128.045 146.515 125.518 136.817 125.069 130.398C126.652 129.832 128.069 129.879 128.872 129.926C129.651 129.974 130.478 130.044 131.14 130.139C132.486 129.431 134.919 126.009 136.336 120.275L136.808 120.488L144.792 124.239C144.792 124.239 143.942 126.835 143.328 129.313C142.832 131.248 142.477 133.136 142.784 133.655C143.422 133.914 143.8 134.08 143.8 134.08C143.871 134.268 145.595 138.681 146.516 144.179Z" fill="#FFB27D"/>
<path d="M144.792 124.216C144.792 124.216 143.942 126.812 143.328 129.289C138.674 127.991 137.257 123.083 136.832 120.464L144.792 124.216Z" fill="#ED985F"/>
<path d="M145.784 126.977C145.784 126.977 134.635 124.405 136.336 117.467C138.06 110.553 137.777 105.55 144.957 106.919C152.162 108.264 152.87 111.261 152.87 113.715C152.87 116.146 148.737 127.472 145.784 126.977Z" fill="#FFB27D"/>
<path d="M153.508 109.774C152.303 107.273 150.886 107.391 150.012 107.839C144.768 103.002 139.619 106.943 139.619 106.943C137.635 111.709 133.36 113.668 133.36 113.668C133.36 113.668 135.084 115.414 140.044 115.39C141.556 115.367 143.091 114.683 144.485 113.715C141.816 116.405 138.674 118.057 138.674 118.057C144.887 116.877 149.067 109.68 149.492 108.901C150.012 109.68 151.028 111.332 151.122 112.724C151.24 114.612 150.579 118.317 151.666 118.458C151.642 118.482 155.303 113.526 153.508 109.774Z" fill="#2C3A64"/>
<path d="M153.295 143.353C152.894 142.15 150.201 137.454 150.201 137.454C150.201 137.454 148.5 135.896 143.776 134.032C143.847 134.315 145.855 141.583 145.123 143.141C144.367 144.722 130.242 139.625 129.462 138.445C128.848 137.501 128.825 132.569 128.848 130.634C128.848 130.162 128.848 129.856 128.848 129.856C128.848 129.856 123.581 129.148 120.605 130.351C120.605 130.351 121.786 132.9 122.211 135.708C122.258 135.967 122.282 136.25 122.306 136.51C122.353 137.076 122.376 137.643 122.353 138.185C122.306 138.917 121.928 139.554 121.337 140.191C120.794 140.781 120.062 141.347 119.211 141.961C118.668 142.362 118.078 142.763 117.463 143.235C117.416 146.539 117.652 151.966 117.038 157.748C116.873 159.211 116.401 160.626 115.621 161.877C115.314 162.373 114.96 162.845 114.582 163.293C111.464 166.785 105.937 173.746 107.165 178.088C107.259 182.171 141.745 187.551 141.013 183.067C141.013 183.067 146.209 158.101 148.996 152.084C149.091 151.872 149.185 151.659 149.28 151.423C150.177 149.04 150.036 146.61 149.729 144.415C151.311 143.282 153.295 143.353 153.295 143.353Z" fill="#6CA7FF"/>
<path d="M131.73 174.69C124.927 174.62 119.164 167.564 115.645 161.924C116.424 160.674 116.897 159.281 117.062 157.795C117.676 152.013 117.44 146.562 117.487 143.282C118.101 142.834 118.692 142.409 119.235 142.008C120.085 141.395 120.817 140.828 121.361 140.238C126.935 149.654 140.966 174.785 131.73 174.69Z" fill="#4A75CB"/>
<path d="M157.452 178.372L156.531 181.77C156.531 181.77 155.35 181.557 153.484 181.203C152.917 181.085 152.61 181.014 152.61 181.014C151.122 180.731 149.327 180.33 147.39 179.905H147.367C144.036 179.103 140.304 178.159 137.163 177.074C134.942 176.295 133.029 175.469 131.73 174.643C131.588 174.572 131.494 174.478 131.352 174.384C128.234 172.118 124.526 165.464 121.668 158.337C121.266 157.346 120.888 156.379 120.534 155.411C119.211 151.848 118.148 148.332 117.487 145.312C117.086 143.495 116.826 141.843 116.778 140.498C116.755 140.026 116.731 139.578 116.755 139.153C116.802 131.437 120.652 130.375 120.652 130.375C120.723 130.351 120.818 130.328 120.912 130.304C121.573 130.186 122.258 130.658 122.991 131.531C123.888 132.616 124.857 134.41 125.849 136.557C127.36 139.979 128.966 144.439 130.455 148.851C131.281 151.282 132.084 153.689 132.887 155.931C133.336 157.276 133.785 158.573 134.21 159.73C135.037 161.971 135.793 163.765 136.454 164.921C136.879 165.676 138.108 166.715 139.737 167.871C142.548 169.924 146.682 172.401 150.272 174.407C151.76 175.257 153.177 176.035 154.335 176.673C156.201 177.711 157.452 178.372 157.452 178.372Z" fill="#FFB27D"/>
<path d="M125.825 136.581C120.699 135.165 116.755 139.177 116.755 139.177C116.826 131.484 120.652 130.422 120.652 130.422C122.187 129.761 123.959 132.451 125.825 136.581Z" fill="#4A75CB"/>
<path d="M118.503 294.965H100.788C100.788 294.965 100.362 292.275 101.284 290.222C102.181 288.264 103.551 287.367 103.22 284.984C104.354 286.14 106.173 287.438 108.748 287.084C109.055 287.603 110.779 290.317 111.818 291.072C112.976 291.921 118.125 291.615 118.503 294.965Z" fill="#233862"/>
<path d="M156.531 294.966H138.816C138.816 294.966 138.155 292.134 139.312 290.222C140.351 288.523 139.95 287.556 139.194 286.14C139.997 286.47 141.036 286.777 142.17 286.706C143.044 286.659 143.989 286.258 144.816 285.786C145.571 286.659 148.855 290.364 149.87 291.096C151.028 291.921 156.177 291.615 156.531 294.966Z" fill="#233862"/>
<path d="M162.956 204.8L165.412 205.815L177.175 210.629C181.829 212.54 187.214 210.299 189.127 205.626L190.285 202.818C191.04 202.323 191.796 201.804 192.576 201.237C205.425 192.011 219.29 200.978 219.29 200.978C219.432 200.624 219.479 200.293 219.479 200.01C219.456 199.137 218.912 198.547 218.912 198.547C210.267 192.553 197.938 191.822 192.505 191.822C190.781 191.822 189.765 191.893 189.765 191.893L189.434 191.751C191.631 184.318 188.938 176.767 182.962 174.313C181.687 173.794 180.34 173.534 178.994 173.534C176.443 173.534 173.869 174.384 171.577 175.965C169.404 177.451 167.467 179.599 166.074 182.218C164.704 181.84 163.239 182.548 162.696 183.87L158.492 194.134C156.815 198.311 158.822 203.101 162.956 204.8ZM180.01 182.761L179.348 182.477C179.065 182.359 178.758 182.312 178.451 182.312C177.506 182.312 176.632 182.855 176.254 183.775L171.459 181.817C170.16 181.274 168.672 181.817 167.987 182.997L167.278 182.713C168.696 180.118 170.633 178.065 172.829 176.696C175.144 175.257 177.695 174.596 180.152 174.926C180.931 175.021 181.71 175.233 182.466 175.54C187.804 177.734 190.19 184.554 188.253 191.303L187.734 191.09C188.064 189.769 187.379 188.353 186.08 187.81L181.285 185.852C181.805 184.648 181.214 183.256 180.01 182.761Z" fill="#C94C43"/>
<path d="M190.285 202.795C191.04 202.299 191.796 201.78 192.576 201.214C205.425 191.987 219.29 200.954 219.29 200.954C219.432 200.6 219.479 200.27 219.479 199.987C217.542 198.712 210.244 194.465 201.221 195.904C190.663 197.65 188.749 199.113 190.285 202.795Z" fill="#B23B38"/>
<path d="M162.956 204.8L165.412 205.815C161.728 203.809 166.286 195.338 168.956 189.745C171.625 184.153 175.64 186.701 175.64 186.701C176.561 184.837 178.545 184.932 178.545 184.932C178.64 183.138 180.033 182.761 180.033 182.761L179.372 182.477C179.089 182.359 178.782 182.312 178.474 182.312C177.53 182.312 176.656 182.855 176.278 183.775L171.483 181.817C170.184 181.274 168.696 181.817 168.011 182.997L167.302 182.713C168.719 180.118 170.656 178.065 172.853 176.696C175.168 175.257 177.719 174.596 180.175 174.926C179.797 174.62 179.372 174.171 178.994 173.581C176.443 173.581 173.869 174.431 171.577 176.012C169.404 177.498 167.467 179.646 166.074 182.265C164.704 181.888 163.239 182.595 162.696 183.917L158.492 194.182C156.815 198.311 158.822 203.101 162.956 204.8Z" fill="#B23B38"/>
<path d="M168.483 181.675C166.782 182.383 164.373 184.884 160.547 183.374C157.807 182.312 154.901 181.557 153.484 181.227C152.917 181.109 152.61 181.038 152.61 181.038L154.122 176.625C154.122 176.625 154.169 176.649 154.311 176.673C155.303 176.885 160.311 177.947 162.649 177.428C165.294 176.814 169.711 179.976 169.711 179.976C169.711 179.976 170.184 180.991 168.483 181.675Z" fill="#FFB27D"/>
<path d="M216.598 208.387C216.598 206.783 219.503 201.851 219.503 201.851C219.503 201.851 222.408 206.783 222.408 208.387C222.408 209.992 221.109 211.29 219.503 211.29C217.873 211.29 216.598 209.992 216.598 208.387Z" fill="#AFCDFB"/>
<path d="M268.491 149.772C268.491 149.772 261.193 139.483 252.925 136.463C252.925 136.463 256.02 160.603 251.485 160.886C246.95 161.193 249.973 133.749 249.973 133.749C249.973 133.749 228.384 121.785 219.621 122.116C219.621 122.116 232.022 146.232 227.557 145.406C223.117 144.58 209.039 120.11 209.039 120.11C209.039 120.11 186.529 114.565 182.065 127.826C177.624 141.088 183.128 148.167 186.458 149.205C189.789 150.244 211.448 151.235 210.716 153.996C209.984 156.78 195.103 160.414 187.12 157.394C187.12 157.394 194.82 180.094 206.677 179.669C218.558 179.245 222.621 172.142 229.967 172.024C237.313 171.882 242.533 174.171 238.753 175.917C234.974 177.664 222.692 175.634 216.503 180.283C210.315 184.955 205.354 187.763 216.172 190.642C226.99 193.521 243.359 190.265 251.107 185.097C251.13 185.073 257.461 184.578 262.444 213.838C264.358 225.118 262.893 241.848 262.893 241.848L266.909 241.235C269.129 208.434 257.295 181.156 257.295 181.156C257.295 181.156 277.396 166.361 268.491 149.772Z" fill="#B8A7F3"/>
<path d="M334.25 193.073C334.25 193.073 310.015 182.902 318.684 164.402C318.684 164.402 325.983 152.816 334.793 149.064C334.793 149.064 332.856 175.398 337.793 175.469C342.729 175.516 337.84 145.949 337.84 145.949C337.84 145.949 360.539 131.696 370.058 131.555C370.058 131.555 358.035 158.432 362.83 157.276C367.625 156.119 381.443 128.747 381.443 128.747C381.443 128.747 405.536 121.408 411.134 135.543C416.732 149.654 411.181 157.677 407.638 158.998C404.095 160.32 380.664 162.656 381.632 165.629C382.577 168.602 398.922 171.67 407.425 167.942C407.425 167.942 400.41 193.025 387.513 193.238C374.617 193.474 369.775 186.017 361.815 186.3C353.855 186.583 348.328 189.368 352.508 191.043C356.689 192.719 369.893 189.793 376.884 194.488C383.876 199.184 389.427 201.945 377.853 205.697C366.279 209.473 344.855 210.346 339.564 201.733C334.25 193.073 334.25 193.073 334.25 193.073Z" fill="#B8A7F3"/>
<path d="M400.387 141.347C400.387 141.347 338.927 169.192 334.25 193.096C334.25 193.096 335.714 203.385 330.683 215.938L331.203 220.493C331.203 220.493 336.14 204.258 339.541 201.733C339.541 201.709 322.983 183.28 400.387 141.347Z" fill="#C2C0F5"/>
<path d="M330.683 215.915C330.683 215.915 322.534 231.961 330.211 249.494L332.667 248.526C332.667 248.526 327.943 228.799 331.959 218.156C335.951 207.49 330.683 215.915 330.683 215.915Z" fill="#6BB7BF"/>
<path d="M241.871 82.9207C251.792 93.4687 246.642 114.447 246.642 114.447C246.642 114.447 225.384 118.293 215.44 107.745C205.52 97.1734 210.692 76.2191 210.692 76.2191C210.692 76.2191 231.951 72.3727 241.871 82.9207Z" fill="#C2C0F5"/>
<path d="M241.871 82.9207C251.792 93.4687 246.642 114.447 246.642 114.447L210.692 76.2191C210.692 76.2191 231.951 72.3727 241.871 82.9207Z" fill="#B8A7F3"/>
<path d="M356.146 116.452C350.973 122.446 339.257 120.841 339.257 120.841C339.257 120.841 335.951 109.515 341.123 103.497C346.296 97.5038 358.012 99.1084 358.012 99.1084C358.012 99.1084 361.319 110.435 356.146 116.452Z" fill="#C2C0F5"/>
<path d="M356.146 116.452C350.973 122.446 339.257 120.841 339.257 120.841L358.012 99.132C358.012 99.1084 361.319 110.435 356.146 116.452Z" fill="#B8A7F3"/>
<path d="M387.206 218.416V218.51L384.868 254.543L376.152 388.34H213.173L203.583 256.384L200.937 219.997L200.819 218.416H387.206Z" fill="#EDB94E"/>
<path d="M387.206 218.51L384.868 254.543C372.586 250.272 338.478 240.008 294.025 240.008C237.879 240.008 203.583 256.384 203.583 256.384L200.937 220.021L387.206 218.51Z" fill="#DDA636"/>
<path d="M392.875 237.459H194.914L192.647 214.475H395.403L392.875 237.459Z" fill="#EDB94E"/>
<path d="M378.656 395.49H209.677L207.74 387.467H380.805L378.656 395.49Z" fill="#DDA636"/>
<path d="M295.654 392.399V391.006C295.654 391.006 289.253 383.904 287.293 380.293L281.884 370.312L274.798 372.058L283.773 384.777L295.654 392.399Z" fill="#FFB27D"/>
<path d="M256.161 209.355C257.39 204.281 255.595 201.898 253.988 200.647C253.233 198.783 252.335 197.438 251.461 196.919C249.831 195.999 247.871 195.881 246.501 195.975C246.855 195.621 247.54 195.48 247.54 195.48C246.69 195.362 244.8 196.187 244.8 196.187C232.99 191.633 231.148 209.001 231.384 213.036C231.62 217.071 231.596 221.814 225.455 225C213.739 231.064 229.352 253.93 229.352 253.93C229.045 250.673 244.115 233.471 251.981 228.303C253.894 225.495 254.579 220.516 254.626 220.139C254.295 224.079 253.61 226.298 253.02 227.525C256.563 224.221 257.106 216.316 256.161 209.355Z" fill="#A9453D"/>
<path d="M251.485 228.563C251.532 228.586 247.682 230.569 244.8 229.79C242.084 229.058 240.312 225.542 240.359 225.542C241.517 225.306 241.848 223.749 241.824 216.953L242.344 217.047L251.083 218.77C251.083 218.77 250.894 221.507 250.87 224.103C250.87 226.274 250.989 228.327 251.485 228.563Z" fill="#FFB27D"/>
<path d="M251.059 218.77C251.059 218.77 250.87 221.507 250.847 224.103C245.957 223.961 243.383 219.525 242.32 217.047L251.059 218.77Z" fill="#ED975D"/>
<path d="M285.852 376.824L281.223 376.966L276.215 377.107C276.215 377.107 264.641 364.247 258.146 343.623C258.004 343.151 257.838 342.656 257.673 342.16C254.13 331.824 246.761 318.822 242.887 307.071C242.273 305.207 241.706 303.437 241.21 301.762C241.044 301.219 240.903 300.7 240.737 300.18C237.879 290.246 237.053 283.733 236.297 276.772L264.31 276.984C264.334 277.008 268.845 324.556 285.852 376.824Z" fill="#2A4E96"/>
<path d="M260.413 260.938C260.342 274.247 262.374 279.981 262.374 279.981C262.374 279.981 250.374 286.069 236.131 281.586C235.966 281.539 224.321 278.872 224.321 278.872C224.558 278.329 226.683 269.363 226.92 268.867C229.919 262.401 232.211 259.57 232.565 257.588C233.226 253.883 233.25 250.036 232.919 246.426C232.045 236.846 229.471 228.893 229.471 228.893C233.344 228.02 236.982 226.463 241.044 224.953C241.966 226.109 244.824 227.312 247.28 227.265C250.115 227.194 251.036 225.991 250.894 224.669C253.918 226.345 256.327 227.949 256.327 227.949C258.901 232.409 264.121 236.751 264.499 243.594C264.57 245.27 260.413 260.561 260.413 260.938Z" fill="#E7F1FD"/>
<path d="M252.713 221.224C252.713 221.224 241.163 221.413 241.139 214.216C241.139 207.019 239.627 202.205 247.02 201.78C254.39 201.355 255.831 204.093 256.421 206.499C257.012 208.906 255.713 220.988 252.713 221.224Z" fill="#FFB27D"/>
<path d="M252.264 201.591C252.264 201.591 249.099 210.039 244.233 211.266C239.367 212.517 237.265 211.219 237.265 211.219C237.265 211.219 240.997 208.269 241.753 203.101C241.8 203.125 249.878 197.58 252.264 201.591Z" fill="#A9453D"/>
<path d="M251.485 202.276C251.485 202.276 253.847 204.163 254.414 205.98C254.98 207.821 255.24 211.573 256.35 211.455C256.35 211.455 258.736 205.721 256.067 202.464C253.233 199.066 251.485 202.276 251.485 202.276Z" fill="#A9453D"/>
<path d="M244.044 390.676C243.643 388.505 242.91 384.777 242.91 384.777L243.076 371.515H235.021L238.045 384.21C238.116 384.8 238.281 387.089 237.431 389.52C237.431 389.52 236.651 393.036 240.123 393.106C243.595 393.154 244.446 392.823 244.044 390.676Z" fill="#FFB27D"/>
<path d="M237.407 389.496C237.407 389.496 236.746 393.72 237.147 395.49C237.147 395.49 238.163 395.561 240.69 395.561C243.076 395.561 244.351 395.49 244.351 395.49C244.351 395.49 244.422 390.959 243.784 389.425C243.808 389.402 241.352 393.106 237.407 389.496Z" fill="#1E3D70"/>
<path d="M270.877 270.188L276.357 286.801L273.239 288.052L264.216 273.374L270.877 270.188Z" fill="#FFB27D"/>
<path d="M299.788 395.49C299.788 395.49 292.82 395.631 291.639 395.49C290.458 395.372 289.537 393.224 288.261 390.676C287.742 389.638 286.561 389.048 285.356 388.741L285.403 395.49H283.632L281.813 388.363C280.679 386.287 281.53 384.399 282.333 382.747C283.254 382.747 285.947 383.361 290.671 388.694C292.23 390.44 293.954 391.077 295.654 391.006C295.678 391.03 295.702 391.03 295.725 391.053C299.67 392.823 299.788 395.49 299.788 395.49Z" fill="#1E3D70"/>
<path d="M272.247 271.793C272.247 271.793 271.396 269.622 270.286 266.885C269.153 264.148 266.342 237.459 264.476 233.495C262.61 229.507 256.185 226.958 256.185 226.958L250.87 224.669C250.87 224.669 257.555 241.164 257.744 244.515C257.933 247.865 258.523 299.119 258.523 299.119C258.523 299.119 258.122 301.478 262.657 300.487C267.168 299.496 268.349 298.529 268.349 298.529C268.349 298.529 266.696 286.518 265.728 274.719C268.987 274.53 272.247 271.793 272.247 271.793Z" fill="#2A4E96"/>
<path d="M281.246 376.966L276.239 377.107C276.239 377.107 264.665 364.247 258.169 343.623C258.027 343.151 257.862 342.656 257.697 342.16C254.154 331.824 246.784 318.822 242.91 307.071C242.296 305.207 241.729 303.437 241.233 301.762C241.068 301.219 240.926 300.7 240.761 300.18L244.895 297.042C244.895 297.042 257.272 317.076 261.122 335.93C264.452 352.354 277.774 372.058 281.246 376.966Z" fill="#1E3D70"/>
<path d="M245.32 337.724C245.391 346.903 244.918 367.975 243.737 376.706H239.297C236.84 376.706 235.612 376.683 235.612 376.683C232.612 361.51 230.486 348.956 228.927 338.125C227.652 329.252 226.518 321.63 225.644 315.07C224.77 308.487 224.156 302.965 223.943 298.293C223.92 297.561 223.896 296.853 223.873 296.145C223.849 295.437 223.849 294.777 223.849 294.116L248.06 291.756C247.776 307.826 245.273 332.391 245.32 337.724Z" fill="#2A4E96"/>
<path d="M239.297 376.706C236.84 376.706 235.612 376.683 235.612 376.683C232.612 361.51 230.486 348.956 228.927 338.125C227.652 329.252 226.518 321.63 225.644 315.07C224.77 308.487 224.156 302.965 223.943 298.293L232.825 303.508C232.825 303.508 227.156 305.513 229.329 320.639C231.502 335.765 236.297 374.559 239.297 376.706Z" fill="#1E3D70"/>
<path d="M240.43 298.127C240.43 298.127 238.73 304.286 232.825 303.508C226.92 302.729 218.534 299.189 218.534 299.189C218.534 299.189 221.062 291.237 224.18 280.784C227.982 268.135 232.683 251.806 234.88 241.518C235.494 238.639 235.919 236.232 236.084 234.509L240.974 225.023C240.974 225.023 248.272 241.376 248.674 245.506C249.099 249.612 240.43 298.127 240.43 298.127Z" fill="#2A4E96"/>
<path d="M234.549 244.869L240.997 225C240.974 225 232.848 227.43 228.738 229.483C228.738 229.483 226.187 232.787 224.605 240.385C224.605 240.385 222.928 258.649 226.66 265.327C226.66 265.327 238.47 267.687 257.342 261.198V256.88C257.342 256.88 236.698 257.965 232.47 258.461L234.549 244.869Z" fill="#FFB27D"/>
<path d="M240.171 254.142C239.911 260.82 238.328 273.799 224.298 280.736C224.251 280.76 224.227 280.784 224.18 280.784C227.982 268.135 232.683 251.806 234.88 241.518C237.478 245.341 240.312 250.461 240.171 254.142Z" fill="#1E3D70"/>
<path d="M240.997 225C240.997 225 229.022 225.849 226.14 232.268C223.258 238.686 222.337 260.042 225.998 266.319C225.998 266.319 231.053 267.758 239.982 266.083C240.1 266.059 240.194 266.035 240.312 266.012C240.312 266.012 243.17 259.027 240.596 257.658C240.596 257.658 233.061 258.059 233.84 255.558C234.667 253.08 240.997 225 240.997 225Z" fill="#2A4E96"/>
<path d="M271.019 259.546L270.664 260.679L251.012 254.567C251.012 254.567 250.752 254.26 250.87 253.883C251.012 253.434 251.366 253.434 251.366 253.434L271.019 259.546Z" fill="#A9453D"/>
<path d="M272.459 260.632L271.019 259.546L270.688 260.679L272.459 260.632Z" fill="#A9453D"/>
<path d="M275.577 286.353C275.577 286.353 280.561 289.113 281.222 291.19C281.884 293.29 281.435 297.679 280.632 297.608C279.829 297.538 278.671 292.889 278.01 292.559C277.349 292.228 276.428 291.237 276.428 291.969C276.428 292.7 277.089 293.998 276.758 294.187C276.428 294.376 275.388 292.346 274.656 291.969C273.924 291.568 273.64 288.335 272.932 287.462C272.223 286.612 275.577 286.353 275.577 286.353Z" fill="#FFB27D"/>
<path d="M257.342 256.88C257.342 256.88 261.807 254.142 263.673 254.567C265.539 254.992 270.31 258.437 268.019 259.192C265.728 259.947 263.862 259.145 262.988 259.688C262.114 260.23 261.452 261.222 257.342 261.198C253.233 261.198 257.342 256.88 257.342 256.88Z" fill="#FFB27D"/>
<path d="M450.698 268.82C450.698 268.82 445.029 272.053 443.423 272.053C441.84 272.053 435.581 270.849 433.856 271.746C432.109 272.643 428.967 276.206 428.377 277.362C427.314 279.462 432.652 278.542 435.179 276.748C435.557 276.489 436.006 276.394 436.431 276.489C437.73 276.772 440.447 277.268 441.769 276.772C443.541 276.111 452.824 275.403 452.824 275.403L450.698 268.82Z" fill="#ED975D"/>
<path d="M493.899 224.882C493.899 224.882 488.018 266.672 478.262 270.424C473.444 272.265 452.186 276.465 445.903 276.89C445.903 276.89 444.367 275.639 444.745 270.566C444.745 270.566 467.019 262.401 470.184 257.965C474.885 251.358 467.255 230.946 473.16 224.74C479.066 218.51 489.01 215.844 493.899 224.882Z" fill="#4A75CB"/>
<path d="M491.915 312.947C490.191 315.849 488.207 318.586 486.175 321.158C479.845 329.134 472.972 335.718 471.767 341.948C471.531 343.198 471.153 344.52 470.657 345.936C470.161 347.351 469.547 348.862 468.814 350.395C466.122 356.224 462.106 362.76 458.114 368.683C451.194 378.948 444.675 387.514 444.675 387.514L432.723 386.995C433.195 385.791 438.415 371.633 445.383 354.313C448.218 347.281 451.217 339.8 454.123 332.603C454.501 331.636 454.902 330.692 455.28 329.724C456.178 327.53 457.052 325.335 457.902 323.235C464.445 306.977 469.665 294.045 469.665 294.045C469.665 294.045 495.836 284.134 498.552 290.553C500.773 295.862 498.93 301.054 491.915 312.947Z" fill="#41BDDF"/>
<path d="M444.273 385.343C444.273 385.343 443.659 395.207 441.746 395.348C441.486 395.372 432.061 395.372 432.061 395.372L420.039 395.301C420.039 395.301 420.11 392.399 423.629 391.785C427.148 391.172 433.03 388.694 435.156 384.069C437.4 379.184 444.273 385.343 444.273 385.343Z" fill="#163560"/>
<path d="M457.311 358.159C457.311 358.159 465.626 363.492 464.823 365.238C464.704 365.474 460.122 373.686 460.122 373.686L454.193 384.139C454.193 384.139 451.69 382.653 452.871 379.302C454.052 375.951 454.76 369.604 451.737 365.474C448.572 361.132 457.311 358.159 457.311 358.159Z" fill="#163560"/>
<path d="M451.052 368.023C451.052 368.023 458.091 368.707 460.146 360.117C460.146 360.117 452.587 333.004 447.934 327.27C447.722 327.011 447.769 326.727 448.052 326.397C451.548 322.456 490.498 314.41 495.6 306.505C497.347 303.767 498.34 301.195 498.883 298.93C500.04 294.092 499.119 290.765 499.119 290.765L460.217 289.633C460.217 289.633 427.928 309.808 424.172 323.518C421.952 331.706 451.052 368.023 451.052 368.023Z" fill="#58CEEE"/>
<path d="M448.052 326.397C451.548 322.456 490.498 314.41 495.6 306.505C497.348 303.767 498.34 301.195 498.883 298.93V294.022L482.349 291.426C482.349 291.426 477.648 305.844 463.783 311.248C450.769 316.297 448.312 325.288 448.052 326.397Z" fill="#37ADCD"/>
<path d="M470.869 222.262C478.735 224.292 491.773 217 491.773 217C491.773 217 486.719 213.602 484.829 206.122C484.734 205.744 484.64 205.367 484.569 204.966C483.742 204.8 482.183 204.47 480.53 204.116L474.53 209.496C474.53 209.496 474.672 211.738 475.428 215.561C475.546 216.222 475.711 216.953 475.877 217.708C472.664 219.714 470.869 222.262 470.869 222.262Z" fill="#FFB27D"/>
<path d="M500.135 254.85C499.001 270 500.489 293.031 499.214 297.018C498.103 300.464 485.537 298.411 480.506 297.254C478.64 296.83 476.396 296.216 474.082 295.508C467.61 293.502 460.547 290.647 459.768 288.523C459.744 288.429 459.721 288.358 459.697 288.287C459.626 287.981 459.65 287.698 459.721 287.391C459.98 286.305 460.949 285.125 461.067 282.459C461.185 279.462 461.185 275.946 461.28 272.147C461.28 271.722 461.28 271.25 461.327 270.826V270.66C461.327 270.59 461.327 270.495 461.327 270.424C461.445 266.2 461.657 261.741 461.917 257.328C462.083 254.567 462.272 251.806 462.484 249.187C463.051 242.391 463.807 236.374 464.823 232.551C466.476 226.345 470.113 222.286 473.42 219.313L475.806 217.26C478.475 217.85 481.64 217.449 484.475 216.104C487.569 214.64 488.632 213.579 489.175 213.98C496.332 219.478 501.457 236.326 500.135 254.85Z" fill="#6CA7FF"/>
<path d="M474.082 295.508C467.61 293.502 460.547 290.647 459.768 288.523C459.744 288.429 459.721 288.358 459.697 288.287C459.697 287.981 459.697 287.698 459.721 287.391C459.98 286.305 460.949 285.125 461.067 282.459C461.185 279.462 461.185 275.946 461.28 272.147C461.28 271.722 461.28 271.25 461.327 270.826V270.66C461.327 270.59 461.327 270.495 461.327 270.424L487.522 237.081C487.545 237.058 505.166 273.704 474.082 295.508Z" fill="#4A75CB"/>
<path d="M474.53 209.496C474.53 209.496 474.672 211.738 475.428 215.561C481.31 213.673 483.955 208.364 484.853 206.122C484.758 205.744 484.664 205.367 484.593 204.966C483.766 204.8 482.207 204.47 480.554 204.116L474.53 209.496Z" fill="#ED975D"/>
<path d="M473.751 212.871C473.751 212.871 486.553 210.747 485.089 202.795C483.624 194.842 484.309 189.226 476.066 190.265C467.822 191.303 466.807 194.606 466.641 197.391C466.5 200.152 470.373 213.225 473.751 212.871Z" fill="#FFB27D"/>
<path d="M454.808 278.565L422.849 279.25L413.945 251.877C413.85 251.57 413.519 251.405 413.189 251.499C412.882 251.594 412.716 251.924 412.811 252.255L422.07 280.689C422.164 280.996 422.471 281.208 422.779 281.208L454.831 280.524L454.808 278.565Z" fill="#4A75CB"/>
<path d="M454.193 282.058C454.193 282.058 443.706 284.819 439.785 284.535C435.864 284.252 432.581 282.388 432.085 281.397C431.589 280.43 430.55 278.683 433.219 279.014C435.888 279.344 439.549 279.91 439.667 279.391C439.785 278.872 437.494 278.919 437.494 278.919C437.494 278.919 436.809 277.905 437.683 277.881C438.557 277.834 441.108 277.15 442.053 277.622C442.997 278.093 443.871 279.84 444.556 279.769C445.241 279.698 453.32 276.135 453.32 276.135L454.193 282.058Z" fill="#FFB27D"/>
<path d="M491.301 226.604C491.301 226.604 490.073 268.796 480.79 273.586C476.208 275.946 455.54 282.459 449.351 283.568C449.351 283.568 447.674 282.506 447.485 277.409C447.485 277.409 468.72 266.838 471.365 262.071C475.31 254.992 465.484 235.548 470.657 228.728C475.853 221.908 485.443 218.156 491.301 226.604Z" fill="#6CA7FF"/>
<path d="M484.852 206.122C484.852 206.122 484.994 203.408 483.317 201.827C483.317 201.827 483.908 199.09 482.821 198.642C481.735 198.193 481.522 200.482 481.026 200.128C480.53 199.774 478.31 198.052 477.365 195.527C476.42 193.002 467.751 196.069 466.736 196.518C465.72 196.966 462.484 195.314 461.846 193.946C461.846 193.946 463.642 192.506 464.468 191.421C465.271 190.335 470.964 183.044 478.9 185.12C486.836 187.197 487.923 190.972 487.474 194.229C487.002 197.485 488.112 205.036 484.852 206.122Z" fill="#232323"/>
<path d="M526.684 325.807H466.429C465.224 325.807 464.232 324.816 464.232 323.613V311.106C464.232 309.903 465.224 308.911 466.429 308.911H526.684C527.889 308.911 528.881 309.903 528.881 311.106V323.613C528.904 324.816 527.912 325.807 526.684 325.807Z" fill="#DDA636"/>
<path d="M476.326 325.807L475.381 330.267L461.657 394.971C461.61 395.207 461.303 395.372 460.949 395.372C460.24 395.372 459.697 394.994 459.768 394.569L470.633 328.308L471.035 325.807H476.326Z" fill="#EFCBAB"/>
<path d="M476.326 325.807L475.381 330.267C474.719 328.497 470.657 328.308 470.657 328.308L471.058 325.807H476.326Z" fill="#CCA07F"/>
<path d="M532.802 395.372C532.424 395.372 532.117 395.207 532.093 394.971L518.37 330.267L517.779 327.482L517.425 325.807H522.692L523.094 328.308L523.424 330.267L533.983 394.569C534.053 394.994 533.51 395.372 532.802 395.372Z" fill="#EFCBAB"/>
<path d="M523.424 330.267C522.078 328.143 517.779 327.483 517.779 327.483L517.425 325.807H522.692L523.094 328.308L523.424 330.267Z" fill="#CCA07F"/>
<path d="M406.929 395.348C406.339 395.49 405.748 395.136 405.607 394.546L392.497 341.782L389.97 331.565L384.986 311.507L377.404 280.996L384.537 280.524L388.718 301.219L394.741 330.951L397.788 345.936L407.591 394.31C407.662 394.782 407.378 395.23 406.929 395.348Z" fill="#F9DDBF"/>
<path d="M388.718 301.219C388.647 301.408 388.624 301.502 388.624 301.502C388.624 301.502 385.128 306.575 384.986 311.507L377.404 280.996L384.537 280.524L388.718 301.219Z" fill="#EAC8A9"/>
<path d="M382.482 280.996L369.916 331.565L367.389 341.782L354.28 394.546C354.138 395.136 353.548 395.49 352.957 395.348C352.508 395.23 352.225 394.782 352.319 394.334L362.122 345.959L365.169 330.975L375.396 280.548L382.482 280.996Z" fill="#F9DDBF"/>
<path d="M369.916 331.565L367.389 341.782C364.389 341.971 362.098 345.959 362.098 345.959L365.145 330.975L369.893 330.503C369.893 330.503 369.916 330.904 369.916 331.565Z" fill="#EAC8A9"/>
<path d="M340.462 280.996L327.896 331.565L325.369 341.782L312.259 394.546C312.118 395.136 311.527 395.49 310.937 395.348C310.488 395.23 310.204 394.782 310.299 394.334L320.101 345.959L323.148 330.975L333.376 280.548L340.462 280.996Z" fill="#F9DDBF"/>
<path d="M327.92 331.565L325.392 341.782C322.393 341.971 320.101 345.959 320.101 345.959L323.148 330.975L327.896 330.503C327.896 330.503 327.896 330.904 327.92 331.565Z" fill="#EAC8A9"/>
<path d="M372.562 339.163H312.071L333.494 260.112H392.497L372.562 339.163Z" fill="#F9DDBF"/>
<path d="M370.767 339.163H310.275L331.699 260.112H390.679L370.767 339.163Z" fill="#FCECDB"/>
<path d="M371.995 288.547C370.625 293.007 367.791 297.089 364.2 300.275C361.082 303.036 358.768 306.481 357.658 310.068L356.075 315.212C355.083 318.492 351.564 321.182 348.28 321.182H338.738C335.455 321.182 333.589 318.492 334.604 315.212L336.187 310.044C337.273 306.457 337.061 303.012 335.62 300.251C333.966 297.042 333.636 292.913 335.053 288.429C338.242 278.235 348.965 270.07 359.169 270.07C360.303 270.07 361.39 270.165 362.405 270.377C362.641 270.424 362.854 270.472 363.067 270.519C370.767 272.359 374.688 279.722 371.995 288.547Z" fill="#FCEBD9"/>
<path d="M371.995 288.547C370.625 293.007 367.791 297.089 364.2 300.275C361.083 303.036 358.768 306.481 357.658 310.068L356.075 315.212C355.083 318.492 351.564 321.182 348.28 321.182H346.816C343.533 321.182 341.667 318.492 342.682 315.212L344.265 310.044C345.351 306.457 345.139 303.012 343.698 300.251C342.045 297.042 341.714 292.913 343.131 288.429C345.871 279.627 354.256 272.336 363.043 270.519C370.767 272.359 374.688 279.722 371.995 288.547Z" fill="#FAE2C9"/>
<path d="M355.343 301.101C356.288 297.986 354.54 295.461 351.422 295.461C348.304 295.461 344.997 297.986 344.029 301.101C343.367 303.295 344.477 305.018 345.706 305.938C345.729 305.962 347.572 307.401 346.958 309.478C346.887 309.69 346.816 309.997 346.698 310.351C346.651 310.492 346.627 310.563 346.627 310.563C345.611 313.914 343.226 321.63 343.202 321.725H343.556C343.58 321.63 346.084 313.56 347.052 310.351C348.446 306.741 349.957 306.41 350.855 305.915C351.28 305.679 352.249 305.16 352.65 304.829C353.949 303.767 354.894 302.54 355.343 301.101ZM350.666 305.797C348.847 306.599 348.044 307.732 347.406 308.793C347.454 308.086 347.241 307.378 346.769 306.741C346.391 306.245 345.989 305.938 345.824 305.82C344.643 304.971 343.745 303.201 344.383 301.101C345.281 298.175 348.304 296.027 351.233 296.027C354.162 296.027 355.862 298.198 354.965 301.101C354.54 302.469 353.642 303.744 352.414 304.735C352.107 304.971 351.327 305.49 350.666 305.797Z" fill="#EE9849"/>
<path d="M348.257 321.182L348.186 321.347L347.312 323.353L347.076 323.872L346.84 324.415L345.966 326.421L345.729 326.94L345.493 327.483L345.375 327.766C344.926 328.78 343.533 329.559 342.139 329.559H338.998C338.667 329.559 338.36 329.512 338.1 329.441C337.864 329.37 337.651 329.276 337.462 329.134H337.439C337.297 329.04 337.179 328.898 337.084 328.78C336.895 328.497 336.801 328.167 336.872 327.813L336.99 327.034L337.061 326.539L337.132 326.067L337.439 324.203L337.51 323.707L337.58 323.235L337.911 321.229H348.257V321.182Z" fill="#AFCDFB"/>
<path d="M347.005 321.182H345.233C342.115 322.008 339.021 322.834 337.604 323.188L337.533 323.66L337.462 324.155C338.62 323.872 341.407 323.117 348.209 321.324L348.28 321.158H347.005V321.182Z" fill="#9ABCEF"/>
<path d="M337.061 326.515L336.99 327.011C338.336 326.657 341.1 325.925 346.863 324.391L347.099 323.849L347.336 323.329C343.698 324.297 339.281 325.477 337.155 326.02L337.061 326.515Z" fill="#9ABCEF"/>
<path d="M337.439 329.134C337.628 329.276 337.84 329.37 338.1 329.441C339.683 329.016 342.021 328.403 345.517 327.483L345.753 326.94L345.989 326.421C342.871 327.247 339.305 328.19 337.084 328.78C337.155 328.922 337.297 329.04 337.439 329.134Z" fill="#9ABCEF"/>
<path d="M369.42 326.539H368.995C368.924 326.539 368.877 326.491 368.877 326.421C368.877 326.35 368.924 326.303 368.995 326.303H369.42C369.491 326.303 369.539 326.35 369.539 326.421C369.539 326.491 369.491 326.539 369.42 326.539ZM367.791 326.539H366.586C366.515 326.539 366.468 326.491 366.468 326.421C366.468 326.35 366.515 326.303 366.586 326.303H367.791C367.861 326.303 367.909 326.35 367.909 326.421C367.909 326.491 367.861 326.539 367.791 326.539ZM365.381 326.539H364.177C364.106 326.539 364.059 326.491 364.059 326.421C364.059 326.35 364.106 326.303 364.177 326.303H365.381C365.452 326.303 365.499 326.35 365.499 326.421C365.499 326.491 365.452 326.539 365.381 326.539ZM362.972 326.539H361.767C361.697 326.539 361.649 326.491 361.649 326.421C361.649 326.35 361.697 326.303 361.767 326.303H362.972C363.043 326.303 363.09 326.35 363.09 326.421C363.09 326.491 363.019 326.539 362.972 326.539ZM360.539 326.539H359.335C359.264 326.539 359.216 326.491 359.216 326.421C359.216 326.35 359.264 326.303 359.335 326.303H360.539C360.61 326.303 360.657 326.35 360.657 326.421C360.657 326.491 360.61 326.539 360.539 326.539ZM358.13 326.539H356.925C356.854 326.539 356.807 326.491 356.807 326.421C356.807 326.35 356.854 326.303 356.925 326.303H358.13C358.201 326.303 358.248 326.35 358.248 326.421C358.248 326.491 358.201 326.539 358.13 326.539ZM355.721 326.539H354.516C354.445 326.539 354.398 326.491 354.398 326.421C354.398 326.35 354.445 326.303 354.516 326.303H355.721C355.791 326.303 355.839 326.35 355.839 326.421C355.839 326.491 355.791 326.539 355.721 326.539ZM353.311 326.539H352.107C352.036 326.539 351.989 326.491 351.989 326.421C351.989 326.35 352.036 326.303 352.107 326.303H353.311C353.382 326.303 353.429 326.35 353.429 326.421C353.429 326.491 353.382 326.539 353.311 326.539ZM350.902 326.539H349.697C349.627 326.539 349.579 326.491 349.579 326.421C349.579 326.35 349.627 326.303 349.697 326.303H350.902C350.973 326.303 351.02 326.35 351.02 326.421C351.02 326.491 350.973 326.539 350.902 326.539Z" fill="#EAC8A9"/>
<path d="M366.019 268.82C365.995 268.82 365.948 268.82 365.925 268.796C365.877 268.749 365.877 268.678 365.925 268.631L366.775 267.782C366.822 267.734 366.893 267.734 366.94 267.782C366.988 267.829 366.988 267.899 366.94 267.947L366.09 268.796C366.066 268.82 366.043 268.82 366.019 268.82ZM367.72 267.121C367.696 267.121 367.649 267.121 367.625 267.097C367.578 267.05 367.578 266.979 367.625 266.932L368.476 266.083C368.523 266.035 368.594 266.035 368.641 266.083C368.688 266.13 368.688 266.201 368.641 266.248L367.791 267.097C367.791 267.097 367.743 267.121 367.72 267.121ZM369.42 265.422C369.397 265.422 369.35 265.422 369.326 265.398C369.279 265.351 369.279 265.28 369.326 265.233L369.468 265.091C369.491 265.068 369.515 265.068 369.562 265.068H370.578C370.649 265.068 370.696 265.115 370.696 265.186C370.696 265.257 370.649 265.304 370.578 265.304H369.609L369.515 265.398C369.491 265.398 369.444 265.422 369.42 265.422ZM384.089 265.28H383.829C383.758 265.28 383.711 265.233 383.711 265.162C383.711 265.091 383.758 265.044 383.829 265.044H384.089C384.159 265.044 384.207 265.091 384.207 265.162C384.207 265.233 384.159 265.28 384.089 265.28ZM382.648 265.28H381.443C381.372 265.28 381.325 265.233 381.325 265.162C381.325 265.091 381.372 265.044 381.443 265.044H382.648C382.719 265.044 382.766 265.091 382.766 265.162C382.766 265.233 382.695 265.28 382.648 265.28ZM380.215 265.28H379.01C378.939 265.28 378.892 265.233 378.892 265.162C378.892 265.091 378.939 265.044 379.01 265.044H380.215C380.286 265.044 380.333 265.091 380.333 265.162C380.333 265.233 380.286 265.28 380.215 265.28ZM377.806 265.28H376.601C376.53 265.28 376.483 265.233 376.483 265.162C376.483 265.091 376.53 265.044 376.601 265.044H377.806C377.876 265.044 377.924 265.091 377.924 265.162C377.924 265.233 377.876 265.28 377.806 265.28ZM375.396 265.28H374.192C374.121 265.28 374.074 265.233 374.074 265.162C374.074 265.091 374.121 265.044 374.192 265.044H375.396C375.467 265.044 375.514 265.091 375.514 265.162C375.514 265.233 375.467 265.28 375.396 265.28ZM372.987 265.28H371.782C371.712 265.28 371.664 265.233 371.664 265.162C371.664 265.091 371.712 265.044 371.782 265.044H372.987C373.058 265.044 373.105 265.091 373.105 265.162C373.105 265.233 373.058 265.28 372.987 265.28Z" fill="#EAC8A9"/>
<path d="M382.53 267.97H372.633C372.349 267.97 372.113 267.734 372.113 267.451C372.113 267.168 372.349 266.932 372.633 266.932H382.53C382.813 266.932 383.049 267.168 383.049 267.451C383.049 267.734 382.813 267.97 382.53 267.97Z" fill="#EAC8A9"/>
<path d="M367.956 329.984H358.083C357.799 329.984 357.563 329.748 357.563 329.465C357.563 329.181 357.799 328.946 358.083 328.946H367.98C368.263 328.946 368.499 329.181 368.499 329.465C368.499 329.748 368.263 329.984 367.956 329.984Z" fill="#EAC8A9"/>
<path d="M330.518 305.938H322.889C322.629 305.938 322.416 305.726 322.416 305.466V305.348C322.416 305.089 322.629 304.876 322.889 304.876H330.518C330.778 304.876 330.99 305.089 330.99 305.348V305.466C330.99 305.749 330.778 305.938 330.518 305.938Z" fill="#EAC8A9"/>
<path d="M333.707 307.59C333.659 307.59 333.636 307.566 333.612 307.543L332.951 306.528C332.904 306.481 332.927 306.387 332.998 306.363C333.045 306.316 333.14 306.339 333.163 306.41L333.825 307.425C333.872 307.472 333.848 307.566 333.777 307.59C333.754 307.59 333.73 307.59 333.707 307.59ZM332.384 305.561C332.337 305.561 332.313 305.537 332.289 305.513L331.628 304.499C331.581 304.452 331.604 304.357 331.675 304.334C331.722 304.286 331.817 304.31 331.841 304.381L332.502 305.395C332.549 305.443 332.526 305.537 332.455 305.561C332.431 305.561 332.407 305.561 332.384 305.561ZM331.085 303.555C331.038 303.555 331.014 303.531 330.99 303.508H329.904C329.833 303.508 329.786 303.461 329.786 303.39C329.786 303.319 329.833 303.272 329.904 303.272H331.061C331.108 303.272 331.132 303.295 331.156 303.319L331.179 303.366C331.226 303.413 331.203 303.508 331.132 303.531C331.132 303.531 331.108 303.555 331.085 303.555ZM328.699 303.508H327.495C327.424 303.508 327.376 303.461 327.376 303.39C327.376 303.319 327.424 303.272 327.495 303.272H328.699C328.77 303.272 328.817 303.319 328.817 303.39C328.817 303.461 328.77 303.508 328.699 303.508ZM326.29 303.508H325.085C325.014 303.508 324.967 303.461 324.967 303.39C324.967 303.319 325.014 303.272 325.085 303.272H326.29C326.361 303.272 326.408 303.319 326.408 303.39C326.408 303.461 326.337 303.508 326.29 303.508Z" fill="#EAC8A9"/>
</g>
<defs>
<clipPath id="clip0_27_202">
<rect width="615" height="397" fill="white"/>
</clipPath>
</defs>
</svg>
