<svg width="477" height="395" viewBox="0 0 477 395" fill="none" xmlns="http://www.w3.org/2000/svg">
<g clip-path="url(#clip0_9_684)">
<path d="M387.349 368.653C489.262 274.931 354.785 170.55 373.881 98.5489C393.58 24.5367 319.407 -16.0896 216.489 27.9557C116.386 70.7943 61.7105 147.421 48.6448 200.718C27.1365 288.809 107.139 391.983 179.302 367.447C244.43 345.323 320.211 430.397 387.349 368.653Z" fill="#E9F5FE"/>
<path d="M330.061 395C307.748 395 285.235 387.559 263.124 380.318C232.168 370.262 203.021 360.608 175.282 370.061C146.939 379.715 114.979 370.866 87.641 345.524C47.0367 308.317 27.3376 247.378 39.5992 197.098C53.8711 139.175 112.968 61.3416 212.871 18.5031C272.169 -6.63696 327.649 -6.23472 358.001 19.9109C377.7 37.0061 384.133 62.7495 376.293 92.5153C369.057 120.069 383.932 152.449 399.611 187.042C425.943 244.763 455.894 310.328 389.962 371.067C370.464 388.966 350.363 395 330.061 395ZM199.604 364.229C220.71 364.229 242.42 371.469 263.727 378.307C305.336 391.983 348.554 406.062 388.354 369.458L388.957 370.262L388.354 369.458C453.281 309.725 423.732 244.964 397.601 187.846C381.721 153.052 366.645 120.27 374.283 92.113C381.922 63.1517 375.69 38.0117 356.594 21.5199C327.046 -4.0224 272.169 -4.42464 213.675 20.7154C114.174 63.1517 55.4791 140.181 41.4084 197.701C29.3477 247.177 48.8458 307.513 88.847 344.117C115.783 368.854 146.939 377.503 174.478 368.05C182.719 365.435 191.162 364.229 199.604 364.229Z" fill="#D2E5F5"/>
<path d="M145.934 105.99C72.5651 89.4984 59.9014 209.165 112.566 269.501C161.01 325.01 261.315 307.714 283.024 301.881C351.77 283.177 376.695 207.757 317.196 189.254C269.355 174.371 235.585 187.243 218.097 176.583C181.513 153.857 176.488 113.029 145.934 105.99Z" fill="url(#paint0_linear_9_684)"/>
<path d="M377.901 163.511H378.102C378.504 163.309 413.48 147.421 432.978 126.303C452.477 105.186 463.331 83.0625 463.532 82.8614C463.733 82.6603 463.532 82.2581 463.331 82.0569C463.13 81.8558 462.728 82.0569 462.527 82.2581C462.326 82.4592 451.472 104.381 432.174 125.298C412.877 146.214 378.102 162.103 377.7 162.304C377.499 162.505 377.298 162.706 377.499 163.108C377.499 163.309 377.7 163.511 377.901 163.511Z" fill="#B8A7F3"/>
<path d="M398.204 152.248C398.204 152.248 429.561 140.583 427.551 150.036C425.742 159.689 398.204 152.248 398.204 152.248Z" fill="#B8A7F3"/>
<path d="M398.405 151.041C398.405 151.041 411.068 125.7 403.832 124.493C396.796 123.488 398.405 151.041 398.405 151.041Z" fill="#B8A7F3"/>
<path d="M423.531 135.153C423.531 135.153 451.271 143.399 451.874 133.343C452.477 123.287 423.531 135.153 423.531 135.153Z" fill="#B8A7F3"/>
<path d="M423.933 133.745C423.933 133.745 435.592 105.186 426.747 107.197C417.903 109.409 423.933 133.745 423.933 133.745Z" fill="#B8A7F3"/>
<path d="M443.632 113.834C443.632 113.834 473.181 120.069 471.975 111.018C470.769 101.968 443.632 113.834 443.632 113.834Z" fill="#B8A7F3"/>
<path d="M443.029 113.633C443.029 113.633 450.064 90.5041 442.828 91.7108C435.793 93.1186 443.029 113.633 443.029 113.633Z" fill="#B8A7F3"/>
<path d="M456.698 94.3253C456.698 94.3253 476.598 91.5096 473.784 87.085C470.97 82.6603 456.698 94.3253 456.698 94.3253Z" fill="#B8A7F3"/>
<path d="M456.095 94.3253C456.095 94.3253 461.12 75.42 456.296 76.6267C451.673 77.8334 456.095 94.3253 456.095 94.3253Z" fill="#B8A7F3"/>
<path d="M461.723 84.6715C461.723 84.6715 483.231 60.5371 475.191 58.9282C466.949 57.3192 461.723 84.6715 461.723 84.6715Z" fill="#B8A7F3"/>
<path d="M299.105 341.904C299.105 348.541 293.678 354.173 286.843 354.173C280.21 354.173 274.582 348.742 274.582 341.904C274.582 335.267 280.009 329.636 286.843 329.636C293.678 329.636 299.105 335.267 299.105 341.904Z" fill="#C8E5F9"/>
<path d="M40.4033 167.533C40.4033 171.354 37.1871 174.572 33.3679 174.572C29.5487 174.572 26.3325 171.354 26.3325 167.533C26.3325 163.712 29.5487 160.494 33.3679 160.494C37.1871 160.494 40.4033 163.712 40.4033 167.533Z" fill="#DAECF9"/>
<path d="M107.742 46.861C107.742 49.8778 105.33 52.0901 102.516 52.0901C99.5006 52.0901 97.2895 49.6766 97.2895 46.861C97.2895 43.8442 99.7017 41.6318 102.516 41.6318C105.33 41.4307 107.742 43.8442 107.742 46.861Z" fill="#DAECF9"/>
<path d="M38.7952 274.73C38.7952 277.747 36.3831 279.959 33.5689 279.959C30.5537 279.959 28.3426 277.546 28.3426 274.73C28.3426 271.713 30.7547 269.501 33.5689 269.501C36.3831 269.501 38.7952 271.914 38.7952 274.73Z" fill="#DAECF9"/>
<path d="M6.23135 230.685C2.81416 230.685 0 227.869 0 224.45C0 221.031 2.81416 218.215 6.23135 218.215C9.64855 218.215 12.4627 221.031 12.4627 224.45C12.4627 226.059 11.8597 227.668 10.6536 228.875C9.64855 229.88 8.04046 230.685 6.23135 230.685ZM6.23135 220.025C5.02528 220.025 4.02023 220.428 3.21618 221.232C2.41214 222.037 2.01011 223.042 2.01011 224.249C2.01011 226.662 4.02023 228.472 6.23135 228.472C7.43742 228.472 8.44248 228.07 9.24652 227.266C10.0506 226.461 10.4526 225.456 10.4526 224.249C10.6536 221.835 8.64349 220.025 6.23135 220.025Z" fill="#D3E6F6"/>
<path d="M148.949 351.96C148.949 354.977 146.537 357.189 143.723 357.189C140.708 357.189 138.497 354.776 138.497 351.96C138.497 348.943 140.909 346.731 143.723 346.731C146.537 346.731 148.949 349.145 148.949 351.96Z" fill="white"/>
<path d="M212.67 65.1629C210.861 63.1517 208.248 61.9449 205.434 61.9449C200.006 61.9449 195.584 66.3696 195.584 71.7998C195.584 75.42 197.594 78.839 200.609 80.448C202.016 81.2525 203.625 81.6547 205.233 81.6547C207.846 81.6547 210.459 80.6491 212.067 78.839C213.876 77.029 214.881 74.6155 214.881 72.001C215.283 69.1853 214.278 66.973 212.67 65.1629ZM211.263 77.4312C209.856 78.839 207.846 79.8446 205.434 79.8446C203.222 79.8446 201.212 79.0402 199.805 77.4312C198.398 76.0234 197.393 73.811 197.393 71.5987C197.393 67.1741 201.011 63.3528 205.635 63.3528C208.047 63.3528 210.258 64.3584 211.866 66.1685C213.072 67.5763 213.876 69.3864 213.876 71.3976C213.675 74.0122 212.67 76.0234 211.263 77.4312Z" fill="white"/>
<path d="M453.683 153.857C451.874 152.248 449.662 151.242 447.25 151.242C444.838 151.242 442.426 152.248 440.818 153.857C439.21 155.667 438.205 157.879 438.205 160.293C438.205 162.706 439.21 164.918 440.818 166.729C442.627 168.539 444.838 169.343 447.25 169.343C449.662 169.343 451.874 168.338 453.683 166.729C455.492 165.12 456.296 162.706 456.296 160.293C456.296 157.879 455.291 155.667 453.683 153.857ZM452.276 165.321C451.07 166.527 449.26 167.332 447.25 167.332C445.441 167.332 443.632 166.527 442.225 165.321C440.818 163.913 440.215 162.103 440.215 160.293C440.215 158.483 441.019 156.673 442.225 155.265C443.632 153.857 445.441 153.254 447.25 153.254C451.07 153.254 454.286 156.471 454.286 160.293C454.286 162.304 453.482 164.114 452.276 165.321Z" fill="#9FC6F1"/>
<path d="M60.7054 118.058C60.7054 104.784 71.56 94.1243 84.8268 94.1243C98.0935 94.1243 108.948 104.784 108.948 118.058C108.948 131.332 98.0935 141.991 84.8268 141.991C71.56 141.991 60.7054 131.332 60.7054 118.058Z" fill="white"/>
<path d="M84.8268 142.594C71.359 142.594 60.3034 131.533 60.3034 118.058C60.3034 104.582 71.359 93.5209 84.8268 93.5209C98.2946 93.5209 109.35 104.582 109.35 118.058C109.35 131.533 98.2946 142.594 84.8268 142.594ZM84.8268 94.5265C71.7611 94.5265 61.3085 104.985 61.3085 118.058C61.3085 130.929 71.9621 141.589 84.8268 141.589C97.6915 141.589 108.345 131.13 108.345 118.058C108.345 105.186 97.6915 94.5265 84.8268 94.5265Z" fill="#0041EF"/>
<path d="M116.989 62.1461C116.989 48.8721 127.843 38.2128 141.11 38.2128C154.377 38.2128 165.231 48.8721 165.231 62.1461C165.231 75.42 154.377 86.0794 141.11 86.0794C127.642 86.0794 116.989 75.42 116.989 62.1461Z" fill="white"/>
<path d="M140.909 86.6827C127.441 86.6827 116.386 75.6211 116.386 62.146C116.386 48.671 127.441 37.6094 140.909 37.6094C154.377 37.6094 165.432 48.671 165.432 62.146C165.633 75.6211 154.578 86.6827 140.909 86.6827ZM140.909 38.615C127.843 38.615 117.391 49.0732 117.391 62.146C117.391 75.0177 128.044 85.6771 140.909 85.6771C153.975 85.6771 164.427 75.2188 164.427 62.146C164.628 49.2743 153.975 38.615 140.909 38.615Z" fill="#0041EF"/>
<path d="M230.761 42.6375H428.958C431.169 42.6375 432.979 44.4475 432.979 46.6599V281.166C432.979 283.378 431.169 285.188 428.958 285.188H230.761C228.55 285.188 226.741 283.378 226.741 281.166V46.6599C226.741 44.4475 228.55 42.6375 230.761 42.6375Z" fill="white"/>
<path d="M428.958 285.792H230.761C228.349 285.792 226.339 283.781 226.339 281.367V46.6599C226.339 44.2464 228.349 42.2352 230.761 42.2352H428.958C431.37 42.2352 433.381 44.2464 433.381 46.6599V281.166C433.381 283.781 431.37 285.792 428.958 285.792ZM230.761 43.2408C228.751 43.2408 227.143 44.8498 227.143 46.861V281.367C227.143 283.378 228.751 284.987 230.761 284.987H428.958C430.968 284.987 432.576 283.378 432.576 281.367V46.6599C432.576 44.6487 430.968 43.0397 428.958 43.0397H230.761V43.2408Z" fill="#0041EF"/>
<path d="M431.772 59.1293L226.339 58.727C226.138 58.727 225.937 58.5259 225.937 58.1237C225.937 57.9226 226.138 57.7214 226.339 57.7214L431.772 58.1237C431.973 58.1237 432.174 58.3248 432.174 58.727C432.375 58.9282 432.174 59.1293 431.772 59.1293Z" fill="#0041EF"/>
<path d="M241.415 94.1243H288.049V147.22H241.415V94.1243Z" fill="#E8F2F9"/>
<path d="M299.306 94.7275H345.941V147.823H299.306V94.7275Z" fill="#E8F2F9"/>
<path d="M358.403 95.9343H405.038V149.03H358.403V95.9343Z" fill="#E8F2F9"/>
<path d="M241.616 169.343H307.547V258.842H241.817V169.343H241.616Z" fill="#E8F2F9"/>
<path d="M291.668 64.5596H408.656C410.867 64.5596 412.676 66.3697 412.676 68.582V70.5932C412.676 72.8055 410.867 74.6156 408.656 74.6156H291.668C289.456 74.6156 287.647 72.8055 287.647 70.5932V68.582C287.647 66.3697 289.456 64.5596 291.668 64.5596Z" fill="#B0DAF9"/>
<path d="M229.957 80.0458H428.154V90.504H229.957V80.0458Z" fill="#E8F2F9"/>
<path d="M243.626 55.1069C241.214 55.1069 239.204 53.0957 239.204 50.6822C239.204 48.2688 241.214 46.2576 243.626 46.2576C246.038 46.2576 248.048 48.2688 248.048 50.6822C248.048 53.2968 246.038 55.1069 243.626 55.1069ZM243.626 47.4643C241.817 47.4643 240.209 48.8721 240.209 50.8833C240.209 52.6934 241.817 54.3024 243.626 54.3024C245.435 54.3024 247.043 52.8945 247.043 50.8833C247.043 48.8721 245.435 47.4643 243.626 47.4643Z" fill="#0041EF"/>
<path d="M253.274 50.6822C253.274 48.4699 255.083 46.861 257.094 46.861C259.305 46.861 260.913 48.671 260.913 50.6822C260.913 52.8946 259.104 54.5035 257.094 54.5035C254.882 54.5035 253.274 52.6935 253.274 50.6822Z" fill="#1060F5"/>
<path d="M270.561 55.1069C268.149 55.1069 266.139 53.0957 266.139 50.6822C266.139 48.2688 268.149 46.2576 270.561 46.2576C272.973 46.2576 274.984 48.2688 274.984 50.6822C274.984 53.2968 272.973 55.1069 270.561 55.1069ZM270.561 47.4643C268.752 47.4643 267.144 48.8721 267.144 50.8833C267.144 52.6934 268.752 54.3024 270.561 54.3024C272.37 54.3024 273.978 52.8945 273.978 50.8833C273.978 48.8721 272.37 47.4643 270.561 47.4643Z" fill="#0041EF"/>
<path d="M241.616 151.846H290.863V154.661H241.616V151.846Z" fill="#B0DAF9"/>
<path d="M298.301 151.846H347.549V154.863H298.301V151.846Z" fill="#B0DAF9"/>
<path d="M358.805 151.443H408.053V154.259H358.805V151.443Z" fill="#B0DAF9"/>
<path d="M241.817 157.477H291.064V160.293H241.817V157.477Z" fill="#B0DAF9"/>
<path d="M298.502 157.477H347.75V160.293H298.502V157.477Z" fill="#B0DAF9"/>
<path d="M359.207 157.075L385.54 156.874V159.689L359.207 159.89V157.075Z" fill="#B0DAF9"/>
<path d="M241.415 163.712H272.973V166.527H241.415V163.712Z" fill="#B0DAF9"/>
<path d="M322.623 177.991H395.992V188.852H322.623V177.991Z" fill="#B0DAF9"/>
<path d="M382.927 188.248C382.726 188.248 382.525 188.047 382.525 187.846V178.997C382.525 178.796 382.726 178.595 382.927 178.595C383.128 178.595 383.329 178.796 383.329 178.997V187.846C383.53 188.047 383.329 188.248 382.927 188.248Z" fill="#0041EF"/>
<path d="M387.148 181.008L392.575 180.807L390.163 184.628L387.148 181.008Z" fill="white"/>
<path d="M390.163 185.232C389.962 185.232 389.962 185.232 389.761 185.031L386.746 181.41C386.545 181.209 386.545 181.008 386.746 180.807C386.746 180.606 386.947 180.606 387.148 180.606L392.575 180.405C392.776 180.405 392.977 180.405 392.977 180.606C392.977 180.807 392.977 181.008 392.977 181.209L390.565 185.031C390.565 185.031 390.364 185.232 390.163 185.232ZM388.153 181.41L389.962 183.824L391.57 181.41H388.153Z" fill="#0041EF"/>
<path d="M258.099 104.985C258.099 104.985 260.511 107.197 263.727 107.599C266.943 107.8 268.752 104.784 268.752 104.784C268.752 104.784 271.968 105.387 273.979 106.996C275.989 108.605 281.215 115.443 281.215 115.443L276.391 120.672L271.365 117.454L273.174 135.354H255.083L255.485 117.454L252.671 121.074L246.038 118.259C246.038 118.259 249.455 110.616 251.264 108.806C253.073 106.795 258.099 104.985 258.099 104.985Z" fill="#2356F1"/>
<path d="M311.97 103.778H329.056L337.699 136.762L304.934 136.561L311.97 103.778Z" fill="#2356F1"/>
<path d="M308.753 134.549C308.351 134.549 308.15 134.147 308.351 133.946L313.578 105.387C313.578 105.186 313.98 104.985 314.181 104.985C314.382 104.985 314.583 105.387 314.583 105.588L309.356 134.147C309.155 134.348 308.954 134.549 308.753 134.549Z" fill="#B0DAF9"/>
<path d="M313.578 134.75C313.176 134.75 312.975 134.549 313.176 134.147L315.99 105.99C315.99 105.789 316.191 105.588 316.593 105.588C316.794 105.588 316.995 105.789 316.995 106.191L314.181 134.348C314.181 134.75 313.98 134.75 313.578 134.75Z" fill="#B0DAF9"/>
<path d="M319.206 134.348C319.005 134.348 318.603 134.147 318.804 133.745L319.005 105.99C319.005 105.789 319.206 105.387 319.608 105.588C319.809 105.588 320.01 105.789 320.01 106.191L319.809 133.946C319.809 134.147 319.608 134.348 319.206 134.348Z" fill="#B0DAF9"/>
<path d="M324.633 133.544C324.432 133.544 324.231 133.343 324.231 133.141L323.025 105.387C323.025 105.186 323.226 104.784 323.427 104.784C323.628 104.784 324.03 104.985 324.03 105.186L325.236 132.94C325.236 133.343 325.035 133.544 324.633 133.544Z" fill="#B0DAF9"/>
<path d="M329.86 134.348C329.659 134.348 329.458 134.147 329.458 133.946L325.437 106.191C325.437 105.99 325.638 105.588 325.839 105.588C326.04 105.588 326.442 105.789 326.442 105.99L330.463 133.745C330.262 133.946 330.061 134.348 329.86 134.348Z" fill="#B0DAF9"/>
<path d="M333.88 133.544C333.679 133.544 333.478 133.343 333.478 133.142L327.448 105.588C327.448 105.387 327.649 104.985 327.85 104.985C328.051 104.985 328.453 105.186 328.453 105.387L334.483 132.94C334.282 133.142 334.081 133.544 333.88 133.544Z" fill="#B0DAF9"/>
<path d="M312.171 100.962H328.654V103.577H312.171V100.962Z" fill="#2356F1"/>
<path d="M321.015 100.359C321.618 100.359 322.221 100.962 322.221 101.566V102.973C322.221 103.577 321.618 104.18 321.015 104.18C320.412 104.18 319.809 103.577 319.809 102.973V101.566C319.809 100.962 320.211 100.359 321.015 100.359Z" fill="#0100BC"/>
<path d="M386.746 104.784L399.611 104.381C399.611 104.381 397.399 109.61 398.405 112.426C399.41 115.041 399.41 120.27 399.008 121.879C398.606 123.287 388.957 123.086 385.54 123.086C382.123 123.086 378.102 124.493 372.474 124.694C367.047 124.896 363.228 123.89 363.228 123.89C363.228 123.89 362.826 122.08 364.836 121.275C366.846 120.471 372.876 119.465 375.489 117.655C378.102 115.845 382.726 113.633 383.731 111.823C384.736 110.214 386.746 104.784 386.746 104.784Z" fill="#2356F1"/>
<path d="M363.228 123.689C363.228 123.689 362.022 128.315 363.027 130.125C364.032 131.734 368.253 132.136 371.67 131.935C375.087 131.935 380.112 131.331 383.329 130.929C386.545 130.527 393.982 131.13 395.791 130.728C397.6 130.326 399.209 129.119 399.41 127.108C399.611 125.097 400.415 122.683 399.008 122.08C397.6 121.477 393.982 122.482 389.158 122.482C385.54 122.482 380.515 123.689 375.087 124.091C369.66 124.493 363.228 123.689 363.228 123.689Z" fill="white"/>
<path d="M384.937 117.052C384.736 117.052 384.535 117.052 384.535 116.851L382.123 113.432C381.922 113.231 381.922 112.828 382.324 112.828C382.525 112.627 382.927 112.627 382.927 113.03L385.339 116.449C385.54 116.65 385.54 117.052 385.138 117.052H384.937Z" fill="#E8F2F9"/>
<path d="M382.123 118.862C381.922 118.862 381.721 118.862 381.721 118.661L379.308 114.638C379.107 114.437 379.308 114.035 379.509 114.035C379.71 113.834 380.113 114.035 380.113 114.236L382.525 118.259C382.726 118.46 382.525 118.862 382.324 118.862C382.324 118.862 382.324 118.862 382.123 118.862Z" fill="#E8F2F9"/>
<path d="M379.308 120.873C379.107 120.873 378.906 120.873 378.906 120.672L376.695 116.65C376.494 116.449 376.695 116.046 376.896 116.046C377.097 115.845 377.499 116.046 377.499 116.247L379.71 120.27C379.911 120.471 379.71 120.873 379.509 120.873C379.509 120.873 379.509 120.873 379.308 120.873Z" fill="#E8F2F9"/>
<path d="M375.891 121.879C375.69 121.879 375.489 121.678 375.489 121.477L374.082 118.058C373.881 117.856 374.082 117.454 374.283 117.454C374.484 117.253 374.886 117.454 374.886 117.655L376.293 121.074C376.494 121.477 376.293 121.678 375.891 121.879C376.092 121.879 375.891 121.879 375.891 121.879Z" fill="#E8F2F9"/>
<path d="M389.158 122.884C388.957 122.884 388.756 122.683 388.957 122.482C388.957 122.281 390.163 118.058 392.776 116.449C395.389 114.84 398.807 114.84 398.807 114.84C399.008 114.84 399.008 115.041 399.008 115.242C399.008 115.443 398.807 115.644 398.606 115.443C398.606 115.443 395.188 115.443 392.776 116.851C390.364 118.46 389.359 122.482 389.359 122.482C389.359 122.683 389.158 122.884 389.158 122.884Z" fill="#E8F2F9"/>
<path d="M372.474 124.493C372.273 124.493 372.273 124.493 372.273 124.292L370.464 120.069C370.464 119.868 370.464 119.667 370.665 119.667C370.866 119.667 371.067 119.667 371.067 119.868L372.876 124.091C372.876 124.292 372.876 124.493 372.474 124.493C372.675 124.493 372.675 124.493 372.474 124.493Z" fill="#E8F2F9"/>
<path d="M385.741 107.599C385.54 107.599 385.54 107.398 385.54 107.398C385.54 107.197 385.741 106.996 385.741 106.996L398.807 106.594C399.008 106.594 399.008 106.795 399.008 106.795C399.008 106.996 398.807 107.197 398.807 107.197L385.741 107.599Z" fill="#E8F2F9"/>
<path d="M270.561 174.371L276.994 184.628L283.426 174.17C283.426 174.17 290.863 175.98 292.472 177.79C293.075 178.394 295.889 178.997 295.286 181.008C294.08 184.829 288.049 190.662 288.049 190.662L284.23 202.528L292.472 242.752L261.717 243.556L268.35 202.327L263.928 189.857C263.928 189.857 258.3 185.031 257.295 181.41C256.893 180.003 260.109 178.595 260.31 177.79C261.516 175.578 270.561 174.371 270.561 174.371Z" fill="#2356F1"/>
<path d="M268.35 201.522H284.632V204.137H268.35V201.522Z" fill="#0100BC"/>
<path d="M276.793 200.718C277.597 200.718 277.999 201.321 277.999 201.925V203.735C277.999 204.539 277.396 204.941 276.793 204.941C276.19 204.941 275.587 204.338 275.587 203.735V201.925C275.386 201.321 275.989 200.718 276.793 200.718Z" fill="#0D2A8A"/>
<path d="M276.793 205.344C275.989 205.344 275.386 204.74 275.386 203.936V202.126C275.386 201.321 275.989 200.718 276.793 200.718C277.597 200.718 278.2 201.321 278.2 202.126V203.936C278.2 204.539 277.597 205.344 276.793 205.344ZM276.793 200.919C276.19 200.919 275.788 201.321 275.788 201.925V203.735C275.788 204.338 276.19 204.74 276.793 204.74C277.396 204.74 277.798 204.338 277.798 203.735V201.925C277.798 201.522 277.396 200.919 276.793 200.919Z" fill="#E8F2F9"/>
<path d="M343.528 197.5H442.225C444.436 197.5 446.245 199.31 446.245 201.522V251.199C446.245 253.411 444.436 255.221 442.225 255.221H343.528C341.317 255.221 339.508 253.411 339.508 251.199V201.522C339.508 199.31 341.317 197.5 343.528 197.5Z" fill="white"/>
<path d="M442.225 255.624H343.528C341.116 255.624 339.106 253.612 339.106 251.199V201.522C339.106 199.109 341.116 197.098 343.528 197.098H442.225C444.637 197.098 446.647 199.109 446.647 201.522V251.199C446.647 253.612 444.637 255.624 442.225 255.624ZM343.528 197.902C341.518 197.902 339.91 199.511 339.91 201.522V251.199C339.91 253.21 341.518 254.819 343.528 254.819H442.225C444.235 254.819 445.843 253.21 445.843 251.199V201.522C445.843 199.511 444.235 197.902 442.225 197.902H343.528Z" fill="#0041EF"/>
<path d="M408.254 220.629C408.254 220.428 407.852 216.204 410.465 213.187C411.872 211.578 413.882 210.573 416.496 210.372C418.908 210.171 421.119 210.975 422.526 212.383C425.34 215.199 425.139 219.824 425.139 220.025H423.129C423.129 220.025 423.33 216.003 421.119 213.992C420.114 212.986 418.506 212.383 416.697 212.584C414.686 212.785 413.078 213.388 412.073 214.595C410.063 217.009 410.465 220.629 410.465 220.629H408.254Z" fill="#2356F1"/>
<path d="M404.033 241.746C402.425 241.746 401.018 240.339 401.018 238.73L403.631 222.841C403.631 221.433 405.038 220.025 406.646 220.025H428.154C429.762 220.025 431.169 221.433 431.169 223.042L433.582 238.327C433.582 240.137 432.174 241.545 430.566 241.545L404.033 241.746ZM406.646 222.037C406.043 222.037 405.641 222.439 405.641 223.042L403.028 238.931C403.028 239.333 403.43 239.735 404.033 239.735L430.566 239.534C431.169 239.534 431.571 239.132 431.571 238.528L429.159 223.243C429.159 222.439 428.757 222.037 428.154 222.037H406.646Z" fill="#2356F1"/>
<path d="M414.284 238.528L410.465 229.478L412.274 228.674L414.887 234.506L423.732 223.847L425.34 225.053L414.284 238.528Z" fill="#2356F1"/>
<path d="M357.197 219.422H388.354C391.57 219.422 394.183 222.037 394.183 225.255C394.183 228.473 391.57 231.087 388.354 231.087H357.197C353.981 231.087 351.368 228.473 351.368 225.255C351.368 222.037 353.981 219.422 357.197 219.422Z" fill="#2356F1"/>
<path d="M102.315 127.108L67.1378 126.706C66.9368 126.706 66.7358 126.505 66.7358 126.303C66.7358 126.102 66.7358 125.901 66.9368 125.7C74.7762 121.074 87.4399 113.03 88.043 110.817C88.244 109.812 88.043 108.806 87.44 107.8C86.8369 106.996 86.0329 106.594 85.0278 106.795C83.0177 106.795 82.2137 109.409 82.2137 109.409C82.2137 109.61 81.8116 109.812 81.6106 109.812C81.4096 109.812 81.2086 109.409 81.2086 109.208C81.2086 109.007 82.4147 105.99 85.0278 105.789C86.2339 105.789 87.44 106.191 88.244 107.197C89.048 108.203 89.4501 109.61 89.048 111.018C88.847 111.823 87.2389 113.231 85.2288 114.84L102.717 125.7C102.918 125.901 102.918 126.102 102.918 126.303C102.717 126.907 102.516 127.108 102.315 127.108ZM68.9469 125.901H100.506L84.2238 115.644C79.6005 119.465 72.3641 123.89 68.9469 125.901Z" fill="#0041EF"/>
<path d="M152.769 75.0178H129.652C127.642 75.0178 125.833 73.4089 125.833 71.1965V56.5148C125.833 54.5036 127.441 52.6935 129.652 52.6935H152.769C154.779 52.6935 156.588 54.3024 156.588 56.5148V71.1965C156.588 73.4089 154.779 75.0178 152.769 75.0178ZM129.652 53.9002C128.044 53.9002 126.838 55.1069 126.838 56.7159V71.3977C126.838 73.0066 128.044 74.2133 129.652 74.2133H152.769C154.377 74.2133 155.583 73.0066 155.583 71.3977V56.7159C155.583 55.1069 154.377 53.9002 152.769 53.9002H129.652Z" fill="#0041EF"/>
<path d="M126.436 58.1237C126.235 58.1237 126.034 57.9226 126.034 57.7215C126.034 57.5204 126.235 57.1181 126.436 57.1181L155.583 56.917C155.784 56.917 155.985 57.1181 156.186 57.3192C156.186 57.5204 155.985 57.9226 155.784 57.9226L126.436 58.1237Z" fill="#0041EF"/>
<path d="M126.637 70.7944C126.436 70.7944 126.235 70.5932 126.235 70.3921C126.235 70.191 126.436 69.7888 126.637 69.7888L155.784 69.5876C155.985 69.5876 156.186 69.7888 156.387 69.9899C156.387 70.191 156.186 70.5932 155.985 70.5932L126.637 70.7944Z" fill="#0041EF"/>
<path d="M132.467 54.1013C132.064 54.1013 131.863 53.9002 132.064 53.498L132.467 48.2689C132.467 48.0677 132.467 48.0677 132.668 47.8666C132.869 47.8666 132.869 47.6655 133.07 47.8666L153.573 52.6935C153.774 52.6935 153.975 53.0957 153.975 53.2969C153.975 53.498 153.573 53.6991 153.372 53.6991L133.472 49.0733L133.271 53.6991C133.07 53.9002 132.869 54.1013 132.467 54.1013Z" fill="#0041EF"/>
<path d="M152.97 53.0957H152.769L137.894 45.8554L137.693 49.0733C137.693 49.2744 137.492 49.6767 137.09 49.4756C136.889 49.4756 136.688 49.2744 136.688 48.8722L136.889 45.0509C136.889 44.8498 136.889 44.6487 137.09 44.6487C137.291 44.6487 137.492 44.6487 137.492 44.6487L152.97 52.0901C153.171 52.2913 153.372 52.4924 153.171 52.6935C153.372 53.0957 153.171 53.0957 152.97 53.0957Z" fill="#0041EF"/>
<path d="M167.241 112.627C167.241 99.3533 178.096 88.694 191.363 88.694C204.63 88.694 215.484 99.3533 215.484 112.627C215.484 125.901 204.63 136.762 191.363 136.762C178.096 136.762 167.241 125.901 167.241 112.627Z" fill="white"/>
<path d="M191.363 137.164C177.694 137.164 166.839 126.102 166.839 112.627C166.839 99.1522 177.895 88.0906 191.363 88.0906C204.831 88.0906 215.886 99.1522 215.886 112.627C215.886 126.102 204.831 137.164 191.363 137.164ZM191.363 89.0962C178.297 89.0962 167.845 99.5544 167.845 112.627C167.845 125.7 178.498 136.158 191.363 136.158C204.429 136.158 214.881 125.7 214.881 112.627C214.881 99.5544 204.228 89.0962 191.363 89.0962Z" fill="#0041EF"/>
<path d="M191.363 126.505C191.162 126.505 190.961 126.505 190.961 126.303C190.559 125.901 182.317 114.437 182.317 109.409C182.317 104.18 186.338 99.9567 191.363 99.9567C196.388 99.9567 200.408 104.18 200.408 109.409C200.408 114.437 192.167 125.901 191.966 126.303C191.765 126.505 191.564 126.505 191.363 126.505ZM191.363 100.962C186.941 100.962 183.322 104.784 183.322 109.409C183.322 113.432 189.755 122.884 191.363 125.097C192.971 122.683 199.202 113.432 199.202 109.409C199.202 104.784 195.785 100.962 191.363 100.962Z" fill="#0041EF"/>
<path d="M191.363 114.035C188.348 114.035 185.936 111.622 185.936 108.806C185.936 105.789 188.348 103.577 191.363 103.577C194.378 103.577 196.79 105.99 196.79 108.806C196.79 111.622 194.378 114.035 191.363 114.035ZM191.363 104.381C188.951 104.381 186.941 106.393 186.941 108.605C186.941 111.018 188.951 112.828 191.363 112.828C193.775 112.828 195.785 110.817 195.785 108.605C195.785 106.393 193.775 104.381 191.363 104.381Z" fill="#0041EF"/>
<path d="M138.296 138.773C138.296 138.773 139.1 133.544 140.507 130.125C141.914 126.706 145.532 124.896 145.532 124.896C145.532 124.896 146.738 128.918 149.15 130.728C151.563 132.538 154.98 135.957 154.98 136.36C154.578 137.968 151.764 148.628 145.331 151.444C145.532 151.242 145.934 155.667 145.733 155.868C147.542 157.075 153.171 157.075 153.171 157.075C153.171 157.075 161.814 158.282 164.025 160.092C166.035 161.902 168.448 149.03 168.448 144.807C168.448 135.957 166.236 131.734 162.015 126.706C158.196 122.08 154.779 122.281 152.166 119.868C148.547 116.65 147.341 112.828 139.301 113.834C134.075 114.437 129.049 120.27 126.436 128.114C121.612 142.192 115.984 139.779 112.767 148.226C109.752 156.673 110.757 162.907 110.757 162.907L135.482 152.65L136.085 143.198C136.085 143.198 131.662 138.371 133.874 134.952C134.477 133.946 138.296 138.773 138.296 138.773Z" fill="#101D94"/>
<path d="M108.546 165.321V164.919C108.546 164.919 106.938 156.27 109.953 147.823C111.36 144.203 113.169 142.393 115.18 140.583C117.793 138.17 120.808 135.555 123.622 127.51C126.436 119.264 131.662 113.633 136.688 113.03C143.321 112.225 145.532 114.638 147.743 117.253C148.346 117.856 148.949 118.661 149.753 119.264C150.759 120.069 151.965 120.672 153.171 121.275C155.181 122.281 157.392 123.287 159.603 126.102C163.824 131.13 166.035 135.354 166.035 144.404C166.035 147.823 164.226 159.287 162.216 160.092C161.814 160.293 161.613 160.092 161.211 159.891C159.201 158.08 150.759 156.874 150.558 156.874C150.357 156.874 144.929 156.874 142.919 155.667L142.718 155.466L142.919 155.265C142.919 154.863 142.718 152.248 142.517 151.242L141.914 151.443L142.517 150.438C148.547 147.823 151.563 137.968 151.965 135.756C152.166 134.75 149.954 133.142 148.145 131.935C147.542 131.533 146.738 130.929 146.135 130.527C144.125 128.918 142.919 125.901 142.517 124.896C141.713 125.499 139.1 127.108 137.894 129.924C136.487 133.343 135.683 138.572 135.683 138.572L135.482 139.376L135.08 138.773C134.075 137.164 132.064 134.75 131.26 134.75C131.059 134.75 131.059 134.75 131.059 134.952C128.245 138.371 133.07 142.795 133.07 142.795L132.467 152.65L108.546 165.321ZM139.301 113.633C138.497 113.633 137.894 113.633 136.889 113.834C131.863 114.437 127.039 120.069 124.225 127.912C121.411 135.957 118.396 138.773 115.783 141.186C113.772 142.996 111.963 144.605 110.757 148.226C108.144 155.466 108.948 162.907 109.149 164.516L132.668 152.248L133.271 142.996C132.467 142.393 128.446 137.968 131.26 134.348C131.461 134.147 131.662 133.946 132.064 133.946C133.271 133.946 135.08 136.359 136.085 137.566C136.286 135.957 137.09 132.136 138.095 129.521C139.502 126.102 143.12 124.091 143.321 124.091L143.522 123.89L143.723 124.292C143.723 124.292 144.929 128.114 147.341 129.924C147.944 130.326 148.547 130.929 149.351 131.331C151.563 132.94 153.573 134.348 153.372 135.756C152.97 138.17 149.753 148.024 143.723 150.84C143.924 151.645 144.125 154.058 144.125 155.064C145.934 156.27 151.161 156.069 151.161 156.069C151.563 156.069 160.005 157.276 162.216 159.086C162.417 159.287 162.417 159.287 162.618 159.086C164.226 158.282 166.236 147.823 166.236 143.801C166.236 135.153 164.025 130.728 160.005 125.901C157.794 123.086 155.583 122.08 153.774 121.275C152.568 120.672 151.362 120.069 150.357 119.264C149.552 118.661 148.949 117.856 148.346 117.253C145.532 115.644 143.723 113.633 139.301 113.633Z" fill="#101D94"/>
<path d="M135.281 142.795V151.846L127.039 155.868L144.527 175.779L153.171 156.471L145.331 155.667L144.929 149.834L135.281 142.795Z" fill="#FF9583"/>
<path d="M137.693 137.566C136.085 135.354 131.461 131.13 133.07 138.773C134.075 143.801 144.125 153.052 146.738 151.242C154.779 145.812 155.382 136.561 154.578 135.153C153.372 133.343 151.764 132.136 149.351 130.125C147.743 128.918 145.331 124.091 145.331 124.091C145.331 124.091 139.904 127.309 139.301 131.734C138.899 135.957 138.095 138.169 137.693 137.566Z" fill="#FF9583"/>
<path d="M183.523 253.814C183.523 253.814 187.142 254.417 188.348 260.853C189.554 267.289 189.554 299.468 189.554 299.468L176.689 301.68L171.463 270.507L166.437 266.082L183.523 253.814Z" fill="#FF9583"/>
<path d="M188.147 253.612L206.037 250.395C206.037 250.395 207.645 252.205 209.655 257.032C211.464 261.858 214.68 292.228 214.68 292.228L203.424 295.244C203.424 295.244 193.574 268.898 192.569 264.272C191.363 259.646 188.147 253.612 188.147 253.612Z" fill="#FF9583"/>
<path d="M125.632 154.058L143.723 174.371L153.372 154.259C153.372 154.259 163.221 156.27 167.04 160.695C170.659 165.12 181.915 191.667 181.915 191.667L168.85 199.109L164.628 233.903C164.628 233.903 198.8 234.104 204.027 238.931C209.253 243.758 210.459 249.992 210.459 249.992C210.459 249.992 207.243 252.205 199.403 252.808C191.765 253.411 182.518 253.612 176.689 259.847C154.779 282.976 147.743 272.116 147.743 272.116C147.743 272.116 118.999 256.428 116.587 240.339C114.375 224.249 120.607 208.562 120.607 208.562L119.602 199.511L95.0784 195.086C95.0784 195.086 105.732 170.952 108.546 165.321C111.561 159.689 125.632 154.058 125.632 154.058Z" fill="#2356F1"/>
<path d="M98.8976 195.69C98.8976 195.69 96.0834 209.567 97.6915 214.394C100.506 222.841 148.346 238.529 148.346 238.529L157.191 238.73L159.402 230.484L140.708 226.059L114.576 207.556L116.788 198.506L98.8976 195.69Z" fill="#FF9583"/>
<path d="M179.704 192.673L181.915 199.511L168.649 199.712L179.704 192.673Z" fill="#FF9583"/>
<path d="M111.561 236.517H168.247V240.942L114.979 241.143L111.561 236.517Z" fill="white"/>
<path d="M169.051 200.517H212.469C214.68 200.517 216.489 202.327 216.489 204.539L207.645 236.919C207.645 236.919 205.836 240.942 203.625 240.942H160.206C160.206 240.942 156.186 239.132 156.186 236.919L165.03 204.539C165.03 202.327 166.839 200.517 169.051 200.517Z" fill="white"/>
<path d="M175.684 301.479L190.559 298.663C190.559 298.663 190.76 315.356 192.77 322.396C194.78 329.435 195.785 333.859 195.785 333.859L189.755 339.089L181.513 334.262C181.513 334.262 182.518 330.641 181.312 325.211C180.106 319.781 175.684 301.479 175.684 301.479Z" fill="#FFFEEE"/>
<path d="M202.016 295.445L215.283 291.423L219.705 318.172L223.525 322.597L219.705 329.636L212.871 329.033L209.454 327.021C208.047 319.379 202.016 295.445 202.016 295.445Z" fill="#FFFEEE"/>
<path d="M219.102 330.038C219.102 330.038 220.911 323.803 224.128 322.999C227.344 322.195 227.746 324.206 231.967 327.223C236.188 330.038 238.198 331.044 238.198 331.044C238.198 331.044 239.003 332.653 234.781 334.061C230.56 335.468 220.308 334.664 215.283 332.049C210.258 329.435 207.243 330.843 207.444 326.217C207.444 323.2 208.851 323.2 209.052 323.401C209.253 323.602 209.253 326.016 210.057 326.418C210.861 326.82 219.102 330.038 219.102 330.038Z" fill="#F85432"/>
<path d="M189.554 339.29C189.554 339.29 192.167 333.256 195.383 333.055C198.599 332.854 198.8 334.865 202.418 338.284C206.238 341.703 208.047 342.91 208.047 342.91C208.047 342.91 208.65 344.72 204.228 345.524C199.805 346.329 189.755 344.117 185.131 340.899C180.508 337.681 177.292 338.485 178.096 334.061C178.498 331.245 181.714 331.446 181.714 331.446C181.714 331.446 181.513 333.256 182.116 334.262C182.92 335.267 189.554 339.29 189.554 339.29Z" fill="#F85432"/>
<path d="M399.41 385.346L378.906 370.664C378.906 370.664 354.383 362.217 347.951 357.391C341.518 352.564 322.02 327.826 320.211 320.988C318.402 314.351 325.638 281.769 325.638 281.769C325.638 281.769 336.292 284.585 338.503 297.256C340.714 309.926 340.111 317.971 340.111 317.971L359.609 333.859C359.609 333.859 353.981 317.971 351.368 312.742C348.755 307.513 343.729 292.228 343.729 292.228L330.061 260.652L318.201 225.858C318.201 225.858 315.387 216.003 320.01 213.187C328.654 207.757 339.508 232.495 339.508 232.495L369.057 289.613C369.057 289.613 355.79 257.836 364.836 253.814C373.881 249.791 381.118 256.83 381.118 256.83C381.118 256.83 379.911 250.395 386.344 249.188C392.776 247.981 399.209 253.411 399.209 253.411C400.415 250.797 400.013 249.389 404.234 247.981C411.671 245.568 428.958 269.501 433.381 278.35C437.602 287.401 447.451 323.401 452.879 333.256C458.306 343.312 468.155 353.77 468.155 353.77L467.351 385.95L399.41 385.346Z" fill="#FEB3A2"/>
<path d="M119.401 199.913H119.2C118.999 199.712 118.798 199.511 118.999 199.31L126.436 185.031C126.637 184.829 126.838 184.628 127.039 184.829C127.24 185.031 127.441 185.232 127.24 185.433L119.803 199.712C119.803 199.712 119.602 199.913 119.401 199.913Z" fill="white"/>
<path d="M167.442 201.522C167.04 201.522 166.839 201.12 167.04 200.919C169.654 191.667 166.035 181.008 166.035 180.807C166.035 180.606 166.035 180.204 166.437 180.204C166.638 180.204 167.04 180.204 167.04 180.606C167.241 181.008 170.86 191.869 168.046 201.321C167.844 201.321 167.643 201.522 167.442 201.522Z" fill="white"/>
<path d="M158.196 198.908C157.995 198.908 157.794 198.908 157.794 198.707L143.12 174.773C142.919 174.572 143.12 174.17 143.321 174.17C143.522 173.969 143.924 174.17 143.924 174.371L158.598 198.304C158.799 198.506 158.598 198.908 158.397 198.908C158.397 198.908 158.397 198.908 158.196 198.908Z" fill="white"/>
<path d="M120.808 202.126C120.607 202.126 120.406 201.925 120.406 201.723C120.406 201.522 120.607 201.12 120.808 201.12L166.437 198.304C166.638 198.304 167.04 198.506 167.04 198.707C167.04 198.908 166.839 199.31 166.638 199.31L120.808 202.126Z" fill="white"/>
<path d="M144.929 152.047C141.914 151.846 137.09 146.617 136.688 146.013C136.487 145.812 136.487 145.41 136.688 145.209C136.889 145.008 137.291 145.008 137.492 145.209C138.899 146.818 142.919 150.84 145.13 150.84C145.331 150.84 145.532 151.041 145.532 151.443C145.532 151.846 145.331 152.047 144.929 152.047Z" fill="#09030F"/>
<path d="M108.747 209.567C108.546 209.567 108.546 209.567 108.345 209.366C108.144 209.165 108.144 208.964 108.345 208.562C110.556 205.947 113.571 206.55 113.772 206.751C113.973 206.751 114.174 207.154 114.174 207.355C114.174 207.556 113.772 207.757 113.571 207.757C113.37 207.757 111.159 207.154 109.149 209.366C108.948 209.366 108.948 209.567 108.747 209.567Z" fill="#09030F"/>
<path d="M130.657 232.093H130.456C129.25 231.69 103.119 220.025 99.9027 217.813C96.4855 215.4 96.8875 209.366 96.8875 209.165L99.0986 196.695C99.0986 196.494 99.0986 196.494 99.2996 196.293C99.5006 196.293 99.5006 196.092 99.7016 196.293L116.185 199.31C116.386 199.31 116.587 199.712 116.587 199.913C116.587 200.115 116.185 200.316 115.984 200.316L99.9027 197.098L97.8925 208.964C97.8925 208.964 97.4905 214.595 100.506 216.808C103.521 219.02 130.657 230.886 130.858 231.087C131.059 231.288 131.26 231.489 131.059 231.69C131.059 231.892 130.858 232.093 130.657 232.093Z" fill="#09030F"/>
<path d="M153.573 274.529H153.372L125.029 255.221C124.828 255.02 124.828 254.819 124.828 254.618C125.029 254.417 125.23 254.417 125.431 254.417L153.774 273.523C154.98 273.322 160.809 271.914 165.03 268.294C166.437 267.088 167.643 265.68 168.85 264.473C171.463 261.456 173.875 258.64 178.9 257.032C182.317 255.825 186.338 255.02 190.358 254.216C194.579 253.411 198.398 252.607 200.609 251.601C200.81 251.4 201.212 251.601 201.212 251.802C201.413 252.003 201.212 252.406 201.011 252.406C198.8 253.612 194.78 254.216 190.559 255.02C186.539 255.825 182.518 256.629 179.101 257.635C174.277 259.244 171.865 262.06 169.453 264.875C168.247 266.283 167.04 267.49 165.633 268.898C160.809 273.121 153.975 274.529 153.573 274.529Z" fill="#09030F"/>
<path d="M121.612 362.016L90.4551 362.419L85.2288 305.3H127.039L121.612 362.016Z" fill="#EDB94E"/>
<path d="M278.401 141.991C278.401 139.577 280.411 137.365 283.024 137.365C285.436 137.365 287.647 139.376 287.647 141.991C287.647 144.605 285.637 146.616 283.024 146.616C280.411 146.616 278.401 144.605 278.401 141.991Z" fill="#C4E7FF"/>
<path d="M282.823 145.209C282.622 145.008 279.607 142.996 279.808 141.186C279.808 140.583 280.21 140.181 280.813 139.778C281.215 139.577 281.617 139.376 282.019 139.577C282.421 139.778 282.823 139.98 283.024 140.382C283.225 140.181 283.627 139.778 284.029 139.577C284.431 139.577 284.833 139.577 285.235 139.778C285.838 140.181 286.039 140.583 286.039 141.186C286.039 142.996 283.225 145.008 282.823 145.209C283.024 145.209 282.823 145.209 282.823 145.209ZM281.416 139.98C281.215 139.98 281.014 139.98 280.813 140.181C280.411 140.382 280.21 140.784 280.21 141.186C280.21 142.393 281.818 143.801 282.823 144.605C283.627 144.002 285.436 142.393 285.436 141.186C285.436 140.784 285.235 140.583 284.833 140.181C284.632 139.98 284.431 139.98 284.029 139.98C283.426 140.181 283.024 140.784 283.024 140.784L282.823 140.985C282.622 140.985 282.622 140.985 282.622 140.784C282.622 140.784 282.22 140.181 281.416 139.98C281.617 139.98 281.617 139.98 281.416 139.98Z" fill="#0041EF"/>
<path d="M296.492 252.808C296.492 250.395 298.502 248.182 301.115 248.182C303.527 248.182 305.738 250.193 305.738 252.808C305.738 255.221 303.728 257.434 301.115 257.434C298.502 257.434 296.492 255.221 296.492 252.808Z" fill="#C4E7FF"/>
<path d="M301.115 256.026C300.914 256.026 300.914 256.026 301.115 256.026C300.914 255.825 297.899 253.814 298.1 252.004C298.1 251.4 298.502 250.998 299.105 250.596C299.507 250.395 299.909 250.193 300.311 250.395C300.713 250.596 301.115 250.797 301.316 251.199C301.517 250.998 301.919 250.596 302.321 250.395C302.723 250.395 303.125 250.395 303.527 250.596C304.13 250.998 304.331 251.4 304.331 252.004C304.13 253.613 301.316 255.825 301.115 256.026ZM299.708 250.797C299.507 250.797 299.306 250.797 299.105 250.998C298.703 251.199 298.502 251.601 298.502 252.004C298.502 253.21 300.11 254.618 301.115 255.423C301.919 254.819 303.728 253.21 303.728 252.004C303.728 251.601 303.527 251.4 303.125 250.998C302.924 250.797 302.723 250.797 302.321 250.797C301.718 250.998 301.316 251.601 301.316 251.601L301.115 251.802C301.115 251.802 300.914 251.802 300.914 251.601C300.713 251.601 300.512 250.998 299.708 250.797C299.909 250.797 299.708 250.797 299.708 250.797Z" fill="#0041EF"/>
<path d="M335.89 141.991C335.89 139.577 337.9 137.365 340.513 137.365C342.925 137.365 345.137 139.376 345.137 141.991C345.137 144.605 343.126 146.616 340.513 146.616C337.9 146.616 335.89 144.605 335.89 141.991Z" fill="#C4E7FF"/>
<path d="M340.513 145.209C340.513 145.209 340.312 145.209 340.513 145.209C340.312 145.008 337.297 142.996 337.498 141.186C337.498 140.583 337.9 140.181 338.503 139.778C338.905 139.577 339.307 139.376 339.709 139.577C340.111 139.778 340.513 139.98 340.714 140.382C340.915 140.181 341.317 139.778 341.719 139.577C342.121 139.577 342.523 139.577 342.925 139.778C343.528 140.181 343.729 140.583 343.729 141.186C343.528 142.996 340.714 145.008 340.513 145.209ZM339.106 139.98C338.905 139.98 338.704 139.98 338.503 140.181C338.101 140.382 337.9 140.784 337.9 141.186C337.9 142.393 339.508 143.801 340.513 144.605C341.317 144.002 343.126 142.393 343.126 141.186C343.126 140.784 342.925 140.583 342.523 140.181C342.322 139.98 342.121 139.98 341.719 139.98C341.116 140.181 340.714 140.784 340.714 140.784L340.513 140.985C340.312 140.985 340.312 140.985 340.312 140.784C340.312 140.784 339.91 140.181 339.106 139.98C339.307 139.98 339.106 139.98 339.106 139.98Z" fill="#0041EF"/>
<path d="M393.982 141.991C393.982 139.577 395.992 137.365 398.606 137.365C401.018 137.365 403.229 139.376 403.229 141.991C403.229 144.605 401.219 146.616 398.606 146.616C395.992 146.616 393.982 144.605 393.982 141.991Z" fill="#C4E7FF"/>
<path d="M398.405 145.209C398.204 145.008 395.188 142.996 395.389 141.186C395.389 140.583 395.791 140.181 396.394 139.778C396.796 139.577 397.198 139.376 397.601 139.577C398.003 139.778 398.405 139.98 398.606 140.382C398.807 140.181 399.209 139.778 399.611 139.577C400.013 139.577 400.415 139.577 400.817 139.778C401.42 140.181 401.621 140.583 401.621 141.186C401.621 142.996 398.807 145.008 398.405 145.209C398.606 145.209 398.606 145.209 398.405 145.209ZM396.997 139.98C396.796 139.98 396.595 139.98 396.394 140.181C395.992 140.382 395.791 140.784 395.791 141.186C395.791 142.393 397.399 143.801 398.405 144.605C399.209 144.002 401.018 142.393 401.018 141.186C401.018 140.784 400.817 140.583 400.415 140.181C400.214 139.98 400.013 139.98 399.611 139.98C399.008 140.181 398.606 140.784 398.606 140.784L398.405 140.985C398.405 140.985 398.204 140.985 398.204 140.784C398.204 140.784 397.802 140.181 396.997 139.98C397.198 139.98 397.198 139.98 396.997 139.98Z" fill="#0041EF"/>
<path d="M106.134 305.904C106.134 305.904 105.33 305.501 104.727 305.3C97.0885 301.278 59.0973 280.764 64.1226 266.082C64.3236 265.479 64.5247 265.076 64.7257 264.674C64.9267 264.473 65.1277 264.272 65.1277 264.071C69.952 259.445 82.6157 269.099 83.4197 269.702C82.8167 269.099 75.5803 260.853 69.3489 255.221C64.7257 250.998 57.2882 245.97 53.8711 240.339C53.67 239.936 53.469 239.735 53.268 239.333C52.464 237.523 51.8609 235.713 52.062 233.702C52.866 225.255 69.751 233.5 69.751 233.5C69.751 233.5 57.6903 224.048 51.0569 213.992C50.8559 213.791 50.6549 213.59 50.6549 213.187C46.8357 206.953 45.0266 200.919 49.6498 196.494C49.8508 196.293 50.0518 196.092 50.2528 195.891C50.4539 195.891 50.4539 195.69 50.6549 195.69C61.3085 187.846 79.1985 226.059 79.6005 226.864C79.6005 226.26 81.0076 213.187 86.4349 213.388C87.2389 213.388 87.842 213.791 88.445 214.193C88.646 214.394 88.847 214.595 89.048 214.796C92.6662 218.416 94.0733 228.271 93.8723 236.316C93.6713 242.953 94.0733 253.009 94.0733 253.814C94.2743 253.009 95.6814 243.959 99.5006 244.964C99.7016 244.964 99.7016 244.964 99.9027 245.165C100.104 245.165 100.104 245.367 100.305 245.367C103.923 247.981 103.923 262.864 104.526 274.73C105.531 287.401 106.134 305.904 106.134 305.904Z" fill="#B8A7F3"/>
<path d="M105.933 305.904C105.732 305.703 105.33 305.703 104.928 305.3C103.521 302.082 101.511 296.853 98.8976 290.619L64.9267 264.875C65.1277 264.674 65.3287 264.473 65.3287 264.272L98.0936 289.211C94.4753 279.758 89.8521 268.093 86.0329 257.032H85.8319L54.2731 240.54C54.0721 240.137 53.8711 239.936 53.67 239.534C53.67 239.534 53.8711 239.534 54.0721 239.534L85.8319 256.026C85.4298 255.02 85.2288 254.015 84.8268 253.009L52.866 234.104C52.665 233.903 52.665 233.702 52.665 233.5C52.866 233.299 53.067 233.299 53.268 233.299L84.4248 251.802C84.2238 251.601 84.2238 251.199 84.0228 250.998C79.8015 238.931 71.5601 225.657 63.9216 214.796L51.4589 214.193C51.2579 213.992 51.0569 213.791 51.0569 213.388H51.2579L63.3186 213.992C57.8913 206.55 52.866 200.316 49.8508 196.897C50.0518 196.695 50.2529 196.494 50.4539 196.293C53.469 199.913 58.6953 206.349 64.3236 214.193C72.1631 225.053 80.6056 238.528 84.6258 250.797C85.0278 252.205 85.6309 253.612 86.0329 255.02L88.445 214.997V214.796C88.646 214.997 88.847 215.199 89.048 215.4L86.6359 256.428V256.629C90.4551 267.691 95.0784 279.356 98.6966 288.808L99.5006 245.568C99.5006 245.568 99.5006 245.568 99.5006 245.367C99.7016 245.367 99.7016 245.367 99.9027 245.568C100.104 245.568 100.104 245.769 100.305 245.769L99.5006 290.417C99.5006 290.417 99.5006 290.417 99.5006 290.619C102.315 297.256 104.526 302.887 105.933 305.904Z" fill="white"/>
<path d="M102.114 302.686C102.114 302.686 102.114 302.485 102.114 302.686C102.114 302.485 98.2946 288.205 85.2288 278.753C84.8268 278.551 84.4248 278.149 84.0227 277.948C84.0227 277.948 84.0228 277.948 83.8217 277.948C82.6157 277.144 81.4096 276.54 80.0025 276.138C80.0025 276.138 79.8015 275.937 79.8015 276.138C69.7509 272.317 56.6852 273.725 56.4842 273.725C56.2832 273.725 56.2832 273.725 56.2832 273.926C56.2832 274.127 54.8761 288.809 70.354 299.267C76.5853 303.49 84.0228 304.496 90.2541 304.496C96.6865 304.496 101.511 303.289 101.511 303.289C101.913 302.887 102.114 302.887 102.114 302.686ZM101.31 301.881L87.0379 292.63L84.4248 278.551C84.6258 278.753 84.8268 278.753 85.0278 278.954C96.0834 287.2 100.305 298.865 101.31 301.881ZM81.8116 289.412L80.4045 276.54C81.6106 276.942 82.6157 277.546 83.6207 278.149L86.2339 292.228L81.8116 289.412ZM79.8015 276.339L81.2086 289.01L57.6903 273.926C60.7054 273.725 71.359 273.121 79.8015 276.339ZM57.0872 274.328L81.0076 289.613L66.3338 294.641C57.2882 285.993 57.0872 276.339 57.0872 274.328ZM71.158 298.462C69.5499 297.457 68.1429 296.25 66.7358 295.043L81.6106 290.015L101.109 302.485C97.8925 303.088 82.4147 305.904 71.158 298.462Z" fill="black"/>
<path d="M149.552 252.205C150.356 242.149 150.356 232.897 150.356 232.696C150.356 232.495 150.356 232.495 150.155 232.495H149.954C149.753 232.495 143.522 238.528 135.281 244.361C133.271 245.769 130.657 247.177 127.843 248.584C121.009 252.004 112.566 256.227 105.933 265.479C96.4855 278.551 105.732 305.099 105.933 305.501C105.933 305.703 106.134 305.703 106.134 305.703C106.536 305.703 136.286 299.066 146.135 273.926C146.939 272.116 147.542 269.501 147.944 266.886C148.748 262.462 149.15 257.233 149.552 252.205ZM147.341 266.484C145.532 266.484 139.904 266.685 135.683 267.088C130.657 267.49 126.436 268.495 123.622 269.3C127.24 265.277 130.255 262.261 132.869 259.847C134.879 258.037 136.487 256.227 138.095 254.417C140.909 253.612 145.13 252.607 148.949 252.406C148.748 257.434 148.145 262.261 147.341 266.484ZM143.321 246.372C141.914 249.188 140.306 251.4 138.497 253.612C138.497 250.797 138.296 246.774 137.492 243.556C142.919 239.534 147.341 235.713 149.351 233.903C147.944 236.517 144.929 242.953 143.321 246.372ZM149.753 234.104C149.753 236.92 149.552 244.16 148.949 252.004C145.532 252.205 141.713 253.009 138.698 253.814C140.507 251.802 142.115 249.389 143.522 246.573C145.532 243.154 148.547 236.718 149.753 234.104ZM128.044 248.987C130.858 247.579 133.472 246.171 135.683 244.763C136.085 244.361 136.487 244.16 136.889 243.758C137.492 246.573 137.894 249.992 137.894 254.015C136.286 255.825 134.477 257.434 132.667 259.445C130.054 261.858 127.039 264.875 123.22 268.898C123.019 266.082 122.818 263.467 122.416 260.652C122.014 258.641 121.612 256.227 120.808 252.808C123.22 251.601 125.833 250.193 128.044 248.987ZM120.205 253.411C121.009 256.629 121.411 259.043 121.813 261.054C122.215 263.87 122.617 266.886 122.818 269.702C122.818 269.702 121.813 270.708 121.411 271.311C116.989 276.339 113.571 281.568 110.958 286.797C111.159 283.579 111.36 279.356 111.36 275.333C111.36 270.305 110.556 264.674 110.154 261.456C113.37 258.037 116.788 255.423 120.205 253.411ZM106.335 265.881C107.34 264.473 108.345 263.266 109.551 262.06C109.953 265.277 110.556 270.507 110.556 275.333C110.556 279.758 110.355 284.585 110.154 288.004C110.154 288.205 110.154 288.205 110.154 288.205C106.737 295.445 106.134 301.077 105.933 303.691C103.923 297.658 98.2946 276.741 106.335 265.881ZM106.335 305.099C106.335 303.691 106.335 297.256 110.556 288.406V288.205C112.566 287.401 119.401 284.987 125.833 283.177C131.26 281.769 138.095 280.764 141.914 280.361C131.059 298.462 109.35 304.295 106.335 305.099ZM145.532 273.725C144.728 275.937 143.723 277.948 142.517 279.758C138.698 280.16 131.662 281.166 125.833 282.574C119.803 284.183 113.571 286.395 110.958 287.401C113.571 281.97 116.989 276.741 121.612 271.713C122.014 271.11 122.416 270.708 123.019 270.305C125.833 269.501 130.255 268.294 135.884 267.892C139.904 267.49 145.331 267.289 147.341 267.289C146.738 269.702 146.135 271.914 145.532 273.725Z" fill="black"/>
<path d="M88.646 189.455H87.842C87.641 189.455 86.4349 189.455 84.8268 189.254L84.0228 189.053L84.2238 187.645L85.0278 187.846C86.6359 188.047 87.641 188.047 87.842 188.047H88.646V189.455ZM80.0025 188.047L79.3995 187.846C78.3944 187.444 77.5904 187.042 76.7864 186.64L76.1833 186.237L76.7864 185.031L77.3894 185.433C78.1934 185.835 78.9975 186.237 80.0025 186.64L80.6056 186.841L80.0025 188.047ZM72.3641 183.824L71.7611 183.422C70.957 182.818 70.354 182.215 69.5499 181.41L69.1479 181.008L70.153 180.003L70.555 180.606C71.158 181.209 71.9621 181.813 72.5651 182.416L73.1682 182.818L72.3641 183.824ZM66.3338 177.589L65.9317 176.986C65.3287 176.181 64.9267 175.377 64.5247 174.371L64.3236 173.768L65.5297 173.164L65.9317 173.768C66.3338 174.572 66.7358 175.377 67.3388 176.181L67.7408 176.785L66.3338 177.589ZM62.5145 169.745L62.3135 168.941C61.9115 167.935 61.7105 167.131 61.5095 166.125L61.3085 165.522L62.7156 165.12L62.9166 165.723C63.1176 166.527 63.3186 167.533 63.7206 168.338L63.9216 168.941L62.5145 169.745ZM60.7054 161.097V160.293C60.7054 159.287 60.7054 158.483 60.7054 157.678V156.673H62.1125V157.678C62.1125 158.483 62.1125 159.287 62.1125 160.293V161.097H60.7054ZM62.3135 152.65L60.9065 152.449L61.1075 151.846C61.3085 150.84 61.5095 149.835 61.7105 149.03L61.9115 148.427L63.3186 148.829L63.1176 149.432C62.9166 150.237 62.7156 151.242 62.5145 152.248L62.3135 152.65ZM64.5247 144.605L63.3186 144.002L63.5196 143.399C64.3236 141.387 64.5247 141.186 65.1277 141.387L64.9267 142.795L65.1277 142.192L65.7307 142.594C65.7307 142.594 65.3287 143.198 64.9267 144.203L64.5247 144.605Z" fill="#0041EF"/>
<path d="M74.1732 91.1074L73.9722 90.5041C73.9722 90.5041 73.5702 89.2973 73.3691 87.4873V86.6828L74.7762 86.4817V87.2861C74.9772 88.8951 75.3793 89.9007 75.3793 89.9007L75.5803 90.5041L74.1732 91.1074ZM74.7762 82.6604L73.3691 82.4593L73.5701 81.6548C73.7712 80.6492 73.9722 79.6436 74.1732 78.8391L74.3742 78.2357L75.7813 78.638L75.5803 79.2413C75.3793 80.0458 75.1782 81.0514 74.9772 81.8559L74.7762 82.6604ZM77.1884 74.6156L75.9823 74.0122L76.3843 73.4089C76.7863 72.6044 77.3894 71.7999 77.7914 70.7943L78.1934 70.1909L79.3995 70.9954L78.9975 71.5988C78.5954 72.4033 77.9924 73.2077 77.5904 74.0122L77.1884 74.6156ZM81.8116 67.7775L80.8066 66.7719L81.2086 66.1685C81.8116 65.5652 82.4147 64.7607 83.2187 63.9562L83.6207 63.3528L84.6258 64.3584L84.2238 64.9618C83.6207 65.5652 82.8167 66.3696 82.2136 66.973L81.8116 67.7775ZM87.842 61.7439L87.0379 60.5372L87.6409 60.1349C88.445 59.5316 89.249 58.9282 90.0531 58.526L90.6561 58.1237L91.4602 59.3304L90.8571 59.7327C90.0531 60.1349 89.249 60.7383 88.646 61.3416L87.842 61.7439ZM94.8774 57.5204L94.4753 56.1125L95.0784 55.9114C96.0834 55.5092 96.8875 55.308 97.8925 54.9058L98.4956 54.7047L98.8976 56.1125L98.2946 56.3136C97.4905 56.5148 96.4854 56.917 95.6814 57.3192L94.8774 57.5204ZM107.139 55.5092H106.335C105.732 55.5092 105.129 55.5092 104.526 55.5092C104.124 55.5092 103.923 55.5092 103.521 55.5092H102.717V54.1013H103.521C103.923 54.1013 104.325 54.1013 104.526 54.1013C105.129 54.1013 105.732 54.1013 106.335 54.1013H107.139V55.5092Z" fill="#0041EF"/>
<path d="M188.951 194.885V194.282C188.951 194.282 188.75 193.075 188.75 191.265V190.461H190.157V191.265C190.157 193.075 190.358 194.081 190.358 194.081L190.559 194.684L188.951 194.885ZM190.157 186.438L188.75 186.237V185.433C188.75 184.427 188.951 183.623 189.152 182.617L189.353 181.813L190.76 182.014L190.559 182.818C190.358 183.824 190.358 184.628 190.157 185.634V186.438ZM191.363 177.991L189.956 177.589L190.157 176.986C190.358 175.98 190.76 175.176 190.961 174.17L191.162 173.567L192.569 173.969L192.368 174.572C191.966 175.377 191.765 176.382 191.564 177.187L191.363 177.991ZM194.378 170.349L193.172 169.745L193.574 169.142C193.976 168.338 194.579 167.533 194.981 166.729L195.383 166.125L196.589 166.93L196.187 167.533C195.584 168.338 195.182 169.142 194.78 169.947L194.378 170.349ZM199.202 163.31L198.197 162.304L198.599 161.701C199.202 160.896 200.006 160.293 200.609 159.488L201.011 158.885L202.016 159.891L201.614 160.494C201.011 161.097 200.408 161.902 199.805 162.505L199.202 163.31ZM205.233 157.477L204.228 156.472L204.831 156.069C205.635 155.466 206.439 154.863 207.042 154.259L207.645 153.857L208.449 155.064L207.846 155.466C207.042 156.069 206.439 156.471 205.635 157.276L205.233 157.477ZM212.067 152.65L211.464 151.444L212.067 151.041C212.871 150.639 213.876 150.237 214.68 149.835L215.283 149.633L215.886 151.041L215.283 151.242C214.479 151.645 213.675 151.846 212.67 152.449L212.067 152.65Z" fill="#0041EF"/>
<path d="M179.905 86.8838V86.0793C179.905 86.0793 179.905 85.8782 179.905 85.476V84.6715L181.312 84.4704V85.2749C181.312 85.6771 181.312 85.8782 181.312 85.8782V86.6827L179.905 86.8838ZM181.111 80.6491H179.704V79.8446C179.704 79.0401 179.905 78.0345 179.905 77.0289V76.2245L181.312 76.4256V77.2301C181.111 78.2357 181.111 79.2413 181.111 80.0457V80.6491ZM182.317 72.2021L180.91 72.0009L181.111 71.3976C181.312 70.392 181.513 69.5875 181.915 68.5819L182.116 67.9785L183.523 68.3808L183.322 68.9841C183.121 69.9897 182.719 70.7942 182.518 71.5987L182.317 72.2021ZM184.93 64.3584L183.724 63.755L183.925 63.1516C184.327 62.3472 184.729 61.3416 185.131 60.5371L185.534 59.9337L186.74 60.5371L186.338 61.1404C185.936 61.9449 185.534 62.7494 185.131 63.5539L184.93 64.3584ZM188.951 56.9169L187.745 56.1124L188.147 55.5091C188.75 54.7046 189.353 53.9001 189.956 53.2968L190.358 52.6934L191.363 53.699L190.961 54.3024C190.358 55.1068 189.755 55.7102 189.152 56.5147L188.951 56.9169ZM194.378 50.4811L193.373 49.4755L193.976 49.0732C194.579 48.4699 195.383 47.8665 196.187 47.2632L196.79 46.8609L197.594 47.8665L196.991 48.2688C196.187 48.8721 195.584 49.4755 194.981 50.0788L194.378 50.4811ZM201.011 45.252L200.207 44.0452L200.81 43.643C201.614 43.0396 202.418 42.6374 203.223 42.034L203.826 41.6318L204.63 42.8385L204.027 43.2408C203.223 43.643 202.418 44.2464 201.614 44.6486L201.011 45.252ZM208.449 41.0284L207.846 39.8217L208.449 39.4195C209.253 39.0172 210.258 38.615 211.062 38.2127L211.665 38.0116L212.268 39.4195L211.665 39.6206C210.861 40.0228 209.856 40.4251 209.052 40.8273L208.449 41.0284ZM216.087 37.8105L215.685 36.4027L216.288 36.2015C217.293 36.0004 218.097 35.5982 219.102 35.3971L219.705 35.1959L220.107 36.6038L219.504 36.8049C218.7 37.006 217.695 37.4083 216.891 37.6094L216.087 37.8105ZM253.676 36.8049L253.073 36.6038C253.073 36.6038 252.068 36.2015 250.46 36.0004L249.857 35.7993L250.058 34.3915L250.661 34.5926C252.47 34.9948 253.475 35.1959 253.475 35.3971L254.078 35.5982L253.676 36.8049ZM224.329 35.7993L224.128 34.3915L224.731 34.1903C225.736 33.9892 226.741 33.7881 227.545 33.7881H228.349L228.55 35.1959H227.746C226.741 35.3971 225.937 35.3971 224.932 35.5982L224.329 35.7993ZM245.435 35.1959H244.631C243.827 34.9948 242.822 34.9948 241.817 34.9948H241.013L241.214 33.587H242.018C243.023 33.587 244.028 33.7881 244.832 33.7881H245.636L245.435 35.1959ZM232.771 34.7937V33.3859H233.575C234.58 33.3859 235.585 33.3859 236.389 33.3859H237.193V34.7937H236.389C235.384 34.7937 234.58 34.7937 233.575 34.7937H232.771Z" fill="#0041EF"/>
<path d="M452.075 306.105L451.472 304.898L452.075 304.496C452.678 304.295 453.482 303.691 454.487 303.088L455.09 302.686L455.894 303.893L455.291 304.295C454.286 305.099 453.281 305.501 452.879 305.904L452.075 306.105ZM459.311 301.278L458.306 300.272L458.909 299.87C459.512 299.267 460.316 298.663 460.919 297.859L461.321 297.256L462.326 298.261L461.924 298.865C461.12 299.669 460.517 300.272 459.914 300.876L459.311 301.278ZM465.14 294.842L463.934 294.038L464.336 293.434C464.939 292.63 465.341 292.026 465.944 291.222L466.346 290.619L467.552 291.423L467.15 292.026C466.547 292.831 466.145 293.635 465.542 294.44L465.14 294.842ZM469.764 287.602L468.558 286.998L468.96 286.395C469.362 285.591 469.764 284.786 470.166 283.781L470.367 283.177L471.573 283.781L471.372 284.384C470.97 285.188 470.568 286.194 470.166 286.998L469.764 287.602ZM473.382 279.557L471.975 279.155L472.176 278.551C472.377 277.747 472.779 276.741 472.98 275.937L473.181 275.333L474.588 275.736L474.387 276.339C474.186 277.345 473.784 278.149 473.583 279.155L473.382 279.557ZM475.593 271.311L474.186 271.11V270.305C474.387 269.3 474.387 268.495 474.387 267.49V266.685H475.794V267.49C475.794 268.495 475.794 269.501 475.593 270.305V271.311ZM474.186 262.663L473.985 261.858C473.784 260.853 473.583 260.048 473.382 259.043L473.181 258.439L474.588 258.037L474.789 258.64C474.99 259.646 475.191 260.451 475.392 261.456L475.593 262.261L474.186 262.663ZM471.975 254.618L471.774 254.015C471.372 253.21 470.97 252.205 470.568 251.4L470.166 250.797L471.372 250.193L471.774 250.797C472.176 251.601 472.578 252.607 472.98 253.411L473.181 254.015L471.975 254.618ZM468.356 247.177L467.954 246.573C467.351 245.769 466.949 244.964 466.346 244.16L465.944 243.556L467.15 242.752L467.552 243.355C468.155 244.16 468.557 244.964 469.161 245.769L469.563 246.372L468.356 247.177ZM463.532 240.137L463.13 239.534C462.527 238.73 461.924 238.126 461.321 237.322L460.919 236.718L461.924 235.713L462.326 236.316C462.929 236.92 463.532 237.724 464.135 238.528L464.537 239.132L463.532 240.137ZM457.703 233.903L457.1 233.5C455.894 232.294 455.09 231.69 455.09 231.69L454.487 231.288L455.291 230.081L455.894 230.484C455.894 230.484 456.698 231.087 458.105 232.495L458.708 232.897L457.703 233.903Z" fill="#0041EF"/>
</g>
<defs>
<linearGradient id="paint0_linear_9_684" x1="226.121" y1="237.625" x2="413.041" y2="349.275" gradientUnits="userSpaceOnUse">
<stop stop-color="#E4F1F9"/>
<stop offset="1" stop-color="#ADCFF1"/>
</linearGradient>
<clipPath id="clip0_9_684">
<rect width="477" height="395" fill="white"/>
</clipPath>
</defs>
</svg>
