<svg width="453" height="431" viewBox="0 0 453 431" fill="none" xmlns="http://www.w3.org/2000/svg">
<g clip-path="url(#clip0_27_17)">
<path d="M414.82 241.087C414.542 139.855 332.191 57.8664 230.889 58.2847C129.727 58.5635 47.9336 140.971 48.2123 242.342C48.3516 300.069 75.2446 351.521 117.047 384.986L346.682 384.289C388.345 350.545 414.96 298.953 414.82 241.087Z" fill="#E1F6FC"/>
<path d="M251.233 245.967H212.357V384.149H251.233V245.967Z" fill="white"/>
<path d="M330.482 428.552C346.212 422.083 353.723 404.079 347.259 388.338C340.794 372.597 322.802 365.081 307.072 371.55C291.342 378.018 283.831 396.023 290.295 411.764C296.76 427.505 314.752 435.021 330.482 428.552Z" fill="white"/>
<path d="M261.405 416.08C284.954 416.08 304.044 396.977 304.044 373.413C304.044 349.848 284.954 330.745 261.405 330.745C237.856 330.745 218.767 349.848 218.767 373.413C218.767 396.977 237.856 416.08 261.405 416.08Z" fill="white"/>
<path d="M172.121 416.153C180.997 401.636 176.432 382.667 161.925 373.785C147.418 364.902 128.462 369.47 119.585 383.988C110.709 398.505 115.274 417.474 129.782 426.356C144.289 435.238 163.245 430.67 172.121 416.153Z" fill="white"/>
<path d="M203.439 416.08C226.988 416.08 246.078 396.977 246.078 373.413C246.078 349.848 226.988 330.745 203.439 330.745C179.89 330.745 160.8 349.848 160.8 373.413C160.8 396.977 179.89 416.08 203.439 416.08Z" fill="white"/>
<path d="M344.731 123.262C342.223 123.262 339.994 124.238 338.322 125.912C335.535 117.824 328.15 112.107 319.511 112.107C308.363 112.107 299.445 121.589 299.445 133.162H335.396H339.715H354.346C354.346 127.864 350.026 123.262 344.731 123.262Z" fill="white"/>
<path d="M137.53 163.42C136.276 163.42 135.022 163.839 134.047 164.536C131.957 159.934 127.637 156.727 122.342 156.727C115.236 156.727 109.523 162.723 109.523 170.113H131.121H135.161H143.94C143.94 166.348 141.014 163.42 137.53 163.42Z" fill="white"/>
<path d="M0 385.404L453 384.149" stroke="#012F8A" stroke-width="0.9419" stroke-miterlimit="10"/>
<path d="M196.89 155.891L176.128 180.989C169.997 188.24 166.513 197.582 166.513 207.064L162.612 303.415L202.185 225.888L196.89 155.891Z" fill="#1F55C8"/>
<path opacity="0.54" d="M196.89 155.891L190.898 163.002L182.398 264.652L200.931 228.398L196.89 155.891Z" fill="#599DEF"/>
<path d="M264.749 155.891L285.511 180.989C291.642 188.24 295.126 197.582 295.126 207.064L299.027 303.415L259.454 225.888L264.749 155.891Z" fill="#1F55C8"/>
<path opacity="0.54" d="M264.749 155.891L270.88 163.002L279.241 264.652L260.708 228.398L264.749 155.891Z" fill="#599DEF"/>
<path d="M212.078 255.728L206.086 273.297C206.086 273.297 229.775 285.149 256.667 273.157L250.536 255.588L212.078 255.728Z" fill="#090916"/>
<path d="M232.143 17.9873C231.725 17.7085 231.168 17.8479 230.889 18.1268C227.545 22.3099 209.988 46.8508 201.767 108.203C190.341 194.933 193.267 256.425 193.267 256.425C193.267 256.425 231.307 269.532 269.208 256.146C269.208 256.146 268.094 160.492 260.29 105.275C254.159 61.4917 238.832 23.0071 232.143 17.9873Z" fill="#6CA7FF"/>
<path d="M204.554 52.4283C204.554 52.4283 230.332 76.1326 259.594 52.2889L232.979 7.39014L204.554 52.4283Z" fill="#58CEEE"/>
<path opacity="0.24" d="M231.447 14.6409L232.701 274.552L276.454 262.281C276.315 262.281 284.257 47.1297 231.447 14.6409Z" fill="#B7B7B7"/>
<path d="M249.724 128.741C253.882 118.379 248.858 106.606 238.502 102.445C228.147 98.2846 216.382 103.312 212.224 113.674C208.067 124.037 213.091 135.81 223.446 139.971C233.801 144.131 245.566 139.104 249.724 128.741Z" fill="#1F55C8"/>
<path d="M243.823 127.226C247.152 120.113 244.088 111.646 236.979 108.314C229.871 104.983 221.409 108.049 218.08 115.163C214.751 122.276 217.815 130.743 224.924 134.074C232.032 137.406 240.494 134.34 243.823 127.226Z" fill="white"/>
<path d="M231.447 151.986C231.447 151.986 228.938 159.655 228.381 193.678C227.824 227.701 230.332 310.666 230.332 310.666H234.512L234.373 193.678C234.373 193.539 234.094 165.372 231.447 151.986Z" fill="#1F55C8"/>
<path d="M102.277 379.687L100.744 365.046L91.6869 364.628L93.2197 380.663H100.605L102.277 379.687Z" fill="#FCCAB9"/>
<path d="M92.105 376.341C92.105 376.341 99.9081 379.548 103.531 374.249L116.49 381.918C117.604 382.615 117.186 384.289 115.793 384.289L89.7361 384.428L92.105 376.341Z" fill="black"/>
<path d="M82.2117 274.412L89.0394 370.345L103.252 370.205C103.252 370.205 102.695 310.666 96.9819 273.576L82.2117 274.412Z" fill="#6CA7FF"/>
<path d="M80.9576 379.827L81.0969 365.186L72.179 364.767L71.9004 380.942L79.2855 380.803L80.9576 379.827Z" fill="#FCCAB9"/>
<path d="M70.7856 376.48C70.7856 376.48 78.5888 379.687 82.2116 374.389L99.072 384.428L68.5562 384.707L70.7856 376.48Z" fill="black"/>
<path d="M96.0065 275.388L90.1541 275.249V274.831L67.7201 283.476C65.4906 318.614 68.8349 370.624 68.8349 370.624L84.9985 370.484L89.4574 286.962L96.0065 275.388Z" fill="#6CA7FF"/>
<path d="M86.8099 338.414L87.3673 296.164L92.6623 291.981" stroke="#4D97EF" stroke-width="0.7171" stroke-miterlimit="10"/>
<path d="M88.2033 237.043C88.2033 237.043 86.3919 241.226 95.3098 262.142C95.3098 262.142 99.7687 271.205 101.859 271.345C105.203 271.763 119.277 270.647 126.522 260.19L116.908 251.684L106.178 257.959L99.7687 241.784C99.6294 241.784 95.8671 230.908 88.2033 237.043Z" fill="#58CEEE"/>
<path d="M77.474 231.187C73.8511 232.442 64.9333 236.485 64.9333 236.485C63.9579 236.904 63.2612 238.019 63.4005 239.135L67.7201 283.336C67.7201 283.336 81.0969 289.192 98.0966 279.99L96.9819 239.413C97.1212 238.298 95.8671 236.625 95.0311 235.788L85.1378 230.49L77.474 231.187Z" fill="#58CEEE"/>
<path d="M96.1458 245.549L96.9819 262.281" stroke="#3CB9D6" stroke-width="0.7171" stroke-miterlimit="10"/>
<path d="M90.7115 265.906C90.7115 265.906 93.777 272.739 80.5395 270.926L66.884 271.902L67.9988 267.719L76.7773 266.883H87.0886L90.7115 265.906Z" fill="#FCCAB9"/>
<path d="M64.9333 236.485C64.9333 236.485 58.3842 238.716 50.9991 259.353C50.9991 259.353 48.2123 267.301 49.6057 268.835C51.8351 271.345 64.9333 275.109 77.3347 272.042L75.9413 265.628L63.8185 263.257L69.8102 247.501C69.6709 247.64 74.6872 237.043 64.9333 236.485Z" fill="#58CEEE"/>
<path d="M57.5482 264.791C60.0563 262.142 63.4005 263.257 63.4005 263.257L69.9496 248.616" stroke="#3CB9D6" stroke-width="0.7171" stroke-miterlimit="10"/>
<path d="M67.4414 273.576C67.4414 273.576 75.8019 273.297 77.3347 272.181" stroke="#3CB9D6" stroke-width="0.7171" stroke-miterlimit="10"/>
<path d="M72.0397 264.931L63.6792 263.397" stroke="#3CB9D6" stroke-width="0.7171" stroke-miterlimit="10"/>
<path d="M73.0151 267.161L97.2606 267.022V264.233L73.0151 264.373C72.3184 264.373 71.6217 264.93 71.6217 265.767C71.6217 266.464 72.179 267.161 73.0151 267.161Z" fill="#050001"/>
<path d="M94.0557 267.022L126.104 266.743C127.916 266.743 129.588 265.488 130.006 263.676L136.137 241.087C136.694 239.135 135.162 237.182 133.071 237.182L103.531 237.322C102.277 237.322 101.162 238.159 100.883 239.413L94.0557 267.022Z" fill="#050001"/>
<path d="M113.982 252.102C113.982 253.776 115.375 255.17 117.047 255.17C118.719 255.17 120.113 253.776 120.113 252.102C120.113 250.429 118.719 249.035 117.047 249.035C115.375 249.035 113.982 250.429 113.982 252.102Z" fill="white"/>
<path d="M72.0397 208.877C72.0397 208.877 71.9003 202.184 81.9329 201.626C90.7115 201.208 91.8262 204.833 92.6623 207.343C93.4983 209.853 82.769 216.546 82.769 216.546L72.0397 208.877Z" fill="#171E21"/>
<path d="M77.3347 231.187L76.7773 217.661L85.4165 217.243L85.9738 230.211C86.1132 232.581 84.1624 233.696 81.7936 233.836C79.4248 233.975 77.474 233.557 77.3347 231.187Z" fill="#FCCAB9"/>
<path d="M76.9166 219.195C76.9166 219.195 75.6626 227.143 85.9738 229.095L85.6952 222.96L76.9166 219.195Z" fill="#E5A391"/>
<path d="M88.2033 203.578C88.2033 203.578 94.3344 203.439 92.8016 213.199L89.7361 209.016L88.2033 203.578Z" fill="#050001"/>
<path d="M88.3427 215.151C88.482 216.825 89.8754 218.08 91.5475 218.08C93.2196 217.94 94.4737 216.546 94.4737 214.873C94.3344 213.199 92.941 211.944 91.2689 211.944C89.4574 212.084 88.2033 213.478 88.3427 215.151Z" fill="#E5A391"/>
<path d="M84.3018 226.446C88.9 226.167 92.5229 223.239 92.3836 218.637L91.9655 209.434C91.8262 207.482 90.1541 205.809 88.064 205.949L78.5887 206.367C76.638 206.506 74.9659 208.18 75.1052 210.271L75.5232 218.219C75.6626 222.681 80.4002 226.585 84.3018 226.446Z" fill="#FCCAB9"/>
<path d="M76.0806 215.43C76.0806 215.43 80.6789 212.363 78.5887 206.227L73.8511 206.506C73.8511 206.506 73.1544 205.53 72.179 206.925C71.2036 208.319 73.4331 215.012 73.4331 215.012L76.0806 215.43Z" fill="#050001"/>
<path d="M77.3347 212.084L79.0068 207.482C79.0068 207.482 90.2934 208.877 92.9409 205.67C95.5884 202.602 93.359 198.001 91.1295 197.582C89.3181 197.164 87.5066 198.837 86.1132 199.534C84.7198 200.232 81.5149 199.534 80.5395 199.534C79.5641 199.534 75.3839 198.558 74.1298 203.02C74.1298 203.02 67.3021 205.53 74.4085 216.964C74.6872 216.964 77.3347 215.291 77.3347 212.084Z" fill="#050001"/>
<path d="M71.6217 216.127C71.6217 217.801 73.0151 219.195 74.8265 219.195C76.4986 219.195 77.892 217.801 77.892 215.988C77.892 214.315 76.4986 212.92 74.6872 212.92C72.8757 213.06 71.4823 214.454 71.6217 216.127Z" fill="#FCCAB9"/>
<path d="M78.4494 211.526C78.4494 211.526 78.1707 217.661 79.5641 219.474C80.9575 221.287 81.6543 219.474 86.5312 218.637C91.4082 217.94 92.6623 220.032 92.6623 220.032C92.6623 220.032 92.3836 226.306 85.9739 226.585C80.9575 226.864 75.9412 225.609 76.9166 217.661C77.892 209.713 75.1052 207.761 75.1052 207.761L78.4494 211.526Z" fill="#050001"/>
<path d="M78.5888 230.35L73.7118 232.581C73.7118 232.581 74.6872 236.346 82.351 236.067C83.3264 236.067 84.3018 235.927 85.2772 235.509C86.5312 235.091 88.2033 234.115 88.7607 232.302L84.5805 229.792L78.5888 230.35Z" fill="#FCCAB9"/>
<path d="M338.322 379.129L341.666 362.676L350.444 363.931L346.264 381.082L337.904 379.548L338.322 379.129Z" fill="#C46C57"/>
<path d="M347.518 376.898C347.518 376.898 341.666 379.966 338.322 375.365L323.552 382.337C322.715 382.755 322.994 383.87 323.97 383.87L349.748 383.731L347.518 376.898Z" fill="black"/>
<path d="M355.182 287.938L336.371 367.696H353.51L370.231 306.204L371.764 273.436L355.182 287.938Z" fill="#58CEEE"/>
<path d="M371.485 379.129L371.624 362.676L380.403 363.931L379.428 381.082L371.067 379.548L371.485 379.129Z" fill="#C46C57"/>
<path d="M380.682 376.898C380.682 376.898 374.829 379.966 371.485 375.365L356.158 382.615C355.461 382.894 355.739 383.87 356.436 383.87L382.772 383.731L380.682 376.898Z" fill="black"/>
<path d="M384.444 267.58C384.444 267.58 390.854 273.855 389.321 296.443L383.329 367.696H367.583L370.788 284.452L368.42 267.719L384.444 267.58Z" fill="#58CEEE"/>
<path d="M365.215 268.416C365.215 268.416 358.387 274.691 355.182 288.216L375.387 284.452L384.444 266.883L365.215 268.416Z" fill="#58CEEE"/>
<path d="M369.952 307.598L370.928 291.563L366.19 286.962" stroke="#3CB9D6" stroke-width="0.7171" stroke-miterlimit="10"/>
<path d="M393.78 202.742C393.919 206.227 391.132 209.295 387.649 209.435C384.165 209.574 381.1 206.785 380.96 203.299C380.821 199.813 383.608 196.746 387.091 196.606C390.575 196.467 393.64 199.256 393.78 202.742Z" fill="#1F120B"/>
<path d="M387.509 208.458C387.649 211.387 385.28 213.897 382.354 214.036C379.428 214.175 376.919 211.805 376.78 208.877C376.641 205.949 379.01 203.439 381.936 203.299C384.862 203.299 387.37 205.53 387.509 208.458Z" fill="#6CA7FF"/>
<path d="M368.698 205.391C368.698 205.391 382.214 199.813 386.395 208.458C389.46 214.454 385.977 221.844 378.452 225.051C371.346 228.119 374.829 206.088 374.829 206.088L368.698 205.391Z" fill="#1F120B"/>
<path d="M369.813 218.777C369.952 220.729 368.559 222.402 366.747 222.681C364.797 222.821 363.125 221.426 362.846 219.613C362.707 217.661 364.1 215.988 365.911 215.709C367.862 215.43 369.674 216.825 369.813 218.777Z" fill="#9C4838"/>
<path d="M371.067 228.119L370.231 237.322C370.51 239.971 372.321 241.226 374.969 240.947C377.198 240.668 379.149 239.274 379.288 237.043L379.149 223.518L371.067 228.119Z" fill="#C46C57"/>
<path d="M370.51 233.975L380.264 225.33L371.067 227.282L370.51 233.975Z" fill="#9C4838"/>
<path d="M373.436 229.235C368.977 229.374 365.075 226.028 364.797 222.263L364.239 213.478C363.961 208.877 367.305 204.833 371.903 204.275C376.641 203.718 381.657 207.064 382.214 211.805L382.632 218.777C382.911 224.354 378.87 228.677 373.436 229.235Z" fill="#C46C57"/>
<path d="M366.469 207.064C366.469 207.064 366.887 207.901 369.813 207.901C372.739 207.901 374.411 206.088 378.87 207.761C383.329 209.295 378.452 212.642 380.403 217.104L386.534 213.896L384.444 206.785L378.87 203.718C379.01 203.718 369.952 202.602 366.469 207.064Z" fill="#1F120B"/>
<path d="M386.952 218.219C387.091 220.171 385.698 221.844 383.886 222.123C381.936 222.263 380.264 220.868 379.985 219.056C379.846 217.104 381.239 215.43 383.05 215.151C385.001 214.873 386.673 216.406 386.952 218.219Z" fill="#C46C57"/>
<path d="M382.075 213.199C382.075 213.199 375.387 211.387 374.969 205.67L380.821 206.088L382.075 213.199Z" fill="#1F120B"/>
<path d="M378.452 206.088C378.452 206.088 375.944 211.944 364.379 211.666C364.379 211.666 364.657 208.04 367.723 205.949L378.452 206.088Z" fill="#1F120B"/>
<path d="M317.56 216.685C317.838 219.892 320.486 222.123 323.691 221.984C326.896 221.705 329.125 219.056 328.986 215.849C328.707 212.642 326.06 210.411 322.855 210.55C319.65 210.829 317.281 213.478 317.56 216.685Z" fill="#C46C57"/>
<path d="M327.035 212.084C327.035 212.084 329.404 211.108 329.961 214.036C330.379 216.964 329.404 221.008 323.691 221.984L327.035 212.084Z" fill="#C46C57"/>
<path d="M327.035 212.084L323.552 206.227C323.273 205.67 322.715 205.53 322.158 205.67C321.74 205.809 321.461 206.367 321.74 206.785L324.248 213.618L327.035 212.084Z" fill="#C46C57"/>
<path d="M321.601 219.892L332.051 231.326L335.396 224.215L328.428 217.661L321.601 219.892Z" fill="#C46C57"/>
<path d="M366.887 236.904L345.986 233.836L330.379 217.94L324.388 224.773L339.715 242.202C340.83 243.597 342.502 244.433 344.313 244.573L366.469 248.895L366.887 236.904Z" fill="#6CA7FF"/>
<path d="M362.985 241.923L362.707 238.716C362.567 237.601 363.543 236.625 364.657 236.625H388.067C390.436 237.322 390.575 241.366 390.436 242.202L384.444 268.416L365.215 268.556L362.149 254.054C362.149 254.054 361.034 252.66 360.616 249.453C360.477 246.804 361.731 243.597 362.985 241.923Z" fill="#6CA7FF"/>
<path d="M360.756 247.501C360.756 247.501 361.174 243.736 362.985 240.947" stroke="#4D97EF" stroke-width="0.7171" stroke-miterlimit="10"/>
<path d="M368.42 236.625H382.214C382.214 236.625 380.96 240.668 374.69 240.668C367.862 240.529 368.42 236.625 368.42 236.625Z" fill="#C46C57"/>
<path d="M382.632 248.059L399.075 265.488C401.304 267.719 404.091 268.835 406.46 266.743C408.829 264.512 409.107 260.747 406.878 258.237L392.247 238.716C390.157 236.346 386.673 235.928 383.886 237.461C379.985 239.832 379.428 245.13 382.632 248.059Z" fill="#6CA7FF"/>
<path d="M387.788 253.636L382.632 248.059" stroke="#4D97EF" stroke-width="0.7171" stroke-miterlimit="10"/>
<path d="M368.559 274.273L381.657 278.177C382.911 278.595 383.468 280.269 382.632 281.523L378.313 287.24C377.895 287.798 377.198 288.077 376.501 287.798L363.403 283.894C362.149 283.476 361.592 281.802 362.428 280.547L366.747 274.83C367.165 274.412 367.862 274.133 368.559 274.273Z" fill="#010101"/>
<path d="M383.886 275.667L375.387 276.085C374.969 276.085 374.551 276.504 374.551 276.922C374.411 277.48 374.829 278.038 375.247 278.038L377.616 278.595L373.854 282.639C373.436 283.197 373.575 284.033 374.133 284.452L375.805 285.288C377.198 286.125 378.87 286.125 380.264 285.288C382.772 283.894 386.255 281.802 387.231 278.874L383.886 275.667Z" fill="#C46C57"/>
<path d="M399.075 259.353L382.632 274.83L389.321 281.802L407.157 266.185C409.525 263.675 408.968 259.771 406.042 257.959C403.534 256.704 400.607 257.261 399.075 259.353Z" fill="#6CA7FF"/>
<path d="M93.0803 49.3608H86.5312C84.8591 49.3608 83.4657 47.9664 83.4657 46.2932V40.1579C83.4657 38.4847 84.8591 37.0903 86.5312 37.0903H93.0803C94.7524 37.0903 96.1458 38.4847 96.1458 40.1579V46.2932C96.2851 47.9664 94.7524 49.3608 93.0803 49.3608Z" fill="#E1F6FC"/>
<path d="M67.0233 186.288H27.5896C26.0569 186.288 24.8028 185.033 24.8028 183.499C24.8028 181.966 26.0569 180.711 27.5896 180.711H67.0233C68.5561 180.711 69.8102 181.966 69.8102 183.499C69.8102 185.033 68.5561 186.288 67.0233 186.288Z" fill="#58CEEE"/>
<path d="M428.058 158.401H350.862C349.33 158.401 348.076 157.146 348.076 155.612C348.076 154.078 349.33 152.823 350.862 152.823H428.058C429.591 152.823 430.845 154.078 430.845 155.612C430.984 157.146 429.591 158.401 428.058 158.401Z" fill="#6CA7FF"/>
<path d="M447.844 246.804H444.221C443.246 246.804 442.549 245.967 442.549 245.13V241.645C442.549 240.668 443.385 239.971 444.221 239.971H447.844C448.82 239.971 449.516 240.808 449.516 241.645V245.13C449.516 246.107 448.82 246.804 447.844 246.804Z" fill="#6CA7FF"/>
<path d="M311.707 29.4213H308.085C307.109 29.4213 306.412 28.5847 306.412 27.748V24.2621C306.412 23.2861 307.249 22.5889 308.085 22.5889H311.707C312.683 22.5889 313.38 23.4255 313.38 24.2621V27.748C313.519 28.7241 312.683 29.4213 311.707 29.4213Z" fill="#58CEEE"/>
<path d="M17.2784 302.997H9.05721C6.82774 302.997 5.0163 301.184 5.0163 298.953V290.726C5.0163 288.495 6.82774 286.683 9.05721 286.683H17.2784C19.5078 286.683 21.3193 288.495 21.3193 290.726V298.953C21.3193 301.184 19.5078 302.997 17.2784 302.997Z" fill="#E1F6FC"/>
<path d="M38.319 139.716H109.662C112.031 139.716 113.982 137.764 113.982 135.393V77.9454C113.982 75.5749 112.031 73.6228 109.662 73.6228H38.319C35.9502 73.6228 33.9994 75.5749 33.9994 77.9454V135.393C33.9994 137.764 35.9502 139.716 38.319 139.716Z" fill="#1C74D3"/>
<path d="M89.8754 102.068L87.2279 101.65C86.9492 100.534 86.5312 99.4187 85.8345 98.3032L87.3673 96.0722C87.9246 95.2356 87.7853 94.1201 87.0886 93.4229L85.5558 92.0285C84.8591 91.3313 83.7444 91.3313 82.9083 91.8891L80.8182 93.2835C79.8428 92.7257 78.7281 92.168 77.474 91.8891L77.056 89.2398C76.9166 88.2637 76.0806 87.5665 75.1052 87.5665H72.8757C71.9003 87.5665 71.0643 88.2637 70.9249 89.2398L70.5069 91.8891C69.3922 92.168 68.2775 92.5863 67.1627 93.2835L64.9333 91.7496C64.0972 91.1919 62.9825 91.3313 62.2858 92.0285L60.753 93.5623C60.0563 94.2595 59.917 95.375 60.4743 96.2116L62.0071 98.4426C61.4497 99.4187 60.8923 100.534 60.6137 101.789L57.9662 102.207C56.9908 102.347 56.2941 103.183 56.2941 104.16V106.391C56.2941 107.367 56.9908 108.203 57.9662 108.343L60.6137 108.761C60.8923 109.876 61.3104 110.992 62.0071 112.107L60.6137 114.338C60.0563 115.175 60.1956 116.291 60.8923 116.988L62.4251 118.522C63.1218 119.219 64.2365 119.358 65.0726 118.8L67.3021 117.267C68.2775 117.824 69.3922 118.382 70.6463 118.661L71.0643 121.31C71.2036 122.286 72.0397 122.984 73.0151 122.984H75.2445C76.2199 122.984 77.056 122.286 77.1953 121.31L77.6134 118.661C78.7281 118.382 79.8428 117.964 80.9576 117.267L83.0477 118.8C83.8837 119.358 84.9985 119.219 85.6952 118.522L87.2279 116.988C87.9246 116.291 88.064 115.175 87.5066 114.338L85.9739 112.107C86.5312 111.131 87.0886 110.016 87.3673 108.761L90.0148 108.343C90.9902 108.203 91.6869 107.367 91.6869 106.391V104.16C91.5475 103.044 90.8508 102.207 89.8754 102.068ZM73.9905 111.271C70.6463 111.271 67.9988 108.622 67.9988 105.275C67.9988 101.929 70.6463 99.2792 73.9905 99.2792C77.3347 99.2792 79.9822 101.929 79.9822 105.275C79.9822 108.482 77.3347 111.271 73.9905 111.271Z" fill="white"/>
<path d="M186.231 21.3404C186.292 9.63507 176.859 0.0963876 165.162 0.0351857C153.464 -0.0260162 143.932 9.41344 143.871 21.1188C143.81 32.8242 153.243 42.3628 164.94 42.424C176.637 42.4853 186.17 33.0458 186.231 21.3404Z" fill="#6CA7FF"/>
<path d="M169.579 12.8282C165.399 12.8282 165.12 15.3381 165.12 15.3381C165.12 15.3381 164.841 12.8282 160.661 12.8282C156.481 12.8282 155.087 17.5691 156.063 20.3579C156.899 22.5888 161.636 27.3297 163.866 29.4213C164.423 29.979 165.399 29.979 165.956 29.4213C168.185 27.3297 173.062 22.7283 173.898 20.4973C175.153 17.5691 173.759 12.8282 169.579 12.8282Z" fill="white"/>
<path d="M418.165 91.3313H357.551C352.395 91.3313 348.215 87.1482 348.215 81.989V35.8353C348.215 31.7916 351.42 28.5846 355.461 28.5846H418.025C422.066 28.5846 425.271 31.7916 425.271 35.8353V83.9411C425.41 88.1242 422.205 91.3313 418.165 91.3313Z" fill="#EDB94E"/>
<path d="M376.223 60.3762H367.862V74.7382H376.223V60.3762Z" fill="white"/>
<path d="M389.042 42.2494H380.682V74.7382H389.042V42.2494Z" fill="white"/>
<path d="M401.862 49.0818H393.501V74.8776H401.862V49.0818Z" fill="white"/>
<path d="M359.084 74.7383H413.427" stroke="white" stroke-width="0.8796" stroke-miterlimit="10"/>
</g>
<defs>
<clipPath id="clip0_27_17">
<rect width="453" height="431" fill="white"/>
</clipPath>
</defs>
</svg>
