<svg width="185" height="44" viewBox="0 0 185 44" fill="none" xmlns="http://www.w3.org/2000/svg">
<path d="M11.6078 35.3939C7.73856 35.3939 4.35294 34.0605 1.45098 31.3939L0 30.1817L4.8366 24.3636L6.4085 25.6969C7.2549 26.4242 8.22222 27.0302 9.18954 27.3939C10.0359 27.8787 10.8824 27.9999 11.7288 27.9999C12.3333 27.9999 12.9379 27.8787 13.1797 27.6363C13.4216 27.5151 13.4216 27.3939 13.4216 27.2726C13.4216 27.0302 13.4216 27.0302 13.3007 27.0302C13.0588 26.909 12.4542 26.5454 10.7614 26.0605C9.18954 25.6969 7.85948 25.3332 7.01307 24.9696C6.04575 24.606 5.19935 23.9999 4.23203 23.3939C3.38562 22.6666 2.66013 21.8181 2.29739 20.7272C1.93464 19.7575 1.69281 18.6666 1.69281 17.3332C1.69281 15.9999 1.93464 14.909 2.4183 13.8181C3.02288 12.8484 3.62745 11.8787 4.59477 11.1514C6.4085 9.81809 8.58497 9.09082 11.1242 9.09082C12.6961 9.09082 14.268 9.33325 15.8399 9.81809C17.4118 10.3029 18.7418 11.1514 19.951 12.1211L21.402 13.3332L17.1699 19.3939L15.2353 18.1817C14.8725 17.8181 14.1471 17.4545 13.4216 17.212C12.5752 16.9696 11.7288 16.8484 10.8824 16.8484C10.2778 16.8484 9.79412 16.9696 9.43137 17.0908C9.43137 17.0908 9.43137 17.212 9.43137 17.3332C9.43137 17.5757 9.43137 17.5757 9.55229 17.5757C9.6732 17.6969 10.3987 18.0605 13.1797 18.7878C15.719 19.3939 17.5327 20.2423 18.9837 21.4545C20.5556 22.7878 21.281 24.7272 21.281 27.1514C21.281 28.3636 21.0392 29.4545 20.5556 30.5454C20.0719 31.5151 19.3464 32.4848 18.3791 33.212C16.5654 34.6666 14.3889 35.3939 11.6078 35.3939Z" fill="#217BF4"/>
<path d="M25.634 44.0001L30.7124 31.5152L20.1928 10.9092H30.7124L34.7026 21.2122L38.3301 10.9092H48.6078L35.3072 43.8789H25.634V44.0001Z" fill="#217BF4"/>
<path d="M62.0294 34.6666V22.1818C62.0294 20.7272 61.6667 20.2424 61.5457 20.1212C61.4248 19.8788 60.9412 19.7575 60.4575 19.7575C59.732 19.7575 59.2483 20 58.7647 20.3636C58.6438 20.4848 58.1601 20.9697 58.1601 22.303V34.6666H49.2124V11.0303H58.0392V11.8788C59.1274 11.3939 60.3366 11.2727 61.5457 11.2727C64.2059 11.2727 66.5033 12.1212 68.317 13.8182C70.0098 15.5151 70.9771 17.9394 70.9771 20.9697V34.5454H62.0294V34.6666Z" fill="#217BF4"/>
<path d="M84.036 34.6668C80.6503 34.6668 77.7484 33.5758 75.451 31.394C73.1536 29.2122 72.0654 26.3031 72.0654 22.788C72.0654 19.1516 73.1536 16.3637 75.5719 14.1819C77.8693 12.1213 80.6503 10.9092 83.6732 10.9092C86.817 10.9092 89.4771 11.8789 91.6536 13.8183C93.8301 15.7577 95.0392 18.4243 95.0392 21.6971V25.8183H89.4771L93.7092 30.4243L93.1046 31.0304C90.5654 33.3334 87.5425 34.6668 84.036 34.6668ZM80.0458 25.8183C80.2876 26.3031 80.6503 26.6668 81.134 27.0304C81.9804 27.6365 82.9477 28.0001 84.1569 28.0001C85.9706 28.0001 87.4216 27.394 88.6307 26.1819L88.9935 25.8183H80.0458ZM87.1797 19.8789C86.9379 19.2728 86.6961 18.9092 86.3333 18.5455C85.7288 18.0607 84.8824 17.8183 83.915 17.8183C82.9477 17.8183 82.1013 18.0607 81.2549 18.6668C80.7712 19.0304 80.4085 19.394 80.1667 19.8789H87.1797Z" fill="#217BF4"/>
<path d="M96.1274 34.6666V11.0303H105.196V12.606C106.768 11.2727 108.219 11.1515 109.912 11.0303H112.209V18.9091H109.791C107.735 18.9091 106.889 19.6363 106.405 20.2424C105.559 21.3333 105.196 23.6363 105.196 25.5757V34.4242H96.1274V34.6666Z" fill="#217BF4"/>
<path d="M129.137 0V12.7273C128.654 12.2424 127.686 11.6364 126.961 11.2727C125.873 10.7879 124.784 10.5455 123.454 10.5455C120.552 10.5455 117.892 11.7576 116.078 13.9394C115.111 15.0303 114.507 16.2424 113.902 17.697C113.418 19.1515 113.176 20.8485 113.176 22.5455C113.176 24.2424 113.418 25.9394 113.902 27.3939C114.507 28.8485 115.232 30.1818 116.078 31.2727C117.046 32.3636 118.255 33.2121 119.464 33.8182C120.794 34.4242 122.366 34.6667 123.817 34.6667C125.993 34.6667 127.565 34.0606 129.016 32.8485V34.6667H137.964V0H129.137Z" fill="#217BF4"/>
<path d="M151.144 34.6668C147.758 34.6668 144.856 33.5758 142.559 31.394C140.261 29.2122 139.173 26.3031 139.173 22.788C139.173 19.1516 140.261 16.3637 142.68 14.1819C144.977 12.1213 147.758 10.9092 150.781 10.9092C153.925 10.9092 156.585 11.8789 158.761 13.8183C160.938 15.7577 162.147 18.4243 162.147 21.6971V25.8183H156.585L160.817 30.4243L160.212 31.0304C157.673 33.3334 154.65 34.6668 151.144 34.6668ZM147.154 25.8183C147.395 26.3031 147.758 26.6668 148.242 27.0304C149.088 27.6365 150.056 28.0001 151.265 28.0001C153.078 28.0001 154.529 27.394 155.739 26.1819L156.101 25.8183H147.154ZM154.288 19.8789C154.046 19.2728 153.804 18.9092 153.441 18.5455C152.837 18.0607 151.99 17.8183 151.023 17.8183C150.056 17.8183 149.209 18.0607 148.363 18.6668C147.879 19.0304 147.516 19.394 147.275 19.8789H154.288Z" fill="#217BF4"/>
<path d="M176.778 33.9394L176.536 34.0606C175.448 34.5454 174.964 34.5454 173.755 34.5454C172.304 34.5454 170.853 34.303 169.644 33.6969C168.314 33.2121 167.225 32.3636 166.137 31.3939C165.17 30.5454 164.444 29.3333 163.84 27.8788C163.235 26.4242 162.993 24.9697 162.993 23.5151C162.993 20.4848 164.082 17.5757 166.016 15.5151C167.951 13.3333 170.732 12.1212 173.634 12.1212C174.843 12.1212 175.327 12.1212 176.415 12.606L176.657 12.7272V11.0303H184.879V34.6666H176.657V33.9394H176.778ZM174.48 20.1212C173.634 20.1212 172.788 20.4848 172.183 21.0909C171.578 21.8182 171.216 22.7879 171.216 23.8788C171.216 24.8485 171.578 25.8182 172.062 26.4242C172.667 27.0303 173.513 27.2727 174.48 27.2727C175.327 27.2727 176.173 26.9091 176.778 26.4242C177.382 25.6969 177.745 24.8485 177.745 23.8788C177.745 22.9091 177.382 21.8182 176.778 21.0909C176.173 20.4848 175.327 20.1212 174.48 20.1212Z" fill="#217BF4"/>
<path d="M124.18 17.3333C121.761 17.3333 119.948 19.1514 119.948 21.5757C119.948 23.0302 120.915 24.4848 122.245 25.212V26.5454C122.245 26.909 122.608 27.1514 122.85 27.1514H125.147C125.51 27.1514 125.752 26.909 125.752 26.5454V25.212C127.082 24.4848 128.049 23.0302 128.049 21.5757C128.17 19.1514 126.356 17.3333 124.18 17.3333Z" fill="white"/>
<path d="M125.268 27.3938H122.971C122.85 27.3938 122.608 27.515 122.608 27.7574C122.608 27.8786 122.729 28.1211 122.971 28.1211H125.268C125.389 28.1211 125.631 27.9999 125.631 27.7574C125.51 27.515 125.389 27.3938 125.268 27.3938Z" fill="white"/>
<path d="M124.905 28.3635H123.333C123.212 28.3635 122.971 28.4847 122.971 28.7272C122.971 28.9696 123.091 29.0908 123.333 29.0908H124.905C125.026 29.0908 125.268 28.9696 125.268 28.7272C125.268 28.4847 125.026 28.3635 124.905 28.3635Z" fill="white"/>
</svg>
