<?xml version="1.0" encoding="utf-8"?>
<!-- Generator: Adobe Illustrator 26.0.0, SVG Export Plug-In . SVG Version: 6.00 Build 0)  -->
<svg version="1.1" id="Layer_1" xmlns="http://www.w3.org/2000/svg" xmlns:xlink="http://www.w3.org/1999/xlink" x="0px" y="0px"
	 viewBox="0 0 185 44" style="enable-background:new 0 0 185 44;" xml:space="preserve">
<style type="text/css">
	.st0{fill:#FFFFFF;}
</style>
<path class="st0" d="M11.6,35.4c-3.9,0-7.3-1.3-10.2-4L0,30.2l4.8-5.8l1.6,1.3c0.8,0.7,1.8,1.3,2.8,1.7c0.8,0.5,1.7,0.6,2.5,0.6
	c0.6,0,1.2-0.1,1.5-0.4c0.2-0.1,0.2-0.2,0.2-0.4c0-0.2,0-0.2-0.1-0.2c-0.2-0.1-0.8-0.5-2.5-1c-1.6-0.3-2.9-0.7-3.8-1
	c-1-0.4-1.8-1-2.8-1.6c-0.8-0.7-1.6-1.6-1.9-2.7c-0.4-1-0.6-2.1-0.6-3.4s0.2-2.4,0.7-3.5c0.6-1,1.2-1.9,2.2-2.7
	C6.4,9.8,8.6,9,11.1,9c1.6,0,3.1,0.2,4.7,0.7s2.9,1.3,4.1,2.3l1.5,1.2l-4.2,6.1l-1.9-1.2c-0.4-0.4-1.1-0.7-1.8-1
	c-0.8-0.2-1.7-0.4-2.5-0.4c-0.6,0-1.1,0.1-1.5,0.2c0,0,0,0.1,0,0.2c0,0.2,0,0.2,0.1,0.2c0.1,0.1,0.8,0.5,3.6,1.2
	c2.5,0.6,4.4,1.5,5.8,2.7c1.6,1.3,2.3,3.3,2.3,5.7c0,1.2-0.2,2.3-0.7,3.4c-0.5,1-1.2,1.9-2.2,2.7C16.6,34.7,14.4,35.4,11.6,35.4z"/>
<path class="st0" d="M25.6,44l5.1-12.5L20.2,10.9h10.5l4,10.3l3.6-10.3h10.3l-13.3,33L25.6,44C25.6,43.9,25.6,44,25.6,44z"/>
<path class="st0" d="M62,34.7V22.2c0-1.5-0.4-1.9-0.5-2.1s-0.6-0.4-1.1-0.4c-0.7,0-1.2,0.2-1.7,0.6c-0.1,0.1-0.6,0.6-0.6,1.9v12.4
	h-8.9V11H58v0.8c1.1-0.5,2.3-0.6,3.5-0.6c2.7,0,5,0.8,6.8,2.5C70,15.5,71,17.9,71,21v13.6h-9V34.7z"/>
<path class="st0" d="M84,34.7c-3.4,0-6.3-1.1-8.6-3.3c-2.3-2.2-3.4-5.1-3.4-8.6c0-3.6,1.1-6.4,3.5-8.6c2.3-2.1,5.1-3.3,8.1-3.3
	c3.1,0,5.8,1,8,2.9s3.4,4.6,3.4,7.9v4.1h-5.6l4.2,4.6L93.1,31C90.6,33.3,87.5,34.7,84,34.7z M80,25.8c0.2,0.5,0.6,0.8,1.1,1.2
	c0.8,0.6,1.8,1,3,1c1.8,0,3.3-0.6,4.5-1.8l0.4-0.4C89,25.8,80,25.8,80,25.8z M87.2,19.9c-0.2-0.6-0.5-1-0.8-1.3
	c-0.6-0.5-1.5-0.7-2.4-0.7c-1,0-1.8,0.2-2.7,0.8c-0.5,0.4-0.8,0.7-1.1,1.2H87.2z"/>
<path class="st0" d="M96.1,34.7V11h9.1v1.6c1.6-1.3,3-1.5,4.7-1.6h2.3v7.9h-2.4c-2.1,0-2.9,0.7-3.4,1.3c-0.8,1.1-1.2,3.4-1.2,5.3
	v8.8h-9.1V34.7z"/>
<path class="st0" d="M129.1,0v12.7c-0.5-0.5-1.5-1.1-2.2-1.5c-1.1-0.5-2.2-0.7-3.5-0.7c-2.9,0-5.6,1.2-7.4,3.4
	c-1,1.1-1.6,2.3-2.2,3.8c-0.5,1.5-0.7,3.2-0.7,4.8c0,1.7,0.2,3.4,0.7,4.8c0.6,1.5,1.3,2.8,2.2,3.9c1,1.1,2.2,1.9,3.4,2.5
	c1.3,0.6,2.9,0.8,4.4,0.8c2.2,0,3.7-0.6,5.2-1.8v1.8h8.9V0H129.1z M124.9,29.2h-1.6c-0.3,0-0.4-0.2-0.4-0.4c0-0.3,0.3-0.4,0.4-0.4
	h1.6c0.1,0,0.4,0.1,0.4,0.4S125,29.2,124.9,29.2z M125.3,28.2H123c-0.3,0-0.4-0.3-0.4-0.4c0-0.3,0.3-0.4,0.4-0.4h2.3
	c0.1,0,0.2,0.1,0.4,0.4C125.7,28.1,125.4,28.2,125.3,28.2z M125.8,25.1v1.3c0,0.4-0.2,0.6-0.6,0.6h-2.3c-0.2,0-0.6-0.2-0.6-0.6v-1.3
	c-1.3-0.7-2.3-2.1-2.3-3.6c0-2.4,1.8-4.2,4.2-4.2c2.2,0,4,1.9,3.9,4.2C128.1,22.9,127.1,24.4,125.8,25.1z"/>
<path class="st0" d="M151.1,34.7c-3.4,0-6.3-1.1-8.6-3.3s-3.4-5.1-3.4-8.6c0-3.6,1.1-6.4,3.5-8.6c2.3-2.1,5.1-3.3,8.1-3.3
	c3.1,0,5.8,1,8,2.9s3.4,4.6,3.4,7.9v4.1h-5.6l4.2,4.6l-0.6,0.6C157.7,33.3,154.6,34.7,151.1,34.7z M147.2,25.8
	c0.2,0.5,0.6,0.8,1.1,1.2c0.8,0.6,1.8,1,3,1c1.8,0,3.3-0.6,4.5-1.8l0.4-0.4C156.2,25.8,147.2,25.8,147.2,25.8z M154.3,19.9
	c-0.2-0.6-0.5-1-0.8-1.3c-0.6-0.5-1.5-0.7-2.4-0.7c-1,0-1.8,0.2-2.7,0.8c-0.5,0.4-0.8,0.7-1.1,1.2H154.3z"/>
<path class="st0" d="M176.8,33.9l-0.2,0.1c-1.1,0.5-1.6,0.5-2.8,0.5c-1.5,0-2.9-0.2-4.1-0.8c-1.3-0.5-2.4-1.3-3.5-2.3
	c-1-0.8-1.7-2.1-2.3-3.5c-0.6-1.5-0.8-2.9-0.8-4.4c0-3,1.1-5.9,3-8c1.9-2.2,4.7-3.4,7.6-3.4c1.2,0,1.7,0,2.8,0.5l0.2,0.1V11h8.2
	v23.6h-8.2v-0.7C176.7,33.9,176.8,33.9,176.8,33.9z M174.5,20.1c-0.8,0-1.7,0.4-2.3,1c-0.6,0.7-1,1.7-1,2.8c0,1,0.4,1.9,0.8,2.5
	c0.6,0.6,1.5,0.8,2.4,0.8c0.8,0,1.7-0.4,2.3-0.8c0.6-0.7,1-1.6,1-2.5s-0.4-2.1-1-2.8C176.2,20.5,175.3,20.1,174.5,20.1z"/>
</svg>
