<svg xmlns="http://www.w3.org/2000/svg" viewBox="0 0 1944.7 949.8"><defs><style>.f22888ac-b8fa-4420-8b65-65e0ca60180e{fill:#ededed;}.f0775f33-c48b-4c2d-9523-55ad3cfa99a3{fill:none;}.ec9f8b4f-79af-4319-92cf-511e5c5420b6{fill:#00aec7;}.a711b48e-29d5-45d8-b3fb-f9d0d2718543{fill:#00adc7;}.bd85cc3d-2513-4d4f-9889-5608b9200b9d{fill:#78bf21;}.b61f2565-5f72-4cd8-819b-b1864e4330ca{fill:#004fa8;}.edf5ac70-f6b8-4a5e-a237-094924bde7b7{font-size:22px;font-family:"avenir-next","Open Sans",sans-serif;font-weight:600;}</style></defs><g id="f2d9fdcf-6275-4b64-8aea-24a40072dc72" data-name="Map"><path class="f22888ac-b8fa-4420-8b65-65e0ca60180e" d="M481.31,5.49a2.22,2.22,0,0,0-.3-1.1L479.6,1.94l-.46-.79a2.27,2.27,0,0,0-.8-.8,2.15,2.15,0,0,0-1.1-.29H473.5a2.15,2.15,0,0,0-1.1.29,2.27,2.27,0,0,0-.8.8l-1.87,3.24a2.21,2.21,0,0,0-.29,1.1,2.11,2.11,0,0,0,.29,1.1l1.87,3.24a2.19,2.19,0,0,0,.8.8,2.16,2.16,0,0,0,1.1.3h3.74a2.16,2.16,0,0,0,1.1-.3,2.19,2.19,0,0,0,.8-.8L479.6,9,481,6.59a2.22,2.22,0,0,0,.3-1.1"></path><rect class="f0775f33-c48b-4c2d-9523-55ad3cfa99a3" x="469.44" y="0.05" width="11.87" height="10.88"></rect><path class="f22888ac-b8fa-4420-8b65-65e0ca60180e" d="M495.32,5.49a2.21,2.21,0,0,0-.29-1.1l-1.42-2.45-.46-.79a2.19,2.19,0,0,0-.8-.8,2.15,2.15,0,0,0-1.1-.29h-3.74a2.11,2.11,0,0,0-1.09.29,2.22,2.22,0,0,0-.81.8l-1.87,3.24a2.23,2.23,0,0,0,0,2.2l1.87,3.24a2.14,2.14,0,0,0,.81.8,2.12,2.12,0,0,0,1.09.3h3.74a2.16,2.16,0,0,0,1.1-.3,2.12,2.12,0,0,0,.8-.8l.46-.79L495,6.59a2.21,2.21,0,0,0,.29-1.1"></path><rect class="f0775f33-c48b-4c2d-9523-55ad3cfa99a3" x="483.45" y="0.05" width="11.87" height="10.88"></rect><path class="f22888ac-b8fa-4420-8b65-65e0ca60180e" d="M509.33,5.49a2.21,2.21,0,0,0-.29-1.1l-1.42-2.45-.45-.79a2.22,2.22,0,0,0-.81-.8,2.11,2.11,0,0,0-1.09-.29h-3.74a2.15,2.15,0,0,0-1.1.29,2.3,2.3,0,0,0-.81.8l-1.87,3.24a2.23,2.23,0,0,0,0,2.2l1.87,3.24a2.22,2.22,0,0,0,.81.8,2.16,2.16,0,0,0,1.1.3h3.74a2.12,2.12,0,0,0,1.09-.3,2.14,2.14,0,0,0,.81-.8l.45-.79L509,6.59a2.21,2.21,0,0,0,.29-1.1"></path><rect class="f0775f33-c48b-4c2d-9523-55ad3cfa99a3" x="497.46" y="0.05" width="11.87" height="10.88"></rect><path class="f22888ac-b8fa-4420-8b65-65e0ca60180e" d="M523.35,5.49a2.22,2.22,0,0,0-.3-1.1l-1.41-2.45-.46-.79a2.27,2.27,0,0,0-.8-.8,2.15,2.15,0,0,0-1.1-.29h-3.74a2.15,2.15,0,0,0-1.1.29,2.27,2.27,0,0,0-.8.8l-1.87,3.24a2.17,2.17,0,0,0,0,2.2l1.87,3.24a2.19,2.19,0,0,0,.8.8,2.16,2.16,0,0,0,1.1.3h3.74a2.21,2.21,0,0,0,1.9-1.1l.46-.79,1.41-2.45a2.22,2.22,0,0,0,.3-1.1"></path><rect class="f0775f33-c48b-4c2d-9523-55ad3cfa99a3" x="511.47" y="0.05" width="11.87" height="10.88"></rect><path class="f22888ac-b8fa-4420-8b65-65e0ca60180e" d="M537.36,5.49a2.22,2.22,0,0,0-.3-1.1l-1.41-2.45-.46-.79a2.27,2.27,0,0,0-.8-.8,2.15,2.15,0,0,0-1.1-.29h-3.74a2.18,2.18,0,0,0-1.1.29,2.27,2.27,0,0,0-.8.8l-1.87,3.24a2.23,2.23,0,0,0,0,2.2l1.87,3.24a2.21,2.21,0,0,0,1.9,1.1h3.74a2.16,2.16,0,0,0,1.1-.3,2.19,2.19,0,0,0,.8-.8l.46-.79,1.41-2.45a2.22,2.22,0,0,0,.3-1.1"></path><rect class="f0775f33-c48b-4c2d-9523-55ad3cfa99a3" x="525.49" y="0.05" width="11.87" height="10.88"></rect><path class="f22888ac-b8fa-4420-8b65-65e0ca60180e" d="M551.37,5.49a2.21,2.21,0,0,0-.29-1.1l-1.42-2.45-.45-.79a2.22,2.22,0,0,0-.81-.8,2.14,2.14,0,0,0-1.09-.29h-3.74a2.15,2.15,0,0,0-1.1.29,2.3,2.3,0,0,0-.81.8l-1.87,3.24a2.23,2.23,0,0,0,0,2.2l1.87,3.24a2.22,2.22,0,0,0,.81.8,2.16,2.16,0,0,0,1.1.3h3.74a2.25,2.25,0,0,0,1.9-1.1l.45-.79,1.42-2.45a2.21,2.21,0,0,0,.29-1.1"></path><rect class="f0775f33-c48b-4c2d-9523-55ad3cfa99a3" x="539.5" y="0.05" width="11.87" height="10.88"></rect><path class="f22888ac-b8fa-4420-8b65-65e0ca60180e" d="M565.38,5.49a2.11,2.11,0,0,0-.29-1.1l-1.41-2.45-.46-.79a2.27,2.27,0,0,0-.8-.8,2.18,2.18,0,0,0-1.1-.29h-3.74a2.15,2.15,0,0,0-1.1.29,2.27,2.27,0,0,0-.8.8l-1.87,3.24a2.17,2.17,0,0,0,0,2.2l1.87,3.24a2.19,2.19,0,0,0,.8.8,2.16,2.16,0,0,0,1.1.3h3.74a2.21,2.21,0,0,0,1.9-1.1l.46-.79,1.41-2.45a2.21,2.21,0,0,0,.29-1.1"></path><rect class="f0775f33-c48b-4c2d-9523-55ad3cfa99a3" x="553.51" y="0.05" width="11.87" height="10.88"></rect><path class="f22888ac-b8fa-4420-8b65-65e0ca60180e" d="M663.48,5.49a2.22,2.22,0,0,0-.3-1.1l-1.41-2.45-.46-.79a2.27,2.27,0,0,0-.8-.8,2.15,2.15,0,0,0-1.1-.29h-3.74a2.15,2.15,0,0,0-1.1.29,2.27,2.27,0,0,0-.8.8L651.9,4.39a2.17,2.17,0,0,0,0,2.2l1.87,3.24a2.19,2.19,0,0,0,.8.8,2.16,2.16,0,0,0,1.1.3h3.74a2.16,2.16,0,0,0,1.1-.3,2.19,2.19,0,0,0,.8-.8l.46-.79,1.41-2.45a2.22,2.22,0,0,0,.3-1.1"></path><rect class="f0775f33-c48b-4c2d-9523-55ad3cfa99a3" x="651.6" y="0.05" width="11.87" height="10.88"></rect><path class="f22888ac-b8fa-4420-8b65-65e0ca60180e" d="M677.49,5.49a2.22,2.22,0,0,0-.3-1.1l-1.41-2.45-.46-.79a2.27,2.27,0,0,0-.8-.8,2.15,2.15,0,0,0-1.1-.29h-3.74a2.18,2.18,0,0,0-1.1.29,2.27,2.27,0,0,0-.8.8l-1.87,3.24a2.23,2.23,0,0,0,0,2.2l1.87,3.24a2.21,2.21,0,0,0,1.9,1.1h3.74a2.16,2.16,0,0,0,1.1-.3,2.19,2.19,0,0,0,.8-.8l.46-.79,1.41-2.45a2.22,2.22,0,0,0,.3-1.1"></path><rect class="f0775f33-c48b-4c2d-9523-55ad3cfa99a3" x="665.62" y="0.05" width="11.87" height="10.88"></rect><path class="f22888ac-b8fa-4420-8b65-65e0ca60180e" d="M691.5,5.49a2.21,2.21,0,0,0-.29-1.1l-1.42-2.45-.45-.79a2.22,2.22,0,0,0-.81-.8,2.14,2.14,0,0,0-1.09-.29h-3.75a2.14,2.14,0,0,0-1.09.29,2.3,2.3,0,0,0-.81.8l-1.87,3.24a2.23,2.23,0,0,0,0,2.2l1.87,3.24a2.22,2.22,0,0,0,.81.8,2.15,2.15,0,0,0,1.09.3h3.75a2.25,2.25,0,0,0,1.9-1.1l.45-.79,1.42-2.45a2.21,2.21,0,0,0,.29-1.1"></path><rect class="f0775f33-c48b-4c2d-9523-55ad3cfa99a3" x="679.63" y="0.05" width="11.87" height="10.88"></rect><path class="f22888ac-b8fa-4420-8b65-65e0ca60180e" d="M705.51,5.49a2.11,2.11,0,0,0-.29-1.1l-1.41-2.45-.46-.79a2.27,2.27,0,0,0-.8-.8,2.18,2.18,0,0,0-1.1-.29h-3.74a2.15,2.15,0,0,0-1.1.29,2.27,2.27,0,0,0-.8.8l-1.87,3.24a2.17,2.17,0,0,0,0,2.2l1.87,3.24a2.19,2.19,0,0,0,.8.8,2.16,2.16,0,0,0,1.1.3h3.74a2.21,2.21,0,0,0,1.9-1.1l.46-.79,1.41-2.45a2.21,2.21,0,0,0,.29-1.1"></path><rect class="f0775f33-c48b-4c2d-9523-55ad3cfa99a3" x="693.64" y="0.05" width="11.87" height="10.88"></rect><path class="f22888ac-b8fa-4420-8b65-65e0ca60180e" d="M719.53,5.49a2.22,2.22,0,0,0-.3-1.1l-1.41-2.45-.46-.79a2.27,2.27,0,0,0-.8-.8,2.15,2.15,0,0,0-1.1-.29h-3.74a2.18,2.18,0,0,0-1.1.29,2.27,2.27,0,0,0-.8.8L708,4.39a2.23,2.23,0,0,0,0,2.2l1.87,3.24a2.21,2.21,0,0,0,1.9,1.1h3.74a2.16,2.16,0,0,0,1.1-.3,2.19,2.19,0,0,0,.8-.8l.46-.79,1.41-2.45a2.22,2.22,0,0,0,.3-1.1"></path><rect class="f0775f33-c48b-4c2d-9523-55ad3cfa99a3" x="707.66" y="0.05" width="11.87" height="10.88"></rect><path class="f22888ac-b8fa-4420-8b65-65e0ca60180e" d="M733.54,5.49a2.21,2.21,0,0,0-.29-1.1l-1.42-2.45-.45-.79a2.22,2.22,0,0,0-.81-.8,2.14,2.14,0,0,0-1.09-.29h-3.75a2.11,2.11,0,0,0-1.09.29,2.22,2.22,0,0,0-.81.8L722,4.39a2.23,2.23,0,0,0,0,2.2l1.87,3.24a2.14,2.14,0,0,0,.81.8,2.12,2.12,0,0,0,1.09.3h3.75a2.25,2.25,0,0,0,1.9-1.1l.45-.79,1.42-2.45a2.21,2.21,0,0,0,.29-1.1"></path><rect class="f0775f33-c48b-4c2d-9523-55ad3cfa99a3" x="721.67" y="0.05" width="11.87" height="10.88"></rect><path class="f22888ac-b8fa-4420-8b65-65e0ca60180e" d="M747.55,5.49a2.21,2.21,0,0,0-.29-1.1l-1.41-2.45-.46-.79a2.22,2.22,0,0,0-.81-.8,2.11,2.11,0,0,0-1.09-.29h-3.74a2.15,2.15,0,0,0-1.1.29,2.27,2.27,0,0,0-.8.8L736,4.39a2.17,2.17,0,0,0,0,2.2l1.87,3.24a2.19,2.19,0,0,0,.8.8,2.16,2.16,0,0,0,1.1.3h3.74a2.12,2.12,0,0,0,1.09-.3,2.14,2.14,0,0,0,.81-.8l.46-.79,1.41-2.45a2.21,2.21,0,0,0,.29-1.1"></path><rect class="f0775f33-c48b-4c2d-9523-55ad3cfa99a3" x="735.68" y="0.05" width="11.87" height="10.88"></rect><path class="f22888ac-b8fa-4420-8b65-65e0ca60180e" d="M761.57,5.49a2.22,2.22,0,0,0-.3-1.1l-1.41-2.45-.46-.79a2.27,2.27,0,0,0-.8-.8,2.15,2.15,0,0,0-1.1-.29h-3.74a2.15,2.15,0,0,0-1.1.29,2.27,2.27,0,0,0-.8.8L750,4.39a2.21,2.21,0,0,0-.29,1.1,2.11,2.11,0,0,0,.29,1.1l1.87,3.24a2.19,2.19,0,0,0,.8.8,2.16,2.16,0,0,0,1.1.3h3.74a2.16,2.16,0,0,0,1.1-.3,2.19,2.19,0,0,0,.8-.8l.46-.79,1.41-2.45a2.22,2.22,0,0,0,.3-1.1"></path><rect class="f0775f33-c48b-4c2d-9523-55ad3cfa99a3" x="749.7" y="0.05" width="11.87" height="10.88"></rect><path class="f22888ac-b8fa-4420-8b65-65e0ca60180e" d="M775.09,5.44a2.22,2.22,0,0,0-.3-1.1l-1.41-2.45-.46-.79a2.19,2.19,0,0,0-.8-.8A2.16,2.16,0,0,0,771,0h-3.74a2.16,2.16,0,0,0-1.1.3,2.19,2.19,0,0,0-.8.8l-1.87,3.24a2.17,2.17,0,0,0,0,2.2l1.87,3.24a2.19,2.19,0,0,0,.8.8,2.16,2.16,0,0,0,1.1.3H771a2.16,2.16,0,0,0,1.1-.3,2.19,2.19,0,0,0,.8-.8l.46-.79h0l1.41-2.45a2.22,2.22,0,0,0,.3-1.1"></path><rect class="f0775f33-c48b-4c2d-9523-55ad3cfa99a3" x="763.21" width="11.88" height="10.88"></rect><path class="f22888ac-b8fa-4420-8b65-65e0ca60180e" d="M789.1,5.44a2.22,2.22,0,0,0-.3-1.1l-1.41-2.45-.46-.79a2.19,2.19,0,0,0-.8-.8A2.16,2.16,0,0,0,785,0h-3.74a2.21,2.21,0,0,0-1.9,1.1l-1.87,3.24a2.23,2.23,0,0,0,0,2.2l1.87,3.24a2.21,2.21,0,0,0,1.9,1.1H785a2.16,2.16,0,0,0,1.1-.3,2.19,2.19,0,0,0,.8-.8l.46-.79h0l1.41-2.45a2.22,2.22,0,0,0,.3-1.1"></path><rect class="f0775f33-c48b-4c2d-9523-55ad3cfa99a3" x="777.22" width="11.88" height="10.88"></rect></g></svg>